<?xml version="1.0" encoding="UTF-8"?>
<svg width="23px" height="23px" viewBox="0 0 23 23" version="1.1" xmlns="http://www.w3.org/2000/svg" xmlns:xlink="http://www.w3.org/1999/xlink">
    <!-- Generator: Sketch 49 (51002) - http://www.bohemiancoding.com/sketch -->
    <title>obelisco</title>
    <desc>Created with Sketch.</desc>
    <defs>
        <polygon id="path-1" points="5.20361991e-06 0 23 0 23 22.9999532 5.20361991e-06 22.9999532"></polygon>
    </defs>
    <g id="Page-1" stroke="none" stroke-width="1" fill="none" fill-rule="evenodd">
        <g id="LA-CIUDAD_2" transform="translate(-52.000000, -517.000000)">
            <g id="obelisco" transform="translate(52.000000, 517.000000)">
                <g id="Page-1">
                    <mask id="mask-2" fill="white">
                        <use xlink:href="#path-1"></use>
                    </mask>
                    <g id="Clip-2"></g>
                    <path d="M22.2332778,20.7000312 L21.7379192,20.7000312 C21.6658491,20.7000312 21.5969532,20.6714633 21.5461398,20.6205459 C21.3518106,20.4255143 21.087779,20.3161602 20.8123514,20.3164464 L20.6999271,20.3164464 L20.6999271,19.5501353 L21.195702,19.5501353 C21.267564,19.5501353 21.33646,19.578391 21.3873774,19.6293084 C21.5817066,19.8244441 21.8456602,19.9339023 22.1209837,19.9333038 L22.2332778,19.9333038 L22.2332778,20.7000312 Z M11.8833559,22.2333559 L11.8833559,2.68319977 L12.7060742,2.68319977 L14.1539554,22.2333559 L11.8833559,22.2333559 Z M10.2941183,2.68319977 L11.1168367,2.68319977 L11.1168367,22.2333559 L10.3501353,22.2333559 L10.3501353,21.4666285 L9.58351199,21.4666285 L9.58351199,22.2333559 L8.84615905,22.2333559 L10.2941183,2.68319977 Z M11.8833559,1.30861154 L12.4913208,1.9164724 L11.8833559,1.9164724 L11.8833559,1.30861154 Z M11.1168367,1.9164724 L10.5087676,1.9164724 L11.1168367,1.30861154 L11.1168367,1.9164724 Z M0.766628507,19.5501353 L1.26229932,19.5501353 C1.33423937,19.5501353 1.40316131,19.578391 1.45387059,19.6293084 C1.64819977,19.8244441 1.91243959,19.9339023 2.18776312,19.9333038 L2.29995317,19.9333038 L2.29995317,20.7000312 L1.80430837,20.7000312 C1.73255045,20.7000312 1.66355045,20.6714633 1.61252896,20.6205459 C1.41840792,20.4255143 1.15435023,20.3161602 0.878922624,20.3164464 L0.766628507,20.3164464 L0.766628507,19.5501353 Z M4.59992715,19.5501353 L5.09559796,19.5501353 C5.16764208,19.5501353 5.23656403,19.578391 5.28737738,19.6293084 C5.48149842,19.8244441 5.74573824,19.9339023 6.02095769,19.9333038 L6.13345995,19.9333038 L6.13345995,20.7000312 L5.63760701,20.7000312 C5.56595317,20.7000312 5.4968491,20.6714633 5.4461138,20.6205459 C5.25181063,20.4255143 4.98764887,20.3161602 4.71232534,20.3164464 L4.60003122,20.3164464 L4.60003122,19.5501353 L4.59992715,19.5501353 Z M16.8666285,19.5501353 L17.3622993,19.5501353 C17.4341613,19.5501353 17.5031613,19.578391 17.5540787,19.6293084 C17.7483038,19.8244441 18.0124396,19.9339023 18.2876851,19.9333038 L18.3999792,19.9333038 L18.3999792,20.7000312 L17.9044124,20.7000312 C17.8324464,20.7000312 17.7635505,20.6714633 17.7127371,20.6205459 C17.5184079,20.4255143 17.2543762,20.3161602 16.9790527,20.3164464 L16.8666285,20.3164464 L16.8666285,19.5501353 Z M22.6166285,19.1665765 L22.1209837,19.1665765 C22.0490176,19.1665765 21.9803038,19.1381127 21.9292824,19.0874034 C21.7351613,18.8921636 21.4710256,18.7827054 21.195702,18.7834339 L19.9333299,18.7834339 L19.9333299,22.2333559 L16.8666285,22.2333559 L16.8666285,21.083486 L16.9790527,21.083486 C17.0508887,21.083486 17.1199147,21.1118457 17.170624,21.162659 C17.3648491,21.3577948 17.6290889,21.4672529 17.9044124,21.4666285 L18.7833299,21.4666285 C18.9950391,21.4666285 19.1666025,21.2950912 19.1666025,21.083486 L19.1666025,19.5501353 C19.1666025,19.3382439 18.9950391,19.1665765 18.7833299,19.1665765 L18.2876851,19.1665765 C18.2158231,19.1665765 18.1468231,19.1381127 18.0960878,19.0874034 C17.9018627,18.8921636 17.6377269,18.7827054 17.3622993,18.7834339 L16.1000312,18.7834339 L16.1000312,22.2333559 L14.9225041,22.2333559 L13.4167066,1.88832081 C13.4097857,1.79665905 13.3704464,1.71066923 13.3055052,1.64551991 L11.7721805,0.112195249 C11.6224724,-0.0374088235 11.3798796,-0.0374088235 11.2301715,0.112195249 L9.69682081,1.64551991 C9.63198371,1.71066923 9.59235814,1.79665905 9.58564548,1.88832081 L8.07761041,22.2333559 L4.60003122,22.2333559 L4.60003122,21.0831738 L4.71232534,21.0831738 C4.78418733,21.0831738 4.85308326,21.1118457 4.90410475,21.162659 C5.09832986,21.3577948 5.36228348,21.4672529 5.63760701,21.4666285 L6.51683665,21.4666285 C6.72841584,21.4666285 6.90008326,21.2950912 6.90008326,21.0831738 L6.90008326,19.5501353 C6.90008326,19.3382439 6.72841584,19.1665765 6.51683665,19.1665765 L6.02116584,19.1665765 C5.94919977,19.1665765 5.88019977,19.1381127 5.82938643,19.0871952 C5.63505724,18.8921636 5.37102557,18.7827054 5.09559796,18.7831217 L3.83330385,18.7831217 L3.83330385,22.2333559 L0.766628507,22.2333559 L0.766628507,21.0831738 L0.878922624,21.0831738 C0.950888688,21.0831738 1.01978462,21.1118457 1.07070204,21.162659 C1.26492715,21.3577948 1.52908891,21.4672529 1.80430837,21.4666285 L2.68322579,21.4666285 C2.89511719,21.4666285 3.06668054,21.2950912 3.06668054,21.0831738 L3.06668054,19.5501353 C3.06668054,19.3382439 2.89511719,19.1665765 2.68322579,19.1665765 L2.18776312,19.1665765 C2.11579706,19.1665765 2.04679706,19.1381127 1.99608778,19.0871952 C1.8017586,18.8921636 1.53772692,18.7827054 1.26240339,18.7831217 L5.20361991e-06,18.7831217 L5.20361991e-06,22.9999532 L23.0000052,22.9999532 L23.0000052,22.2333559 L20.6999271,22.2333559 L20.6999271,21.0831738 L20.8123514,21.0831738 C20.8842914,21.0831738 20.9533174,21.1118457 21.0040267,21.162659 C21.1982518,21.3577948 21.4624916,21.4672529 21.7377111,21.4666285 L22.6166285,21.4666285 C22.8283378,21.4666285 23.0000052,21.2950912 23.0000052,21.0831738 L23.0000052,19.5501353 C23.0000052,19.3382439 22.8283378,19.1665765 22.6166285,19.1665765 Z" id="Fill-1" fill="#FEFEFE" mask="url(#mask-2)"></path>
                </g>
            </g>
        </g>
    </g>
</svg>