<svg xmlns="http://www.w3.org/2000/svg" xmlns:xlink="http://www.w3.org/1999/xlink" width="52" height="52" viewBox="0 0 52 52">
    <defs>
        <path id="a" d="M0 0h52v52H0z"/>
    </defs>
    <g fill="none" fill-rule="evenodd">
        <g>
            <mask id="b" fill="#fff">
                <use xlink:href="#a"/>
            </mask>
            <path fill="#000" d="M52 26c0 14.359-11.641 26-26 26C11.64 52 0 40.359 0 26 0 11.64 11.64 0 26 0c14.359 0 26 11.64 26 26" mask="url(#b)"/>
        </g>
        <path fill="#FFF" d="M36.555 35.3a6.904 6.904 0 0 1-6.896-6.896 6.89 6.89 0 0 1 3.165-5.795l3.142 6.098a.664.664 0 0 0 1.178-.607L34 22a6.878 6.878 0 0 1 2.556-.493 6.904 6.904 0 0 1 6.896 6.897 6.904 6.904 0 0 1-6.896 6.896zm-11.032-8.22l-3.863-7.57h8.768l-4.905 7.57zM14.42 35.3a6.904 6.904 0 0 1-6.896-6.896c0-3.803 3.094-6.897 6.896-6.897 1.141 0 2.217.28 3.165.772l-3.72 5.765a.664.664 0 0 0 .555 1.022h6.864C20.95 32.56 18 35.3 14.42 35.3zm6.864-7.559h-5.648L18.697 23a6.889 6.889 0 0 1 2.587 4.742zm-.768-7.56l3.857 7.56h-1.758a8.222 8.222 0 0 0-3.196-5.86l1.097-1.7zm16.04.002c-1.122 0-2.19.225-3.166.634l-2.33-4.523h3.257a.64.64 0 0 1 0 1.282h-.696a.662.662 0 0 0 0 1.325h.696a1.968 1.968 0 0 0 1.966-1.966 1.968 1.968 0 0 0-1.966-1.966h-4.344a.664.664 0 0 0-.589.966l1.158 2.25h-9.558l-.964-1.89h1.525a.663.663 0 0 0 0-1.326h-4.344a.663.663 0 1 0 0 1.325h1.332l1.287 2.523-1.513 2.344a8.168 8.168 0 0 0-3.887-.978c-4.533 0-8.22 3.687-8.22 8.221 0 4.533 3.687 8.22 8.22 8.22 4.311 0 7.857-3.334 8.195-7.558h1.943l-.755 2.457h-.435a.662.662 0 0 0 0 1.324h2.385a.663.663 0 0 0 0-1.324h-.564l.872-2.836 5.511-8.507.641 1.245a8.226 8.226 0 0 0-3.88 6.98c0 4.532 3.69 8.22 8.222 8.22 4.533 0 8.221-3.688 8.221-8.22 0-4.535-3.688-8.222-8.22-8.222z"/>
    </g>
</svg>
