<svg xmlns="http://www.w3.org/2000/svg" width="56" height="45" viewBox="0 0 56 45">
    <g fill="#231F20" fill-rule="evenodd">
        <path d="M50.157 0v1.502H47.64V0h-1.663v1.502H43.46V0h-1.664v1.502h-2.516V0h-1.664v1.502h-2.516V0h-1.663v1.502H30.92V0h-1.663v1.502h-2.516V0h-1.663v1.502h-2.517V0H20.9v1.502h-2.517V0H16.72v1.502h-2.516V0h-1.664v1.502h-2.516V0H8.36v1.502H5.843V0H4.179v1.502H0V45h56V1.502h-4.18V0h-1.663zm1.663 4.673V3.17h2.516v7.872H9.407v1.669h44.93v30.62H1.663v-30.62h5.525v-1.67H1.664V3.172h2.515v1.502h1.664V3.17H8.36v1.502h1.663V3.17h2.516v1.502h1.664V3.17h2.516v1.502h1.663V3.17H20.9v1.502h1.663V3.17h2.517v1.502h1.663V3.17h2.516v1.502h1.663V3.17h2.517v1.502H35.1V3.17h2.516v1.502h1.663V3.17h2.517v1.502h1.663V3.17h2.517v1.502h1.663V3.17h2.516v1.502h1.664z"/>
        <path d="M43.443 20.834h5.899v-4.17h-5.899v4.17zm0 5.834h5.899v-4.17h-5.899v4.17zm0 5.833h5.899v-4.169h-5.899v4.17zm-7.557-11.667h5.898v-4.17h-5.898v4.17zm0 5.834h5.898v-4.17h-5.898v4.17zm0 5.833h5.898v-4.169h-5.898v4.17zm0 5.834h5.898v-4.17h-5.898v4.17zm-7.556-17.5h5.898v-4.17H28.33v4.17zm0 5.833h5.898v-4.17H28.33v4.17zm0 5.833h5.898v-4.169H28.33v4.17zm0 5.834h5.898v-4.17H28.33v4.17zm-7.557-17.5h5.898v-4.17h-5.898v4.17zm0 5.833h5.898v-4.17h-5.898v4.17zm0 5.833h5.898v-4.169h-5.898v4.17zm0 5.834h5.898v-4.17h-5.898v4.17zm-7.557-17.5h5.898v-4.17h-5.898v4.17zm0 5.833h5.898v-4.17h-5.898v4.17zm0 5.833h5.898v-4.168h-5.898V32.5zm0 5.834h5.898v-4.17h-5.898v4.17zM5.66 26.668h5.898v-4.17H5.659v4.17zm0 5.833h5.898v-4.169H5.659v4.17zm0 5.834h5.898v-4.17H5.659v4.17zM11.557 15v5.834H4V40h39.443v-5.834H51V15H11.557z"/>
    </g>
</svg>
