<svg xmlns="http://www.w3.org/2000/svg" xmlns:xlink="http://www.w3.org/1999/xlink" width="52" height="52" viewBox="0 0 52 52">
    <defs>
        <path id="a" d="M0 0h52v52H0z"/>
    </defs>
    <g fill="none" fill-rule="evenodd">
        <g>
            <mask id="b" fill="#fff">
                <use xlink:href="#a"/>
            </mask>
            <path fill="#000" d="M52 26c0 14.358-11.641 26-26 26C11.64 52 0 40.358 0 26 0 11.64 11.64 0 26 0c14.359 0 26 11.64 26 26" mask="url(#b)"/>
        </g>
        <path fill="#FFF" d="M30.01 21.306l5.32 5.32a2.45 2.45 0 0 1-.375.025c-.758 0-3.188-1.379-4.825-2.448-.124-1.238-.176-2.283-.12-2.897m4.335 12.47c.393.784.584 5.32.607 8.557h-1.108c-.089-.17-.252-.75-.252-2.048 0-2.91-1.39-7.366-4.566-8.16-2.107-.526-4.387-2.429-4.898-3.04v-7.887c0-.237-.162-.456-.362-.58a.725.725 0 0 0-.684-.03c-2.58 1.29-3.502 4.627-3.726 5.653l-.849.562c-.079-1.807.068-4.618 1.255-5.805 1.617-1.618 3.698-3.257 4.43-3.822a4.39 4.39 0 0 0 2.244.613c.73 0 1.42-.178 2.026-.493.368.915.753 2.27.431 2.915-.727 1.453.291 7.477.62 9.287a.686.686 0 0 0 .293.448c1.522 1.015 4.101 2.953 4.54 3.83M19.457 41.76c-.797.221-1.653.438-2.32.582.985-1.657 2.398-4.46 2.738-5.14l3.672-6.733c.286.25.654.555 1.081.877-1.868 2.71-4.548 8.941-5.17 10.414m6.976-31.469a3.07 3.07 0 0 1 3.067 3.067 3.07 3.07 0 0 1-3.067 3.067 3.07 3.07 0 0 1-3.068-3.067 3.07 3.07 0 0 1 3.068-3.067M37 26.652a.683.683 0 0 0-.199-.484l-6.135-6.133a.668.668 0 0 0-.306-.175c.096-1.254-.47-2.722-.769-3.395a4.416 4.416 0 0 0 1.275-3.106 4.435 4.435 0 0 0-4.43-4.43 4.435 4.435 0 0 0-4.43 4.43 4.41 4.41 0 0 0 1.108 2.926c-.9.703-2.782 2.214-4.317 3.75-2.255 2.253-1.587 7.827-1.558 8.063a.683.683 0 0 0 1.055.482l2.044-1.363c.157-.103.303-.268.334-.454.006-.03.39-2.698 2.094-4.242v6.681l-4.058 7.368c-1.315 2.632-2.922 5.58-3.3 5.957-.339.34-.318.72-.174.963.12.205.222.388.783.388.618 0 1.786-.224 4.134-.895a.681.681 0 0 0 .44-.393c.032-.079 3.17-7.584 5.16-10.468.88.56 1.885 1.07 2.905 1.325 2.332.582 3.574 4.347 3.574 6.838 0 2.817.741 3.412 1.363 3.412h2.044a.684.684 0 0 0 .682-.685c0-1.393-.037-8.414-.753-9.849-.663-1.326-3.798-3.533-4.76-4.189a71.185 71.185 0 0 1-.47-3.027c1.403.863 3.554 2.067 4.62 2.067 2.022 0 2.044-1.308 2.044-1.363"/>
    </g>
</svg>
