<svg xmlns="http://www.w3.org/2000/svg" width="45" height="45" viewBox="0 0 45 45">
    <g fill="#000" fill-rule="evenodd">
        <path d="M22.5 42.188c-10.873 0-19.688-8.815-19.688-19.688S11.627 2.812 22.5 2.812 42.188 11.627 42.188 22.5 33.373 42.188 22.5 42.188M22.5 0C10.074 0 0 10.074 0 22.5S10.074 45 22.5 45 45 34.926 45 22.5 34.926 0 22.5 0"/>
        <path d="M22.917 15.862c2.347 0 4.25 1.917 4.25 4.282H30c.004-3.941-3.164-7.14-7.076-7.144-3.372-.003-6.278 2.388-6.949 5.717H13v2.855h2.833v2.855H13v2.855h2.975c.778 3.863 4.517 6.358 8.351 5.574 3.304-.676 5.677-3.605 5.674-7.002h-2.833c-.019 2.365-1.936 4.268-4.283 4.25a4.252 4.252 0 0 1-3.962-2.822H21.5v-2.855h-2.833v-2.855H21.5v-2.855h-2.578a4.252 4.252 0 0 1 3.995-2.855"/>
    </g>
</svg>
