<?xml version="1.0" encoding="UTF-8"?>
<svg width="22px" height="22px" viewBox="0 0 22 22" version="1.1" xmlns="http://www.w3.org/2000/svg" xmlns:xlink="http://www.w3.org/1999/xlink">
    <!-- Generator: Sketch 49 (51002) - http://www.bohemiancoding.com/sketch -->
    <title>hotel</title>
    <desc>Created with Sketch.</desc>
    <defs>
        <polygon id="path-1" points="0 0 22 0 22 22 0 22"></polygon>
    </defs>
    <g id="Page-1" stroke="none" stroke-width="1" fill="none" fill-rule="evenodd">
        <g id="LA-CIUDAD_2" transform="translate(-437.000000, -517.000000)">
            <g id="hotel" transform="translate(437.000000, 517.000000)">
                <g id="Page-1">
                    <mask id="mask-2" fill="white">
                        <use xlink:href="#path-1"></use>
                    </mask>
                    <g id="Clip-2"></g>
                    <path d="M4.04954344,13.5843196 L5.89021559,13.5843196 L5.89021559,10.6686925 L4.04954344,10.6686925 L4.04954344,13.5843196 Z M6.25825294,9.93975904 L3.68150609,9.93975904 C3.47817948,9.93975904 3.31325301,10.102824 3.31325301,10.3043326 L3.31325301,13.9486795 C3.31325301,14.1499211 3.47817948,14.313253 3.68150609,14.313253 L6.25825294,14.313253 C6.46157956,14.313253 6.62650602,14.1499211 6.62650602,13.9486795 L6.62650602,10.3043326 C6.62650602,10.102824 6.46157956,9.93975904 6.25825294,9.93975904 Z" id="Fill-1" fill="#FEFEFE" mask="url(#mask-2)"></path>
                    <path d="M10.2785071,13.5843196 L12.1190833,13.5843196 L12.1190833,10.6686925 L10.2785071,10.6686925 L10.2785071,13.5843196 Z M12.4873604,9.93975904 L9.91022999,9.93975904 C9.70689014,9.93975904 9.54216867,10.102824 9.54216867,10.3043326 L9.54216867,13.9486795 C9.54216867,14.1499211 9.70689014,14.313253 9.91022999,14.313253 L12.4873604,14.313253 C12.6907002,14.313253 12.8554217,14.1499211 12.8554217,13.9486795 L12.8554217,10.3043326 C12.8554217,10.102824 12.6907002,9.93975904 12.4873604,9.93975904 Z" id="Fill-3" fill="#FEFEFE" mask="url(#mask-2)"></path>
                    <path d="M10.2785071,19.4158228 L12.1190833,19.4158228 L12.1190833,16.5001068 L10.2785071,16.5001068 L10.2785071,19.4158228 Z M12.4873604,15.7710843 L9.91022999,15.7710843 C9.70689014,15.7710843 9.54216867,15.9341573 9.54216867,16.1354621 L9.54216867,19.7802006 C9.54216867,19.981452 9.70689014,20.1445783 9.91022999,20.1445783 L12.4873604,20.1445783 C12.6907002,20.1445783 12.8554217,19.981452 12.8554217,19.7802006 L12.8554217,16.1354621 C12.8554217,15.9343708 12.6907002,15.7710843 12.4873604,15.7710843 Z" id="Fill-4" fill="#FEFEFE" mask="url(#mask-2)"></path>
                    <path d="M16.1098324,13.5843196 L17.9504086,13.5843196 L17.9504086,10.6686925 L16.1098324,10.6686925 L16.1098324,13.5843196 Z M18.3186857,9.93975904 L15.7415553,9.93975904 C15.5382154,9.93975904 15.373494,10.102824 15.373494,10.3043326 L15.373494,13.9486795 C15.373494,14.1499211 15.5382154,14.313253 15.7415553,14.313253 L18.3186857,14.313253 C18.5220255,14.313253 18.686747,14.1499211 18.686747,13.9486795 L18.686747,10.3043326 C18.686747,10.102824 18.5220255,9.93975904 18.3186857,9.93975904 Z" id="Fill-5" fill="#FEFEFE" mask="url(#mask-2)"></path>
                    <path d="M4.04954344,19.4158228 L5.89021559,19.4158228 L5.89021559,16.5001068 L4.04954344,16.5001068 L4.04954344,19.4158228 Z M6.25825294,15.7710843 L3.68150609,15.7710843 C3.47817948,15.7710843 3.31325301,15.9341573 3.31325301,16.1354621 L3.31325301,19.7802006 C3.31325301,19.981452 3.47817948,20.1445783 3.68150609,20.1445783 L6.25825294,20.1445783 C6.46157956,20.1445783 6.62650602,19.981452 6.62650602,19.7802006 L6.62650602,16.1354621 C6.62650602,15.9343708 6.46157956,15.7710843 6.25825294,15.7710843 Z" id="Fill-6" fill="#FEFEFE" mask="url(#mask-2)"></path>
                    <path d="M16.1098324,19.4158228 L17.9504086,19.4158228 L17.9504086,16.5001068 L16.1098324,16.5001068 L16.1098324,19.4158228 Z M18.3186857,15.7710843 L15.7415553,15.7710843 C15.5382154,15.7710843 15.373494,15.9341573 15.373494,16.1354621 L15.373494,19.7802006 C15.373494,19.981452 15.5382154,20.1445783 15.7415553,20.1445783 L18.3186857,20.1445783 C18.5220255,20.1445783 18.686747,19.981452 18.686747,19.7802006 L18.686747,16.1354621 C18.686747,15.9343708 18.5220255,15.7710843 18.3186857,15.7710843 Z" id="Fill-7" fill="#FEFEFE" mask="url(#mask-2)"></path>
                    <path d="M1.83309164,8.06665055 L1.46656999,8.06665055 L1.46656999,6.96664787 L20.5302611,6.96664787 L20.5302611,8.06665055 L1.83309164,8.06665055 Z M2.19961328,21.2667902 L19.7970029,21.2667902 L19.7970029,8.80002149 L2.19961328,8.80002149 L2.19961328,21.2667902 Z M2.19961328,6.23327693 L19.7970029,6.23327693 L19.7970029,5.13327424 L2.19961328,5.13327424 L2.19961328,6.23327693 Z M3.29944678,4.39990331 L18.6971694,4.39990331 L18.6971694,0.733370937 L3.29944678,0.733370937 L3.29944678,4.39990331 Z M20.5302611,21.2667902 L20.5302611,8.80002149 L20.8968364,8.80002149 C21.099272,8.80002149 21.2635729,8.63596385 21.2635729,8.43344346 L21.2635729,6.60006983 C21.2635729,6.39760316 21.099272,6.23327693 20.8968364,6.23327693 L20.5302611,6.23327693 L20.5302611,4.76669621 C20.5302611,4.56422954 20.3662287,4.40011818 20.1637394,4.40011818 L19.4304813,4.40011818 L19.4304813,0.36657803 C19.4304813,0.164057636 19.2663952,0 19.0639596,0 L2.93287142,0 C2.73043589,0 2.56634977,0.164057636 2.56634977,0.36657803 L2.56634977,4.39990331 L1.83309164,4.39990331 C1.63060239,4.39990331 1.46656999,4.56422954 1.46656999,4.76669621 L1.46656999,6.23327693 L1.0998335,6.23327693 C0.897344251,6.23327693 0.733258138,6.39760316 0.733258138,6.60006983 L0.733258138,8.43322858 C0.733258138,8.63574898 0.897344251,8.80002149 1.0998335,8.80002149 L1.46656999,8.80002149 L1.46656999,21.2666291 L0,21.2666291 L0,22 L22,22 L22,21.2666291 L20.5302611,21.2666291 L20.5302611,21.2667902 Z" id="Fill-8" fill="#FEFEFE" mask="url(#mask-2)"></path>
                    <path d="M9.96948096,2.72995584 C9.93530869,2.83179025 9.88624897,2.91775574 9.82214286,2.98837775 C9.7581427,3.05878958 9.68036768,3.11275446 9.58865885,3.15053513 C9.497003,3.18810562 9.39374448,3.20696969 9.27867135,3.20696969 C9.16359823,3.20696969 9.06012778,3.18810562 8.96778319,3.15053513 C8.87570349,3.11275446 8.79729271,3.05878958 8.73270977,2.98837775 C8.66812683,2.91775574 8.61848433,2.83179025 8.5836763,2.72995584 C8.54913317,2.62838415 8.53175565,2.51362338 8.53175565,2.38556844 C8.53175565,2.25746095 8.54913317,2.14254255 8.5836763,2.04091832 C8.61848433,1.93929408 8.66812683,1.85290823 8.73270977,1.78186585 C8.79729271,1.71087602 8.87570349,1.65649076 8.96778319,1.61892027 C9.06012778,1.5811396 9.16359823,1.56248572 9.27867135,1.56248572 C9.39374448,1.56248572 9.497003,1.5811396 9.58865885,1.61892027 C9.68036768,1.65649076 9.7581427,1.71087602 9.82214286,1.78186585 C9.88624897,1.85290823 9.93530869,1.93929408 9.96948096,2.04091832 C10.0036002,2.14254255 10.0208188,2.25746095 10.0208188,2.38556844 C10.0208188,2.51362338 10.0036002,2.62838415 9.96948096,2.72995584 M10.3835747,1.91018352 C10.3260381,1.76442053 10.2453492,1.63841489 10.141243,1.53248187 C10.0369248,1.4266014 9.91173248,1.34347341 9.76518908,1.2830979 C9.61869866,1.22298511 9.45663204,1.19277108 9.27867135,1.19277108 C9.10065768,1.19277108 8.9382202,1.22256475 8.79125296,1.28225716 C8.6443387,1.34200212 8.51851058,1.42513011 8.41376861,1.53169368 C8.30907961,1.63820471 8.22796683,1.76442053 8.17043027,1.91018352 C8.11310563,2.05589397 8.08433735,2.21437312 8.08433735,2.38556844 C8.08433735,2.55650103 8.11310563,2.71498019 8.17043027,2.86090082 C8.22796683,3.00666381 8.30907961,3.13266945 8.41376861,3.2394432 C8.51851058,3.34595423 8.6443387,3.42887203 8.79125296,3.48861699 C8.9382202,3.54830941 9.10065768,3.57831325 9.27867135,3.57831325 C9.45663204,3.57831325 9.61869866,3.54830941 9.76518908,3.48861699 C9.91173248,3.42908222 10.0369248,3.34595423 10.141243,3.2394432 C10.2453492,3.13287963 10.3260381,3.00666381 10.3835747,2.86090082 C10.4411112,2.71498019 10.4698795,2.55650103 10.4698795,2.38556844 C10.4698795,2.21437312 10.4411112,2.05589397 10.3835747,1.91018352" id="Fill-9" fill="#FEFEFE" mask="url(#mask-2)"></path>
                    <polygon id="Fill-10" fill="#FEFEFE" mask="url(#mask-2)" points="7.24515675 1.3253012 7.24515675 2.3512444 6.14038541 2.3512444 6.14038541 1.3253012 5.69879518 1.3253012 5.69879518 3.71084337 6.14038541 3.71084337 6.14038541 2.66808848 7.24515675 2.66808848 7.24515675 3.71084337 7.68674699 3.71084337 7.68674699 1.3253012"></polygon>
                    <polygon id="Fill-11" fill="#FEFEFE" mask="url(#mask-2)" points="15.0407313 3.34447729 15.0407313 1.3253012 14.5783133 1.3253012 14.5783133 3.71084337 16.0361446 3.71084337 16.0361446 3.34447729"></polygon>
                    <polygon id="Fill-12" fill="#FEFEFE" mask="url(#mask-2)" points="10.4698795 1.3253012 10.4698795 1.68973367 11.1806648 1.68973367 11.1806648 3.71084337 11.618063 3.71084337 11.618063 1.68973367 12.3253012 1.68973367 12.3253012 1.3253012"></polygon>
                    <polygon id="Fill-13" fill="#FEFEFE" mask="url(#mask-2)" points="14.1807229 1.6781857 14.1807229 1.3253012 12.7228916 1.3253012 12.7228916 3.71084337 14.1807229 3.71084337 14.1807229 3.35602526 13.1561504 3.35602526 13.1561504 2.68130151 13.9633909 2.68130151 13.9633909 2.33969643 13.1561504 2.33969643 13.1561504 1.6781857"></polygon>
                </g>
            </g>
        </g>
    </g>
</svg>