<svg xmlns="http://www.w3.org/2000/svg" width="13" height="13" viewBox="0 0 13 13">
    <g fill="none" fill-rule="evenodd">
        <path d="M-1.673-1.517h16.27V14.62h-16.27z"/>
        <path fill="#000" fill-rule="nonzero" d="M8.834 7.897H8.3l-.19-.182a4.33 4.33 0 0 0 1.064-2.844C9.173 2.457 7.2.5 4.767.5 2.333.5.36 2.457.36 4.87c0 2.415 1.972 4.371 4.406 4.371a4.408 4.408 0 0 0 2.867-1.055l.183.188v.531l3.39 3.356 1.01-1.002-3.383-3.362zm-4.067 0a3.034 3.034 0 0 1-3.05-3.026 3.034 3.034 0 0 1 3.05-3.026 3.034 3.034 0 0 1 3.05 3.026 3.034 3.034 0 0 1-3.05 3.026z"/>
    </g>
</svg>
