<svg xmlns="http://www.w3.org/2000/svg" xmlns:xlink="http://www.w3.org/1999/xlink" width="28" height="24" viewBox="0 0 28 24">
    <defs>
        <path id="a" d="M0 .01h28V24H0z"/>
    </defs>
    <g fill="none" fill-rule="evenodd">
        <mask id="b" fill="#fff">
            <use xlink:href="#a"/>
        </mask>
        <path fill="#FFF" d="M26.689 22.674H1.31V1.337H26.69v21.337zm0-22.664H1.31A1.32 1.32 0 0 0 0 1.337v21.337A1.32 1.32 0 0 0 1.311 24H26.69A1.32 1.32 0 0 0 28 22.674V1.337A1.32 1.32 0 0 0 26.689.01z" mask="url(#b)"/>
        <path fill="#FFF" d="M23.697 4.35V15.58l-3.793-3.927a.636.636 0 0 0-.922 0l-2.325 2.408-5.367-5.558a.636.636 0 0 0-.921 0l-6.066 6.28V4.35h19.394zm0 13.3h-3.574l-2.544-2.634 1.864-1.93 4.125 4.27c.04.04.083.074.129.103v.192zm-19.394-.957l6.526-6.758 7.451 7.716H4.303v-.958zM3.652 19h20.696a.665.665 0 0 0 .652-.675V3.675c0-.013 0-.025-.002-.036a.661.661 0 0 0-.65-.639H3.652A.663.663 0 0 0 3 3.675v14.65c0 .373.292.675.652.675z"/>
        <path fill="#FFF" d="M16.5 6.384c.615 0 1.116.5 1.116 1.116a1.118 1.118 0 0 1-2.232 0c0-.616.5-1.116 1.116-1.116m0 3.616C17.88 10 19 8.878 19 7.5S17.879 5 16.5 5A2.503 2.503 0 0 0 14 7.5c0 1.378 1.121 2.5 2.5 2.5M3.688 21h5.624c.38 0 .688-.224.688-.5s-.308-.5-.688-.5H3.688c-.38 0-.688.224-.688.5s.308.5.688.5M13.276 20h-1.552c-.4 0-.724.224-.724.5s.324.5.724.5h1.552c.4 0 .724-.224.724-.5s-.324-.5-.724-.5"/>
    </g>
</svg>
