<svg xmlns="http://www.w3.org/2000/svg" xmlns:xlink="http://www.w3.org/1999/xlink" width="207" height="45" viewBox="0 0 207 45">
    <defs>
        <path id="a" d="M0 .035h39.786V44.93H0z"/>
        <path id="c" d="M0 45h206.893V.035H0z"/>
    </defs>
    <g fill="none" fill-rule="evenodd">
        <path fill="#FEFEFE" d="M131 44h9v-9h-9zM131 27h9v-9h-9zM78 35.562H55.75V26.32h19.105v-8.107H55.75V9.207H78V1H46v43h32zM112.812 29.183c-.269 2.132-1.142 3.925-2.62 5.376-1.537 1.509-3.63 2.263-6.28 2.263-1.69 0-3.217-.358-4.58-1.074a10.176 10.176 0 0 1-3.458-2.958c-.941-1.256-1.67-2.755-2.19-4.495-.518-1.74-.777-3.634-.777-5.684 0-2.05.23-3.945.692-5.685.46-1.74 1.142-3.248 2.045-4.524a9.545 9.545 0 0 1 3.4-2.987c1.362-.715 2.967-1.073 4.81-1.073 2.42 0 4.388.667 5.906 2 1.517 1.335 2.429 3.027 2.737 5.076h9.795c-.27-2.436-.951-4.678-2.046-6.728-1.094-2.05-2.621-3.79-4.58-5.22-1.46-1.122-3.189-1.963-5.186-2.524-1.997-.56-4.187-.84-6.568-.84-3.189 0-6.079.57-8.671 1.71-2.593 1.141-4.802 2.717-6.626 4.728-1.825 2.01-3.237 4.389-4.235 7.134-1 2.746-1.498 5.723-1.498 8.933s.509 6.187 1.527 8.932c1.017 2.746 2.448 5.114 4.292 7.106 1.844 1.992 4.062 3.548 6.655 4.669C97.949 44.439 100.8 45 103.912 45c2.996 0 5.608-.406 7.836-1.218 2.227-.812 4.148-2.03 5.761-3.654a18.588 18.588 0 0 0 3.573-5.076 16.664 16.664 0 0 0 1.592-5.87h-9.862z"/>
        <mask id="b" fill="#fff">
            <use xlink:href="#a"/>
        </mask>
        <path fill="#FEFEFE" d="M29.921 29.183c-.279 2.102-1.149 3.87-2.611 5.306-1.537 1.508-3.63 2.262-6.28 2.262-1.69 0-3.218-.357-4.58-1.073a10.179 10.179 0 0 1-3.458-2.958c-.941-1.256-1.67-2.755-2.19-4.495-.518-1.74-.777-3.635-.777-5.685 0-2.049.23-3.944.692-5.684.46-1.74 1.142-3.248 2.045-4.524a9.546 9.546 0 0 1 3.4-2.988c1.362-.715 2.967-1.073 4.81-1.073 2.42 0 4.388.667 5.906 2.002 1.517 1.334 2.429 3.026 2.737 5.075h9.795c-.27-2.436-.951-4.678-2.046-6.729-1.094-2.049-2.621-3.789-4.58-5.22-1.46-1.12-3.189-1.962-5.186-2.523-1.997-.56-4.187-.841-6.568-.841-3.189 0-6.079.57-8.671 1.711-2.593 1.14-4.802 2.717-6.626 4.727-1.825 2.011-3.237 4.39-4.235 7.135C.498 16.354 0 19.33 0 22.54c0 3.21.509 6.188 1.527 8.933 1.017 2.746 2.448 5.114 4.292 7.105 1.844 1.992 4.062 3.549 6.655 4.67 2.593 1.12 5.445 1.682 8.556 1.682 2.996 0 5.608-.406 7.836-1.218 2.227-.812 4.148-2.03 5.761-3.655a18.588 18.588 0 0 0 3.573-5.075 16.658 16.658 0 0 0 1.586-5.8h-9.865z" mask="url(#b)"/>
        <path fill="#FEFEFE" d="M147.524 21.431v-.073c0-1.948 1.312-3.354 3.104-3.354 1.377 0 2.54.726 2.679 2.15h-.794c-.167-1.002-.749-1.516-1.876-1.516-1.367 0-2.282 1.056-2.282 2.71v.074c0 1.672.85 2.683 2.273 2.683 1.08 0 1.83-.542 1.995-1.608h.749c-.231 1.516-1.284 2.26-2.762 2.26-1.913 0-3.086-1.304-3.086-3.326M157.687 21.808c-.074-.993-.591-1.388-1.386-1.388-.785 0-1.312.533-1.441 1.388h2.827zm-3.649.514v-.073c0-1.452.933-2.463 2.263-2.463 1.118 0 2.171.671 2.171 2.39v.247h-3.64c.037 1.094.564 1.7 1.552 1.7.749 0 1.183-.275 1.284-.836h.767c-.166.965-.97 1.47-2.06 1.47-1.367 0-2.337-.955-2.337-2.435zM159.507 19.869h.767v.763c.222-.45.758-.846 1.552-.846.998 0 1.7.542 1.7 1.94v2.949h-.767V21.67c0-.845-.36-1.222-1.136-1.222-.711 0-1.349.45-1.349 1.314v2.913h-.767v-4.806zM165.06 23.47v-2.958h-.692v-.643h.692v-1.093h.767v1.093h1.127v.643h-1.127v2.885c0 .469.213.699.6.699.24 0 .426-.037.592-.101v.643c-.157.055-.342.1-.656.1-.878 0-1.303-.514-1.303-1.267M168.036 19.869h.766v.864c.305-.542.72-.92 1.59-.947v.717c-.97.046-1.59.35-1.59 1.534v2.638h-.766v-4.806zM174.826 22.313v-.064c0-1.112-.619-1.829-1.58-1.829-.97 0-1.58.717-1.58 1.82v.073c0 1.094.601 1.81 1.58 1.81.97 0 1.58-.726 1.58-1.81m-3.954 0v-.073c0-1.443 1.007-2.454 2.374-2.454 1.367 0 2.374 1.002 2.374 2.444v.074c0 1.452-1.007 2.453-2.383 2.453-1.377 0-2.365-1.038-2.365-2.444M182.485 22.304v-.074c0-1.23-.59-1.81-1.533-1.81-.96 0-1.534.671-1.534 1.838v.074c0 1.212.656 1.791 1.47 1.791.895 0 1.597-.588 1.597-1.819m-3.861.064v-.073c0-1.47.924-2.509 2.254-2.509.804 0 1.302.386 1.58.855v-3.07h.766v7.104h-.767v-.827c-.277.468-.95.91-1.653.91-1.265 0-2.18-.892-2.18-2.39M187.927 21.808c-.073-.993-.59-1.388-1.385-1.388-.785 0-1.312.533-1.441 1.388h2.826zm-3.648.514v-.073c0-1.452.933-2.463 2.263-2.463 1.118 0 2.17.671 2.17 2.39v.247h-3.639c.037 1.094.563 1.7 1.552 1.7.748 0 1.182-.275 1.284-.836h.767c-.166.965-.97 1.47-2.06 1.47-1.368 0-2.337-.955-2.337-2.435zM147.524 31.07v-.074c0-1.948 1.312-3.354 3.104-3.354 1.377 0 2.54.726 2.679 2.15h-.794c-.167-1.001-.749-1.516-1.876-1.516-1.367 0-2.282 1.057-2.282 2.71v.074c0 1.672.85 2.683 2.273 2.683 1.08 0 1.83-.542 1.995-1.608h.749c-.231 1.516-1.284 2.26-2.762 2.26-1.913 0-3.086-1.304-3.086-3.326M157.992 31.951v-.064c0-1.112-.62-1.828-1.58-1.828-.97 0-1.58.716-1.58 1.819v.073c0 1.094.6 1.81 1.58 1.81.97 0 1.58-.725 1.58-1.81m-3.954 0v-.073c0-1.443 1.007-2.454 2.374-2.454 1.367 0 2.374 1.002 2.374 2.445v.073c0 1.452-1.007 2.453-2.383 2.453-1.377 0-2.365-1.038-2.365-2.444M159.84 29.507h.767v.763c.222-.45.757-.845 1.552-.845.998 0 1.7.542 1.7 1.938v2.95h-.767v-3.005c0-.845-.36-1.222-1.136-1.222-.712 0-1.349.45-1.349 1.314v2.913h-.767v-4.806zM164.59 29.507h.83l1.433 4.034 1.413-4.034h.795l-1.737 4.806h-.98zM173.08 31.446c-.074-.992-.592-1.387-1.386-1.387-.785 0-1.312.532-1.441 1.387h2.827zm-3.65.515v-.074c0-1.452.934-2.463 2.264-2.463 1.118 0 2.17.671 2.17 2.39v.248h-3.639c.037 1.093.564 1.7 1.552 1.7.749 0 1.183-.276 1.284-.837h.767c-.166.965-.97 1.47-2.06 1.47-1.367 0-2.337-.955-2.337-2.434zM174.9 29.507h.767v.763c.222-.45.758-.845 1.552-.845.998 0 1.7.542 1.7 1.938v2.95h-.767v-3.005c0-.845-.36-1.222-1.136-1.222-.711 0-1.349.45-1.349 1.314v2.913h-.766v-4.806zM179.927 31.96v-.073c0-1.47 1.053-2.463 2.346-2.463 1.007 0 1.95.46 2.097 1.682h-.757c-.12-.763-.675-1.047-1.34-1.047-.877 0-1.552.698-1.552 1.828v.074c0 1.176.647 1.8 1.58 1.8.684 0 1.302-.395 1.386-1.176h.71c-.1 1.039-.941 1.81-2.105 1.81-1.35 0-2.365-.946-2.365-2.434"/>
        <mask id="d" fill="#fff">
            <use xlink:href="#c"/>
        </mask>
        <path fill="#FEFEFE" d="M185.433 34.313h.767v-4.806h-.767zM191.226 31.951v-.064c0-1.112-.62-1.828-1.58-1.828-.97 0-1.58.716-1.58 1.819v.073c0 1.094.6 1.81 1.58 1.81.97 0 1.58-.725 1.58-1.81m-3.954 0v-.073c0-1.443 1.007-2.454 2.374-2.454 1.367 0 2.374 1.002 2.374 2.445v.073c0 1.452-1.007 2.453-2.383 2.453-1.377 0-2.365-1.038-2.365-2.444M193.074 29.507h.767v.763c.222-.45.757-.845 1.552-.845.998 0 1.7.542 1.7 1.938v2.95h-.767v-3.005c0-.845-.36-1.222-1.136-1.222-.711 0-1.349.45-1.349 1.314v2.913h-.767v-4.806zM201.75 31.446c-.074-.992-.592-1.387-1.386-1.387-.785 0-1.312.532-1.441 1.387h2.827zm-3.65.515v-.074c0-1.452.934-2.463 2.264-2.463 1.118 0 2.17.671 2.17 2.39v.248h-3.639c.037 1.093.564 1.7 1.552 1.7.748 0 1.183-.276 1.284-.837h.767c-.166.965-.97 1.47-2.06 1.47-1.367 0-2.337-.955-2.337-2.434zM203.22 32.834h.747c.056.57.36.928 1.137.928.73 0 1.053-.249 1.053-.763 0-.505-.38-.67-1.127-.809-1.257-.23-1.682-.579-1.682-1.415 0-.891.878-1.35 1.636-1.35.868 0 1.616.349 1.746 1.387h-.74c-.11-.524-.406-.753-1.016-.753-.554 0-.914.275-.914.689 0 .431.24.606 1.127.762.998.184 1.7.405 1.7 1.425 0 .872-.601 1.46-1.774 1.46-1.155 0-1.848-.578-1.894-1.561M151.425 41.93c0 .518-.314.792-.908.792h-.816V41.11h.76c.657 0 .964.249.964.783v.037zM149.7 38.6h.751c.583 0 .843.21.843.682v.037c0 .498-.244.7-.843.7h-.75v-1.419zm3.53 3.485c0-.84-.449-1.361-1.297-1.505l-.137-.023.135-.036c.727-.19 1.095-.656 1.095-1.386V39.1c0-1.105-.76-1.689-2.196-1.689h-2.917v6.51h2.945c1.573 0 2.371-.605 2.371-1.798v-.037zM155.626 44.031c.71 0 1.217-.282 1.507-.838l.057-.11v.838h1.593v-4.745h-1.593v2.735c0 .597-.31.94-.852.94-.48 0-.714-.274-.714-.839v-2.836h-1.593v3.103c0 1.097.596 1.752 1.595 1.752M161.223 40.997c.085-.588.433-.926.954-.926.547 0 .85.321.88.93l.001.03h-1.84l.005-.034zm1.884 1.395c-.062.265-.263.57-.865.57-.612 0-.99-.376-1.037-1.03l-.003-.032h3.402v-.402c0-1.185-.638-2.451-2.427-2.451-1.522 0-2.584 1.023-2.584 2.488v.073c0 1.472 1.018 2.423 2.593 2.423 1.397 0 2.253-.582 2.414-1.64h-1.493zM167.85 40.32c.486 0 .723.274.723.838v2.763h1.593v-3.094c0-1.131-.565-1.78-1.55-1.78-.7 0-1.269.322-1.562.884l-.056.11v-.865h-1.594v4.745h1.594V41.26c0-.597.31-.94.852-.94M174.542 41.507v.074c0 .83-.349 1.288-.982 1.288-.648 0-.991-.452-.991-1.307v-.073c0-.82.352-1.27.99-1.27.634 0 .983.457.983 1.288m-3.603.028v.073c0 1.45 1.05 2.423 2.612 2.423s2.612-.992 2.612-2.469v-.073c0-1.438-1.07-2.442-2.603-2.442-1.543 0-2.621 1.023-2.621 2.488M178.882 44.031c1.784 0 2.16-.883 2.16-1.623 0-1.064-.72-1.361-1.96-1.514-.557-.07-.84-.154-.84-.425 0-.251.22-.407.575-.407.37 0 .57.148.644.478h1.438c-.11-1.005-.798-1.493-2.1-1.493-.941 0-2.04.406-2.04 1.55 0 .947.475 1.343 1.813 1.514.69.096.922.212.922.462 0 .159-.08.425-.622.425-.433 0-.64-.158-.709-.542h-1.467c.05 1.016.825 1.575 2.186 1.575M186.467 38.797l.76 2.667h-1.53l.77-2.667zm1.113 3.902l.351 1.222h1.94l-2.077-6.51h-2.404l-2.096 6.51h1.7l.351-1.222h2.235zM190.628 43.921h1.593v-4.745h-1.593zM190.628 38.656h1.593v-1.245h-1.593zM196.49 40.585V39.11h-.002c-.734 0-1.211.32-1.502 1.002l-.058.136v-1.073h-1.593v4.745h1.593v-2.249c0-.315.093-.564.276-.742.253-.245.672-.358 1.285-.345M198.643 40.997c.084-.588.432-.926.954-.926.546 0 .85.321.88.93l.001.03h-1.84l.005-.034zm1.883 1.395c-.06.265-.262.57-.865.57-.611 0-.989-.376-1.037-1.03l-.002-.032h3.402v-.402c0-1.185-.638-2.451-2.427-2.451-1.522 0-2.584 1.023-2.584 2.488v.073c0 1.472 1.018 2.423 2.593 2.423 1.397 0 2.253-.582 2.413-1.64h-1.493zM204.734 44.031c1.784 0 2.16-.883 2.16-1.623 0-1.064-.72-1.361-1.96-1.514-.557-.07-.84-.154-.84-.425 0-.251.22-.407.575-.407.37 0 .57.148.644.478h1.438c-.11-1.005-.798-1.493-2.1-1.493-.941 0-2.04.406-2.04 1.55 0 .947.475 1.343 1.813 1.514.69.096.922.212.922.462 0 .159-.08.425-.622.425-.433 0-.64-.158-.709-.542h-1.467c.05 1.016.825 1.575 2.186 1.575M185.433 28.742h.767v-.763h-.767z" mask="url(#d)"/>
    </g>
</svg>
