<?xml version="1.0" encoding="UTF-8"?>
<svg width="40px" height="51px" viewBox="0 0 40 51" version="1.1" xmlns="http://www.w3.org/2000/svg" xmlns:xlink="http://www.w3.org/1999/xlink">
    <!-- Generator: Sketch 49 (51002) - http://www.bohemiancoding.com/sketch -->
    <title>Group 4</title>
    <desc>Created with Sketch.</desc>
    <defs>
        <filter x="-13.0%" y="-1.6%" width="125.9%" height="104.6%" filterUnits="objectBoundingBox" id="filter-1">
            <feOffset dx="0" dy="2" in="SourceAlpha" result="shadowOffsetOuter1"></feOffset>
            <feGaussianBlur stdDeviation="2" in="shadowOffsetOuter1" result="shadowBlurOuter1"></feGaussianBlur>
            <feColorMatrix values="0 0 0 0 0   0 0 0 0 0   0 0 0 0 0  0 0 0 0.5 0" type="matrix" in="shadowBlurOuter1" result="shadowMatrixOuter1"></feColorMatrix>
            <feMerge>
                <feMergeNode in="shadowMatrixOuter1"></feMergeNode>
                <feMergeNode in="SourceGraphic"></feMergeNode>
            </feMerge>
        </filter>
        <polygon id="path-2" points="0 0 32.1217111 0 32.1217111 32.1269224 0 32.1269224"></polygon>
    </defs>
    <g id="Page-1" stroke="none" stroke-width="1" fill="none" fill-rule="evenodd" opacity="0.9">
        <g id="ESPACIOS_2" transform="translate(-934.000000, -352.000000)">
            <g id="menu" filter="url(#filter-1)" transform="translate(927.000000, 223.000000)">
                <g id="Group-4" transform="translate(10.000000, 129.000000)">
                    <g id="Page-1" transform="translate(16.500000, 29.500000) rotate(-270.000000) translate(-16.500000, -29.500000) translate(0.000000, 13.000000)">
                        <g id="plano">
                            <g id="Group-3">
                                <mask id="mask-3" fill="white">
                                    <use xlink:href="#path-2"></use>
                                </mask>
                                <g id="Clip-2"></g>
                                <path d="M6.30987515,21.6730457 C6.32058413,21.6507661 6.32852355,21.627871 6.3338165,21.6038066 C6.34834133,21.5605398 6.3592965,21.515919 6.36649737,21.470929 C6.37659089,21.4290162 6.38329939,21.3863034 6.38649978,21.3434675 C6.38748451,21.3302351 6.3876076,21.3169412 6.38680751,21.3037088 C6.38446876,21.2603805 6.37856036,21.2170522 6.36926693,21.1745855 C6.36360471,21.1337806 6.35486519,21.0934065 6.34317147,21.0539556 C6.33713998,21.0207208 6.32636945,20.9894555 6.31098298,20.9600981 L1.73941602,10.8022572 L5.58751107,1.66583176 L29.5144595,1.66583176 L25.7994266,10.4883731 C25.7902563,10.5102219 25.7836709,10.533117 25.7796704,10.5563813 C25.7667457,10.6018638 25.75776,10.6483924 25.7527748,10.695352 C25.746251,10.7260018 25.7414504,10.7572056 25.7384346,10.7884093 C25.7363421,10.8100119 25.7365883,10.8317376 25.7390501,10.8532787 C25.7429275,10.8866366 25.7488974,10.920056 25.7568369,10.9527984 C25.7627453,10.9968653 25.7721618,11.0403167 25.7852095,11.0826602 C25.7896408,11.1069093 25.7970263,11.1306045 25.8071814,11.1531918 L30.3773328,21.3068477 L26.0401326,30.4611214 L2.14894235,30.4611214 L6.30987515,21.6730457 Z M32.1062183,21.1780937 C32.1002484,21.1339653 32.0907703,21.0902061 32.0777226,21.0475548 C32.0718757,21.0172743 32.0619668,20.9886554 32.0482421,20.9618214 L27.4759366,10.8022572 L31.5363649,1.15777046 C31.6457935,0.899708552 31.6185287,0.60613467 31.4636177,0.372506482 C31.3087683,0.139186024 31.0494139,-3.07729436e-05 30.7698725,-3.07729436e-05 L30.7688877,-3.07729436e-05 L5.03452127,-3.07729436e-05 L5.03427509,-3.07729436e-05 C4.69829609,-3.07729436e-05 4.39696743,0.200054906 4.26661324,0.509692265 L0.0651217033,10.4883731 C0.0558898202,10.5102219 0.0492428644,10.533117 0.0453039276,10.5563813 C0.0328716584,10.6000789 0.0240705965,10.6448228 0.0189622879,10.6899359 C0.0118229649,10.7192318 0.00634538097,10.7489584 0.00252953596,10.7786235 C-0.000670850171,10.8033034 -0.000855487832,10.8282295 0.00203716887,10.852971 C0.00585301387,10.8863904 0.0118229649,10.9198714 0.0198239303,10.9527984 C0.0256707896,10.9967422 0.0351488562,11.0401936 0.0481350384,11.0825371 C0.0526278882,11.1068478 0.0600133946,11.130666 0.0702300119,11.1532534 L4.64302789,21.3069092 L0.082169914,30.9375481 C-0.0404910392,31.1964716 -0.0224580942,31.4957693 0.130237252,31.738137 C0.28305569,31.9805662 0.545302715,32.1258761 0.832906646,32.1269224 L26.5685656,32.1269224 C26.8874348,32.1256914 27.1816242,31.938715 27.3180714,31.6505572 L32.0439339,21.6736611 C32.0548275,21.6511969 32.06289,21.6280556 32.0682445,21.6038066 C32.0827693,21.5605398 32.0937245,21.5159806 32.1008638,21.4708674 C32.1108958,21.4291393 32.1176659,21.386488 32.1208662,21.3437136 C32.1216663,21.3326969 32.1219125,21.3216187 32.1215432,21.3104789 C32.1201277,21.2662274 32.1149578,21.2217297 32.1062183,21.1780937 Z" id="Fill-1" fill="#FFFFFF" mask="url(#mask-3)"></path>
                            </g>
                        </g>
                        <path d="M13.2284408,6.63386498 C13.2284408,6.1763628 12.8558934,5.80414413 12.3979872,5.80414413 L8.1175892,5.80414413 L9.06696827,3.8012999 L19.4645438,3.8012999 L18.4566838,5.93111907 C18.2612974,6.34435476 18.4385811,6.83974709 18.8480702,7.03355095 C18.959141,7.08805637 19.0832212,7.11699513 19.2086514,7.11724037 C19.5266452,7.11607546 19.8200316,6.92975154 19.9561394,6.64263244 L21.3019982,3.8012999 L23.9832838,3.8012999 L21.2980095,9.46643006 L6.37905527,9.46643006 L7.32849571,7.46364714 L12.3979872,7.46364714 C12.8558934,7.46364714 13.2284408,7.09136716 13.2284408,6.63386498 Z M12.3266197,12.0823836 L6.78388067,12.0823836 L6.35309785,11.1259331 L11.8738068,11.1259331 L12.3266197,12.0823836 Z M10.3170976,19.930183 L9.88729659,18.9737324 L15.3457813,18.9737324 L15.7995147,19.930183 L10.3170976,19.930183 Z M15.7986556,21.5896247 L13.1133813,27.2547548 L7.62010254,27.2547548 L10.3053768,21.5896247 L15.7986556,21.5896247 Z M21.5249989,25.1251809 C21.6199307,24.9248781 21.6310991,24.6996217 21.5564178,24.490858 C21.4817365,24.2820942 21.3301648,24.1149606 21.1297464,24.0201739 C20.9292054,23.9252646 20.7036887,23.914106 20.4947406,23.9887214 C20.2858539,24.0633368 20.11845,24.2147135 20.0234569,24.415139 L18.6796231,27.2547548 L14.9512039,27.2547548 L17.6364782,21.5896247 L25.2241469,21.5896247 L22.5370317,27.2547548 L20.5172003,27.2547548 L21.5249989,25.1251809 Z M29.1547027,21.5896247 C29.6126089,21.5896247 29.9851563,21.217406 29.9851563,20.7599038 C29.9851563,20.3024016 29.6126089,19.930183 29.1547027,19.930183 L27.0736903,19.930183 L23.1082792,11.1259331 L24.441865,11.1259331 C24.8997712,11.1259331 25.2723799,10.7537144 25.2723799,10.2961509 C25.2723799,9.83864873 24.8997712,9.46643006 24.441865,9.46643006 L23.1358321,9.46643006 L26.0461321,3.32669197 C26.1687395,3.06808246 26.1503914,2.76943691 25.9972241,2.52774921 C25.8441183,2.28606152 25.5817826,2.14173558 25.2954532,2.14179689 L8.53751041,2.14179689 C8.21951659,2.14302311 7.92619153,2.32934704 7.79020653,2.61622089 L6.04768387,6.28482184 L4.54117129,9.46643006 L2.97231179,9.46643006 C2.51434424,9.46643006 2.14179688,9.83864873 2.14179688,10.2961509 C2.14179688,10.7537144 2.51434424,11.1259331 2.97231179,11.1259331 L4.52969602,11.1259331 L6.19618735,14.8253734 C6.38672591,15.2351144 6.87740104,15.4176983 7.28989708,15.2325393 C7.70233174,15.0471964 7.89127481,14.5593453 7.70963418,14.1418791 L7.53032544,13.7418866 L13.6448028,13.7418866 C13.746362,13.7408443 13.8449757,13.7214701 13.9386188,13.6843156 C13.96924,13.6765292 13.9985725,13.664083 14.0255731,13.6472838 C14.0491987,13.6325079 14.0720878,13.6163831 14.0939338,13.5990321 C14.1953703,13.5406641 14.2793177,13.4545223 14.3348531,13.3514586 C14.3614855,13.3129553 14.3846815,13.2720609 14.4039502,13.2295112 C14.4086139,13.2192109 14.4127254,13.2086654 14.4161618,13.1979973 C14.4324236,13.1480902 14.4438375,13.0966504 14.4502194,13.0446587 C14.4578901,13.0127157 14.4636584,12.9800983 14.467463,12.9474809 C14.4688131,12.9357705 14.4694881,12.9239375 14.4694881,12.9121045 L14.4694881,12.9016203 C14.4694881,12.8919332 14.4690585,12.882246 14.468138,12.8725589 C14.4634743,12.823878 14.4544536,12.7754424 14.4413215,12.7283556 C14.43586,12.698068 14.4287417,12.667903 14.4200278,12.6383511 C14.4154254,12.6095963 14.4067116,12.5816385 14.3940704,12.5552135 L13.712059,11.1259331 L21.2864728,11.1259331 L24.0722018,17.3142907 L19.7290886,17.3142907 C19.2711824,17.3142907 18.8985737,17.6865094 18.8985737,18.1440116 C18.8985737,18.6015137 19.2711824,18.9737324 19.7290886,18.9737324 L24.819567,18.9737324 L25.2502885,19.930183 L17.6364168,19.930183 L16.619843,17.7881629 C16.6144429,17.7768817 16.6083677,17.7658457 16.6016789,17.7553003 C16.5845581,17.7283848 16.5655963,17.702205 16.5451617,17.6773127 C16.5176702,17.6341498 16.4861899,17.5935007 16.4513345,17.5561623 C16.4362387,17.5400376 16.4196088,17.5256295 16.4014447,17.5131221 C16.3379932,17.4692234 16.2716576,17.428329 16.2043401,17.3915425 C16.1860533,17.3815488 16.166846,17.3735171 16.1469024,17.367386 C16.1038241,17.3542654 16.0594572,17.344517 16.014722,17.3383246 C15.9809712,17.3290666 15.946484,17.3220159 15.9119355,17.3172336 C15.8979443,17.3152104 15.8838917,17.3142907 15.8697777,17.3142907 L9.14023817,17.3142907 L8.88765952,16.7539701 C8.6970596,16.3441678 8.20638446,16.1616452 7.79401116,16.3467429 C7.38145377,16.5320245 7.19257207,17.0198756 7.37439678,17.4377709 L8.49541396,19.930183 L7.68514952,19.930183 C7.22724333,19.930183 6.8546346,20.3024016 6.8546346,20.7599038 C6.8546346,21.217406 7.22724333,21.5896247 7.68514952,21.5896247 L8.46755422,21.5896247 L5.55725419,27.729424 C5.43470814,27.9879722 5.45299493,28.2866178 5.60616216,28.5283668 C5.75926802,28.7699932 6.02154235,28.9142578 6.30768769,28.9142578 L6.30793315,28.9142578 L23.0658145,28.9142578 C23.3838084,28.9130929 23.6771948,28.726769 23.8132411,28.4397725 L27.0621537,21.5896247 L29.1547027,21.5896247 Z" id="Fill-4" fill="#FFFFFF"></path>
                    </g>
                    <text id="E" font-family="Roboto-Bold, Roboto" font-size="12" font-weight="bold" letter-spacing="0.0378181748" fill="#FFFFFF">
                        <tspan x="8" y="11">E</tspan>
                    </text>
                </g>
            </g>
        </g>
    </g>
</svg>