<svg xmlns="http://www.w3.org/2000/svg" xmlns:xlink="http://www.w3.org/1999/xlink" width="11" height="16" viewBox="0 0 11 16">
    <defs>
        <path id="a" d="M0 0h11v16H0z"/>
    </defs>
    <g fill="none" fill-rule="evenodd">
        <mask id="b" fill="#fff">
            <use xlink:href="#a"/>
        </mask>
        <path fill="#000" d="M5.552 7.598c-1.108 0-2.009-.918-2.009-2.046 0-1.127.901-2.045 2.009-2.045 1.106 0 2.007.918 2.007 2.045 0 1.128-.901 2.046-2.007 2.046M9.39 1.64A5.419 5.419 0 0 0 5.5 0a5.42 5.42 0 0 0-3.89 1.641C-.312 3.6-.55 7.284 1.093 9.517L5.5 16l4.4-6.475c1.65-2.241 1.411-5.925-.51-7.884" mask="url(#b)"/>
    </g>
</svg>
