<?xml version="1.0" encoding="UTF-8"?>
<svg width="16px" height="20px" viewBox="0 0 16 20" version="1.1" xmlns="http://www.w3.org/2000/svg" xmlns:xlink="http://www.w3.org/1999/xlink">
    <!-- Generator: Sketch 49 (51002) - http://www.bohemiancoding.com/sketch -->
    <title>parking</title>
    <desc>Created with Sketch.</desc>
    <defs>
        <polygon id="path-1" points="0 0 15.9999795 0 15.9999795 19.9999805 0 19.9999805"></polygon>
    </defs>
    <g id="Page-1" stroke="none" stroke-width="1" fill="none" fill-rule="evenodd">
        <g id="LA-CIUDAD_2" transform="translate(-589.000000, -518.000000)">
            <g id="parking" transform="translate(589.000000, 518.000000)">
                <g>
                    <path d="M8.61538462,7.05882353 L7.38461538,7.05882353 L7.38461538,5.88235294 L8.61538462,5.88235294 C8.95470769,5.88235294 9.23076923,6.14623529 9.23076923,6.47058824 C9.23076923,6.79494118 8.95470769,7.05882353 8.61538462,7.05882353 M8.61538462,4.70588235 L6.76923077,4.70588235 C6.42937436,4.70588235 6.15384615,4.9692549 6.15384615,5.29411765 L6.15384615,10 C6.15384615,10.3248627 6.42937436,10.5882353 6.76923077,10.5882353 C7.10908718,10.5882353 7.38461538,10.3248627 7.38461538,10 L7.38461538,8.23529412 L8.61538462,8.23529412 C9.63331282,8.23529412 10.4615385,7.44364706 10.4615385,6.47058824 C10.4615385,5.49752941 9.63331282,4.70588235 8.61538462,4.70588235" id="Fill-1" fill="#FFFFFF"></path>
                    <path d="M8,11.7647059 C5.62473846,11.7647059 3.69230769,9.91752941 3.69230769,7.64705882 C3.69230769,5.37658824 5.62473846,3.52941176 8,3.52941176 C10.3752615,3.52941176 12.3076923,5.37658824 12.3076923,7.64705882 C12.3076923,9.91752941 10.3752615,11.7647059 8,11.7647059 M8,2.35294118 C4.94609231,2.35294118 2.46153846,4.72788235 2.46153846,7.64705882 C2.46153846,10.5662353 4.94609231,12.9411765 8,12.9411765 C11.0539077,12.9411765 13.5384615,10.5662353 13.5384615,7.64705882 C13.5384615,4.72788235 11.0539077,2.35294118 8,2.35294118" id="Fill-3" fill="#FFFFFF"></path>
                    <g id="Group-7">
                        <mask id="mask-2" fill="white">
                            <use xlink:href="#path-1"></use>
                        </mask>
                        <g id="Clip-6"></g>
                        <path d="M13.4178667,11.4769727 L7.99997949,18.4306445 L2.58028718,11.474668 C1.69741538,10.3531055 1.23074872,9.01927734 1.23074872,7.61716797 C1.23074872,4.06322266 4.26742564,1.17185547 7.99997949,1.17185547 C11.7325744,1.17185547 14.7692103,4.06322266 14.7692103,7.61716797 C14.7692103,9.01927734 14.3025436,10.3531445 13.4178667,11.4769727 M7.99997949,-1.953125e-05 C3.58882051,-1.953125e-05 -2.05128205e-05,3.41708984 -2.05128205e-05,7.61716797 C-2.05128205e-05,9.27466797 0.551733333,10.851582 1.59366154,12.1751758 L7.50578462,19.7631836 C7.62188718,19.9121289 7.80514872,19.9999805 7.99997949,19.9999805 C8.19481026,19.9999805 8.37811282,19.9121289 8.49421538,19.7631836 L14.4045333,12.1775586 C15.4482667,10.851582 15.9999795,9.27470703 15.9999795,7.61716797 C15.9999795,3.41708984 12.4112205,-1.953125e-05 7.99997949,-1.953125e-05" id="Fill-5" fill="#FFFFFF" mask="url(#mask-2)"></path>
                    </g>
                </g>
            </g>
        </g>
    </g>
</svg>