<?xml version="1.0" encoding="UTF-8"?>
<svg width="22px" height="22px" viewBox="0 0 22 22" version="1.1" xmlns="http://www.w3.org/2000/svg" xmlns:xlink="http://www.w3.org/1999/xlink">
    <!-- Generator: Sketch 49 (51002) - http://www.bohemiancoding.com/sketch -->
    <title>resto</title>
    <desc>Created with Sketch.</desc>
    <defs>
        <polygon id="path-1" points="0 0.0372109375 4.38899141 0.0372109375 4.38899141 7.00390625 0 7.00390625"></polygon>
        <polygon id="path-3" points="0 0.022928125 21.9999871 0.022928125 21.9999871 2.95623281 0 2.95623281"></polygon>
        <polygon id="path-5" points="0 22 22 22 22 0 0 0"></polygon>
    </defs>
    <g id="Page-1" stroke="none" stroke-width="1" fill="none" fill-rule="evenodd">
        <g id="LA-CIUDAD_2" transform="translate(-251.000000, -517.000000)">
            <g id="resto" transform="translate(251.000000, 517.000000)">
                <g id="Page-1">
                    <path d="M4.3999957,19.7999914 L13.1303434,19.7999914 C13.5549176,19.7992609 13.969609,19.6496867 14.2974176,19.3783391 L18.7638043,15.6893 C19.079152,15.4634133 19.1652613,15.0553391 18.9797652,14.7448039 C18.9702262,14.7289914 18.9603434,14.7136086 18.9493434,14.6985695 C18.8389996,14.5445695 18.6783395,14.4448391 18.494648,14.4143742 C18.3106129,14.3850266 18.1268785,14.4272219 17.9758434,14.5357609 L13.7804176,17.5318 C13.7173395,17.5761437 13.6429176,17.5999914 13.566648,17.5999914 L9.16669102,17.5999914 C8.56018711,17.5999914 8.06664805,17.1064523 8.06664805,16.4999914 C8.06664805,15.8935305 8.56018711,15.4000344 9.16669102,15.4000344 L11.5499957,15.4000344 C11.8532691,15.4000344 12.0999957,15.1532219 12.0999957,14.8499914 C12.0900699,14.5291867 11.8363824,14.2992609 11.5324215,14.2996047 L6.7539957,14.2999914 C6.50318711,14.3022258 6.25646055,14.3931477 6.06138242,14.5555695 L4.3999957,15.9386477 L4.3999957,19.7999914 Z M13.1306871,20.5332961 L4.03334336,20.5332961 C3.83091758,20.5332961 3.66669102,20.3694562 3.66669102,20.1666437 L3.66669102,15.7666867 C3.66669102,15.6578039 3.71507383,15.5547219 3.79864805,15.4846828 L5.59164805,13.9923781 C5.91619102,13.7217609 6.32791758,13.5703391 6.75073008,13.5666867 L11.520648,13.5666867 C12.2133043,13.5498 12.8098395,14.1012609 12.8326129,14.8085695 C12.8329566,14.8122219 12.8333434,14.8459523 12.8333434,14.8499914 C12.8333434,15.5576867 12.257691,16.1333391 11.5499957,16.1333391 L9.16669102,16.1333391 C8.96460898,16.1333391 8.7999957,16.2976086 8.7999957,16.4999914 C8.7999957,16.7023742 8.96460898,16.8666437 9.16669102,16.8666437 L13.4493434,16.8666437 L17.548648,13.9395695 C17.858152,13.7173352 18.2383824,13.6289914 18.6134996,13.6909523 C18.9903785,13.7529562 19.3207652,13.9582609 19.5429566,14.2687961 C19.5653434,14.2989172 19.5876871,14.3330344 19.6089996,14.3685695 C19.9888004,15.0051086 19.8135738,15.8403781 19.209691,16.2704523 L14.7645309,19.9433781 C14.3062262,20.3228781 13.726148,20.5326086 13.1306871,20.5332961 Z" id="Fill-1" fill="#FFFFFF"></path>
                    <g id="Group-5" transform="translate(0.000000, 14.996094)">
                        <mask id="mask-2" fill="white">
                            <use xlink:href="#path-1"></use>
                        </mask>
                        <g id="Clip-4"></g>
                        <path d="M4.02233906,7.00390625 L-8.59375e-06,7.00390625 L-8.59375e-06,6.27060156 L3.65564375,6.27060156 L3.65564375,0.770601562 L-8.59375e-06,0.770601562 L-8.59375e-06,0.0372109375 L4.02233906,0.0372109375 C4.22472187,0.0372109375 4.38899141,0.201136719 4.38899141,0.40390625 L4.38899141,6.63725391 C4.38899141,6.84002344 4.22472187,7.00390625 4.02233906,7.00390625" id="Fill-3" fill="#FFFFFF" mask="url(#mask-2)"></path>
                    </g>
                    <path d="M1.83332617,19.0666695 C1.63128711,19.0666695 1.46667383,19.2309391 1.46667383,19.4333219 C1.46667383,19.6357477 1.63128711,19.7999742 1.83332617,19.7999742 C2.03536523,19.7999742 2.20002148,19.6357477 2.20002148,19.4333219 C2.20002148,19.2309391 2.03536523,19.0666695 1.83332617,19.0666695 M1.83332617,20.5333219 C1.22686523,20.5333219 0.733326172,20.0397828 0.733326172,19.4333219 C0.733326172,18.8268609 1.22686523,18.3333648 1.83332617,18.3333648 C2.43978711,18.3333648 2.93332617,18.8268609 2.93332617,19.4333219 C2.93332617,20.0397828 2.43978711,20.5333219 1.83332617,20.5333219" id="Fill-6" fill="#FFFFFF"></path>
                    <g id="Group-10" transform="translate(0.000000, 11.343750)">
                        <mask id="mask-4" fill="white">
                            <use xlink:href="#path-3"></use>
                        </mask>
                        <g id="Clip-9"></g>
                        <path d="M0.770373828,0.756232812 C0.940487109,1.59188906 1.68118242,2.22292812 2.56668242,2.22292812 L19.4333348,2.22292812 C20.3188348,2.22292812 21.0595301,1.59188906 21.2296434,0.756232812 L0.770373828,0.756232812 Z M19.4333348,2.95623281 L2.56668242,2.95623281 C1.15133477,2.95623281 -1.2890625e-05,1.80454141 -1.2890625e-05,0.389580469 C-1.2890625e-05,0.186810937 0.164256641,0.022928125 0.366639453,0.022928125 L21.6333348,0.022928125 C21.8361043,0.022928125 21.9999871,0.186810937 21.9999871,0.389580469 C21.9999871,1.80454141 20.8483387,2.95623281 19.4333348,2.95623281 Z" id="Fill-8" fill="#FFFFFF" mask="url(#mask-4)"></path>
                    </g>
                    <path d="M2.20000859,11.3666609 L19.8000086,11.3666609 C19.8000086,6.51458672 15.8521258,2.56666094 11.0000086,2.56666094 C6.14789141,2.56666094 2.20000859,6.51458672 2.20000859,11.3666609 M20.1666609,12.0999656 L1.83331328,12.0999656 C1.63093047,12.0999656 1.46666094,11.9360828 1.46666094,11.7333133 L1.46666094,11.3666609 C1.46666094,6.11016484 5.74346953,1.83331328 11.0000086,1.83331328 C16.2569344,1.83331328 20.5333133,6.11016484 20.5333133,11.3666609 L20.5333133,11.7333133 C20.5333133,11.9360828 20.3694734,12.0999656 20.1666609,12.0999656" id="Fill-11" fill="#FFFFFF"></path>
                    <path d="M4.8741,7.33810859 L4.26286953,6.93291328 C4.47517812,6.61245234 4.71275234,6.30410859 4.96906094,6.01591719 L5.51721328,6.50283906 C5.28402188,6.76499141 5.06767422,7.04622187 4.8741,7.33810859" id="Fill-13" fill="#FFFFFF"></path>
                    <path d="M5.98216094,6.02397383 L5.47985625,5.48974336 C6.98023906,4.07916523 8.94077422,3.30108711 11.0000086,3.29996992 L11.0003523,4.03331758 C9.12854766,4.03443477 7.34616094,4.74135664 5.98216094,6.02397383" id="Fill-15" fill="#FFFFFF"></path>
                    <mask id="mask-6" fill="white">
                        <use xlink:href="#path-5"></use>
                    </mask>
                    <g id="Clip-18"></g>
                    <polygon id="Fill-17" fill="#FFFFFF" mask="url(#mask-6)" points="9.9 0.733347656 12.1 0.733347656 12.1 0 9.9 0"></polygon>
                    <polygon id="Fill-19" fill="#FFFFFF" mask="url(#mask-6)" points="10.6333477 2.2 11.3666523 2.2 11.3666523 0.366652344 10.6333477 0.366652344"></polygon>
                </g>
            </g>
        </g>
    </g>
</svg>