<svg xmlns="http://www.w3.org/2000/svg" xmlns:xlink="http://www.w3.org/1999/xlink" width="23" height="19" viewBox="0 0 23 19">
    <defs>
        <path id="a" d="M0 0h23v19H0z"/>
    </defs>
    <g fill="none" fill-rule="evenodd">
        <mask id="b" fill="#fff">
            <use xlink:href="#a"/>
        </mask>
        <path fill="#231F20" d="M6.83 6.02h3.734v.732c0 1.992-1.675 3.612-3.733 3.612-2.06 0-3.734-1.62-3.734-3.612S4.772 3.14 6.831 3.14c.832 0 1.618.258 2.276.748l-.922 1.158a2.247 2.247 0 0 0-1.354-.445c-1.226 0-2.223.965-2.223 2.15 0 1.187.997 2.151 2.223 2.151.96 0 1.78-.592 2.09-1.42h-2.09V6.021zm8.722 4.741l-.522.496-.335-1.406h3.195c-.17.523-.49 1.319-1.059 2.173l-1.28-1.263zm.013 2.743l-.373-1.567.975.963c-.2.233-.42.464-.663.69l.062-.086h-.001zm5.925 4.034h-8.8l1.631-2.287.247.39a9.91 9.91 0 0 0 2.382-1.969l1.911 1.887.792-.75-2.025-1.998a9.828 9.828 0 0 0 1.418-2.96h1.298V8.779h-2.75v-.64h-1.108v.64H14.44l-.434-1.821h7.484v10.58zm-10.598-4.034h2.839l-2.128 2.985-.711-2.985zM1.51 12.042V1.462h9.637l2.52 10.58H1.51zm20.184-6.546h-8.036L12.348 0H1.308C.587 0 0 .567 0 1.264V12.24c0 .697.586 1.265 1.307 1.265h8.035L10.651 19h11.043c.72 0 1.306-.567 1.306-1.265V6.761c0-.697-.586-1.265-1.306-1.265z" mask="url(#b)"/>
    </g>
</svg>
