<?xml version="1.0" encoding="UTF-8"?>
<svg width="45px" height="47px" viewBox="0 0 45 47" version="1.1" xmlns="http://www.w3.org/2000/svg" xmlns:xlink="http://www.w3.org/1999/xlink">
    <!-- Generator: Sketch 49 (51002) - http://www.bohemiancoding.com/sketch -->
    <title>Group</title>
    <desc>Created with Sketch.</desc>
    <defs>
        <filter x="-13.0%" y="-1.6%" width="125.9%" height="104.6%" filterUnits="objectBoundingBox" id="filter-1">
            <feOffset dx="0" dy="2" in="SourceAlpha" result="shadowOffsetOuter1"></feOffset>
            <feGaussianBlur stdDeviation="2" in="shadowOffsetOuter1" result="shadowBlurOuter1"></feGaussianBlur>
            <feColorMatrix values="0 0 0 0 0   0 0 0 0 0   0 0 0 0 0  0 0 0 0.5 0" type="matrix" in="shadowBlurOuter1" result="shadowMatrixOuter1"></feColorMatrix>
            <feMerge>
                <feMergeNode in="shadowMatrixOuter1"></feMergeNode>
                <feMergeNode in="SourceGraphic"></feMergeNode>
            </feMerge>
        </filter>
        <polygon id="path-2" points="0 0.0126958525 33.9999734 0.0126958525 33.9999734 28.9999532 0 28.9999532"></polygon>
        <polygon id="path-4" points="0.0279935484 0.0113225806 6.98845161 0.0113225806 6.98845161 6.97177419 0.0279935484 6.97177419"></polygon>
    </defs>
    <g id="Page-1" stroke="none" stroke-width="1" fill="none" fill-rule="evenodd" opacity="0.9">
        <g id="ESPACIOS_2" transform="translate(-933.000000, -476.000000)">
            <g id="menu" filter="url(#filter-1)" transform="translate(927.000000, 223.000000)">
                <g id="Group" transform="translate(10.000000, 255.000000)">
                    <g id="imagenes" transform="translate(0.000000, 10.000000)">
                        <g id="Page-1">
                            <g id="Group-3">
                                <mask id="mask-3" fill="white">
                                    <use xlink:href="#path-2"></use>
                                </mask>
                                <g id="Clip-2"></g>
                                <path d="M32.4074852,27.3976698 L1.59252813,27.3987389 C1.59252813,27.3987389 1.59252813,27.3984048 1.59252813,27.3976698 L1.59252813,1.61513295 L32.4074852,1.61513295 L32.4074852,27.3976698 Z M32.4074852,0.0126490783 L1.59252813,0.0126490783 C0.714371875,0.0126490783 -2.65625e-05,0.731501613 -2.65625e-05,1.61513295 L-2.65625e-05,27.3975362 C-2.65625e-05,28.2811675 0.714371875,28.9999532 1.59252813,28.9999532 L32.4074852,28.9999532 C33.2856414,28.9999532 33.9999734,28.2811675 33.9999734,27.3975362 L33.9999734,1.61513295 C33.9999734,0.731635253 33.2856414,0.0126490783 32.4074852,0.0126490783 Z" id="Fill-1" fill="#FFFFFF" mask="url(#mask-3)"></path>
                            </g>
                            <path d="M28.7747026,5.25551717 L28.7747026,18.8270688 L24.1690507,14.0819722 C23.8601773,13.7637014 23.3592889,13.7637014 23.0501516,14.0819722 L20.2267409,16.9912837 L13.7093861,10.2755737 C13.4003807,9.9573029 12.8994924,9.95723491 12.590487,10.2755737 L5.22509941,17.8644375 L5.22509941,5.25551717 L28.7747026,5.25551717 Z M28.7747026,21.3278162 L24.4351662,21.3278162 L21.345772,18.1442927 L23.6097001,15.8114178 L28.6177915,20.9711979 C28.6658282,21.0206281 28.7188138,21.0615593 28.7747026,21.0956913 L28.7747026,21.3278162 Z M5.22523138,20.1701836 L13.1500355,12.0050872 L22.1973019,21.3278162 L5.22523138,21.3278162 L5.22523138,20.1701836 Z M4.43401127,22.9583333 L29.5659227,22.9583333 C29.5859161,22.9583333 29.6035999,22.9571775 29.62003,22.9555457 C30.0316413,22.926853 30.3571429,22.5745862 30.3571429,22.1430408 L30.3571429,4.44022459 C30.3571429,4.4247904 30.356351,4.41051207 30.3550314,4.39698165 C30.3330585,3.96693198 29.9886854,3.625 29.5659227,3.625 L4.43401127,3.625 C3.99712791,3.625 3.64285714,3.98998128 3.64285714,4.44022459 L3.64285714,22.1430408 C3.64285714,22.593352 3.99706193,22.9583333 4.43401127,22.9583333 Z" id="Fill-4" fill="#FFFFFF"></path>
                            <path d="M20.0357843,7.71362485 C20.7830651,7.71362485 21.3912729,8.31872577 21.3912729,9.0625 C21.3912729,9.80627423 20.7832052,10.4113752 20.0357843,10.4113752 C19.2882934,10.4113752 18.6801557,9.80627423 18.6801557,9.0625 C18.6801557,8.31872577 19.2882934,7.71362485 20.0357843,7.71362485 M20.0357843,12.0833333 C21.7096344,12.0833333 23.0714286,10.7281834 23.0714286,9.0625 C23.0714286,7.39681663 21.7096344,6.04166667 20.0357843,6.04166667 C18.3617941,6.04166667 17,7.39681663 17,9.0625 C17,10.7281834 18.3617941,12.0833333 20.0357843,12.0833333" id="Fill-6" fill="#FFFFFF"></path>
                            <path d="M4.47820665,25.375 L11.3075773,25.375 C11.7688273,25.375 12.1428571,25.104522 12.1428571,24.7708585 C12.1428571,24.4371447 11.7688273,24.1666667 11.3075773,24.1666667 L4.47820665,24.1666667 C4.01695662,24.1666667 3.64285714,24.4371447 3.64285714,24.7708585 C3.64285714,25.104522 4.01681729,25.375 4.47820665,25.375" id="Fill-8" fill="#FFFFFF"></path>
                            <path d="M16.1209905,24.1666667 L14.2361524,24.1666667 C13.7507216,24.1666667 13.3571429,24.4371447 13.3571429,24.7708585 C13.3571429,25.104522 13.7507216,25.375 14.2361524,25.375 L16.1209905,25.375 C16.6064213,25.375 17,25.104522 17,24.7708585 C17,24.4371447 16.6064213,24.1666667 16.1209905,24.1666667" id="Fill-10" fill="#FFFFFF"></path>
                        </g>
                    </g>
                    <g id="Page-1" transform="translate(21.000000, 0.000000)">
                        <path d="M4.99991818,10 C4.74505543,10 4.5251148,9.82136253 4.47284617,9.57196393 C4.04703849,7.54057637 2.45934208,5.95286956 0.428065995,5.52702636 C0.178636303,5.47475739 0,5.25478259 0,4.99995091 C0,4.74511922 0.178636303,4.52514442 0.428065995,4.47287545 C2.45940753,4.04706498 4.04716941,2.45935818 4.47294436,0.428003338 C4.52524571,0.178637472 4.74515361,0 5.00001636,0 C5.25491184,0 5.47481974,0.178637472 5.52708837,0.428003338 C5.95289605,2.4593909 7.54062519,4.04713044 9.57196673,4.47297364 C9.82133097,4.52524261 10,4.74521741 10,5.00004909 C10,5.25491351 9.82133097,5.47485558 9.571934,5.52712455 C7.54059247,5.95290229 5.95283059,7.5406091 5.52699018,9.57196393 C5.47472156,9.82136253 5.2547482,10 4.99991818,10" id="Fill-1" fill="#FFFFFF"></path>
                        <path d="M5.99994852,17 C5.73269841,17 5.50206778,16.8126791 5.44725869,16.5511231 C5.23687688,15.5474909 4.45242385,14.7630289 3.44887173,14.5526447 C3.18735307,14.4978693 3,14.2671674 3,13.9999485 C3,13.7327297 3.18735307,13.5020621 3.44887173,13.4472524 C4.45245817,13.2369025 5.2369112,12.4524748 5.44732733,11.4488082 C5.50213642,11.1872866 5.73280137,11 6.00001716,11 C6.26730159,11 6.4978979,11.1873209 6.55270699,11.4488769 C6.76312312,12.4525091 7.54754183,13.2369368 8.55112827,13.4472867 C8.81268125,13.5021307 9,13.7327983 9,13.9999828 C9,14.2672017 8.81268125,14.4979036 8.55112827,14.552679 C7.54750751,14.7630632 6.76305448,15.5474909 6.55263835,16.5511231 C6.49782926,16.8127134 6.26716431,17 5.99994852,17" id="Fill-3" fill="#FFFFFF"></path>
                        <g id="Group-7" transform="translate(9.000000, 6.000000)">
                            <mask id="mask-5" fill="white">
                                <use xlink:href="#path-4"></use>
                            </mask>
                            <g id="Clip-6"></g>
                            <path d="M3.5081871,6.97177419 C3.25699355,6.97177419 3.04021935,6.79570968 2.98870323,6.54987097 C2.72144516,5.27487097 1.72489677,4.27829032 0.449896774,4.011 C0.204058065,3.95945161 0.0279935484,3.74264516 0.0279935484,3.49151613 C0.0279935484,3.24035484 0.204058065,3.02351613 0.449896774,2.97203226 C1.72492903,2.70477419 2.72147742,1.70822581 2.98876774,0.433193548 C3.04028387,0.187354839 3.25712258,0.0113225806 3.50828387,0.0113225806 C3.75947742,0.0113225806 3.97625161,0.187387097 4.02773548,0.433225806 C4.29502581,1.70822581 5.29157419,2.70480645 6.56660645,2.97209677 C6.8124129,3.0236129 6.98847742,3.24041935 6.98847742,3.49158065 C6.98847742,3.74274194 6.81238065,3.95951613 6.56657419,4.01106452 C5.29157419,4.27829032 4.29502581,5.27487097 4.02767097,6.54987097 C3.9761871,6.79574194 3.75934839,6.97177419 3.5081871,6.97177419" id="Fill-5" fill="#FFFFFF" mask="url(#mask-5)"></path>
                        </g>
                    </g>
                </g>
            </g>
        </g>
    </g>
</svg>