<svg xmlns="http://www.w3.org/2000/svg" viewBox="-49 141 512 512"><path d="M374.73 333.7c36.7 7.39 64.27 40.07 64.27 78.3 0 44.11-35.89 80-80 80H47c-39.7 0-72-32.3-72-72s32.3-72 71.69-72.01l5.53.04 2.31-3.99C64.54 326.74 83.12 316 103 316c3.35 0 6.86.34 10.42 1.01l7.43 1.4 1.82-7.34C135.96 257.45 183.8 220 239 220c60.51 0 111.67 45.28 119.01 105.32l.56 4.59c.27 3.33.43 6.69.43 10.09 0 66.17-53.83 120-120 120v16c74.99 0 136-61.01 136-136 0-2.12-.18-4.2-.27-6.3z" fill="#0bbbef"/><path d="M159 173c25.88 0 49.58 12.42 64.49 32.98-53.49 6.1-98.6 43.23-114.44 95.29-26.72-2.33-51.51 10.27-65.91 31.82-17.27.74-33.24 6.52-46.56 15.85C-16.81 340.1-25 325.24-25 309c0-26.14 20.5-47.19 46.65-47.92l4.47-.13 2.23-3.87C35.5 244.7 48.78 237 63 237c3.02 0 6.03.37 9.22 1.12l7.56 1.78 2-7.51C91.1 197.42 122.85 173 159 173z" fill="#0bbbef"/><path d="M372.98 318.1C419.46 324.93 455 365.43 455 413c0 52.94-43.06 96-96 96v-16c44.11 0 80-35.89 80-80 0-38.23-27.57-70.91-64.27-78.3.09 2.1.27 4.17.27 6.3 0 74.99-61.01 136-136 136v-16c66.17 0 120-53.83 120-120 0-3.42-.16-6.78-.43-10.13l-.56-4.55C350.67 266.28 299.5 221 239 221c-55.2 0-103.04 37.46-116.34 91.07l-1.82 7.34-7.42-1.4c-3.56-.67-7.07-1.01-10.42-1.01-19.89 0-38.46 10.74-48.46 28.04l-2.32 3.99-5.53-.04C7.3 349-25 381.3-25 421s32.3 72 72 72v16c-48.52 0-88-39.48-88-88 0-23.86 9.57-45.52 25.04-61.38C-31.58 347.62-41 329.1-41 309c0-33.41 25.08-60.58 57.85-63.66 11.41-16.59 30.89-26.17 51.62-24.06C81.82 183.1 118.06 157 159 157c34.53 0 65.89 18.34 83.03 48.14 65.13 1.44 120.11 49.04 130.95 112.96zM223.49 205.98C208.58 185.42 184.88 173 159 173c-36.15 0-67.9 24.42-77.22 59.39l-2 7.51-7.56-1.78c-3.19-.75-6.2-1.12-9.22-1.12-14.22 0-27.5 7.7-34.65 20.08l-2.23 3.87-4.47.13C-4.5 261.81-25 282.86-25 309c0 16.24 8.19 31.1 21.58 39.94 13.32-9.33 29.29-15.11 46.56-15.85 14.4-21.55 39.19-34.15 65.91-31.82 15.84-52.06 60.95-89.19 114.44-95.29z"/><path d="M334.14 504.55l-16 31.99-14.31-7.15 16-32zm-24 48.03l-16 32-14.31-7.16 16-31.99zm-54.331 72.83l16-31.998 14.31 7.156-16 31.999zm-7.995-95.982l16-31.999 14.307 7.154-16 32zm-24.001 48.019l16-31.999 14.307 7.154-16 31.999zm6.327 23.133l-16 31.99-14.31-7.15 16-32zm-38.325-71.153l16-32 14.307 7.155-16 31.999zm6.325 23.183l-16 32-14.31-7.16 16-31.99zm-24.01 47.97l-16 32-14.31-7.16 16-31.99zm-8-96.01l-16 31.99-14.31-7.15 16-32zm-54.288 72.848l16-32 14.31 7.156-15.999 32zm-24.038 47.995l16-32 14.307 7.155-16 31.999zm-7.998-95.999l16-32 14.307 7.155-15.999 31.999zm6.354 23.166l-15.99 31.99-14.32-7.15 16-32zm-54.366 72.851l16-31.999 14.307 7.154-15.999 31.999z"/></svg>