<svg xmlns="http://www.w3.org/2000/svg" viewBox="-49 141 512 512"><path d="M375.73 373.7c36.7 7.39 64.27 40.07 64.27 78.3 0 44.11-35.89 80-80 80H48c-39.7 0-72-32.3-72-72s32.3-72 71.69-72.01l5.53.04 2.31-3.99C65.54 366.74 84.12 356 104 356c3.35 0 6.86.34 10.42 1.01l7.43 1.4 1.82-7.34C136.96 297.45 184.8 260 240 260c60.51 0 111.67 45.28 119.01 105.32l.56 4.59c.27 3.33.43 6.69.43 10.09 0 66.17-53.83 120-120 120v16c74.99 0 136-61.01 136-136 0-2.12-.18-4.2-.27-6.3z" fill="#0bbbef"/><path d="M119 221c27.4 0 52.57 12.54 69.19 33.9-37.37 15.05-66.94 46.28-79.13 86.37-2.05-.18-4.08-.27-6.06-.27-20.12 0-39.1 8.62-52.58 23.08C37.85 348.5 31 329.25 31 309c0-48.52 39.48-88 88-88z" fill="#fdc300"/><path d="M372.97 358.1C419.46 364.93 455 405.42 455 453c0 52.94-43.06 96-96 96v-16c44.11 0 80-35.89 80-80 0-38.23-27.57-70.91-64.27-78.3.09 2.1.27 4.18.27 6.3 0 74.99-61.01 136-136 136v-16c66.17 0 120-53.83 120-120 0-3.4-.16-6.76-.43-10.09l-.56-4.59C350.67 306.28 299.51 261 239 261c-55.2 0-103.04 37.45-116.33 91.07l-1.82 7.34-7.43-1.4c-3.56-.67-7.07-1.01-10.42-1.01-19.88 0-38.46 10.74-48.47 28.04l-2.31 3.99-5.53-.04C7.3 389-25 421.3-25 461s32.3 72 72 72v16c-48.52 0-88-39.48-88-88 0-45.33 34.48-82.66 78.58-87.4C22.97 355.26 15 332.72 15 309c0-57.34 46.66-104 104-104 34.27 0 65.5 16.66 85.01 44.62 11.21-2.98 22.93-4.62 34.99-4.62 66.46 0 122.97 48.18 133.97 113.1zM188.19 254.9C171.57 233.54 146.4 221 119 221c-48.52 0-88 39.48-88 88 0 20.25 6.85 39.5 19.42 55.08C63.9 349.62 82.88 341 103 341c1.98 0 4.01.09 6.06.27 12.19-40.09 41.76-71.32 79.13-86.37zM311 613h16v32h-16zm0-48h16v32h-16z"/><path d="M311 517h16v32h-16zm-48 72h16v32h-16zm0-48h16v32h-16zm-64.807-322.47l28.281-28.282 11.313 11.312-28.282 28.282zM215 613h16v32h-16zm0-48h16v32h-16zm0-48h16v32h-16zm-48 72h16v32h-16zm0-48h16v32h-16zm-9.469-345.93l9.19-22.171 14.777 6.125-9.189 22.17zM119 613h16v32h-16zm0-48h16v32h-16zm0-48h16v32h-16zm-8-368h16v40h-16zM71 589h16v32H71zm0-48h16v32H71zM56.498 179.028l14.778-6.125 9.19 22.17-14.779 6.125zM.203 201.52l11.307-11.317 28.3 28.275-11.308 11.317zm11.037 54.17l-6.13 14.78-22.17-9.18 6.12-14.78zm-28.352 101.008l22.173-9.182 6.12 14.78-22.172 9.181zM-41 301h40v16h-40z"/></svg>