<svg xmlns="http://www.w3.org/2000/svg" viewBox="-49 141 512 512"><path d="M159 173c25.88 0 49.58 12.42 64.5 32.98-53.5 6.1-98.61 43.23-114.44 95.29-2.05-.18-4.08-.27-6.06-.27-24.03 0-46.56 12.18-59.86 32.08-17.27.75-33.24 6.53-46.55 15.86C-16.8 340.1-25 325.24-25 309c0-26.14 20.5-47.19 46.65-47.93l4.47-.13 2.23-3.87c8.65-14.98 25.73-23.25 43.87-18.96l7.56 1.79 2-7.51C91.1 197.42 122.85 173 159 173z" fill="#22bbef"/><path d="M374.73 334.7c36.7 7.39 64.27 40.07 64.27 78.3 0 44.11-35.89 80-80 80H47c-39.7 0-72-32.3-72-72s32.3-72 71.69-72.01l5.53.04 2.31-3.99C64.54 327.74 83.12 317 103 317c3.35 0 6.86.34 10.42 1.01l7.43 1.4 1.82-7.34C135.96 258.45 183.8 221 239 221c60.51 0 111.67 45.28 119.01 105.32l.56 4.59c.27 3.33.43 6.69.43 10.09 0 66.17-53.83 120-120 120v16c74.99 0 136-61.01 136-136 0-2.12-.18-4.2-.27-6.3z" fill="#22bbef"/><path d="M372.97 318.1C419.46 324.93 455 365.42 455 413c0 52.94-43.06 96-96 96H47c-48.52 0-88-39.48-88-88 0-23.86 9.57-45.52 25.05-61.38C-31.57 347.62-41 329.11-41 309c0-33.4 25.08-60.58 57.86-63.66 11.41-16.59 30.92-26.22 51.62-24.05C81.83 183.1 118.06 157 159 157c34.54 0 65.88 18.34 83.02 48.14 65.13 1.44 120.12 49.04 130.95 112.96zM439 413c0-38.23-27.57-70.91-64.27-78.3.09 2.1.27 4.18.27 6.3 0 74.99-61.01 136-136 136v-16c66.17 0 120-53.83 120-120 0-3.4-.16-6.76-.43-10.09l-.56-4.59C350.67 266.28 299.51 221 239 221c-55.2 0-103.04 37.45-116.33 91.07l-1.82 7.34-7.43-1.4c-3.56-.67-7.07-1.01-10.42-1.01-19.88 0-38.46 10.74-48.47 28.04l-2.31 3.99-5.53-.04C7.3 349-25 381.3-25 421s32.3 72 72 72h312c44.11 0 80-35.89 80-80zM223.5 205.98C208.58 185.42 184.88 173 159 173c-36.15 0-67.9 24.42-77.22 59.39l-2 7.51-7.56-1.79c-18.14-4.29-35.22 3.98-43.87 18.96l-2.23 3.87-4.47.13C-4.5 261.81-25 282.86-25 309c0 16.24 8.2 31.1 21.59 39.94 13.31-9.33 29.28-15.11 46.55-15.86C56.44 313.18 78.97 301 103 301c1.98 0 4.01.09 6.06.27 15.83-52.06 60.94-89.19 114.44-95.29zm107.92 343.86l7.16 14.32-17.69 8.84 17.69 8.84-7.16 14.32L311 585.94V605h-16v-19.06l-20.42 10.22-7.16-14.32 17.69-8.84-17.69-8.84 7.16-14.32L295 560.06V541h16v19.06zm-96 32l7.16 14.32-17.69 8.84 17.69 8.84-7.16 14.32L215 617.94V637h-16v-19.06l-20.42 10.22-7.16-14.32 17.69-8.84-17.69-8.84 7.16-14.32L199 592.06V573h16v19.06zm-96-32l7.16 14.32-17.69 8.84 17.69 8.84-7.16 14.32L119 585.94V605h-16v-19.06l-20.42 10.22-7.16-14.32L93.11 573l-17.69-8.84 7.16-14.32L103 560.06V541h16v19.06z"/></svg>