<svg xmlns="http://www.w3.org/2000/svg" viewBox="-49 141 512 512"><path d="M119 269c27.4 0 52.57 12.54 69.19 33.9-37.37 15.05-66.94 46.28-79.13 86.37-2.05-.18-4.08-.27-6.06-.27-20.12 0-39.1 8.62-52.58 23.08C37.85 396.5 31 377.25 31 357c0-48.52 39.48-88 88-88z" fill="#fdc300"/><path d="M374.73 422.7c36.7 7.39 64.27 40.07 64.27 78.3 0 44.11-35.89 80-80 80H47c-39.7 0-72-32.3-72-72s32.3-72 71.69-72.01l5.53.04 2.31-3.99C64.54 415.74 83.12 405 103 405c3.35 0 6.86.34 10.42 1.01l7.43 1.4 1.82-7.34C135.96 346.45 183.8 309 239 309c60.51 0 111.67 45.28 119.01 105.32l.56 4.59c.27 3.33.43 6.69.43 10.09 0 66.17-53.83 120-120 120v16c74.99 0 136-61.01 136-136 0-2.12-.18-4.2-.27-6.3z" fill="#0bbbef"/><path d="M372.97 406.1C419.46 412.93 455 453.42 455 501c0 52.94-43.06 96-96 96H47c-48.52 0-88-39.48-88-88 0-45.33 34.48-82.66 78.58-87.4C22.97 403.26 15 380.72 15 357c0-57.34 46.66-104 104-104 34.27 0 65.5 16.66 85.01 44.62 11.21-2.98 22.93-4.62 34.99-4.62 66.46 0 122.97 48.18 133.97 113.1zM439 501c0-38.23-27.57-70.91-64.27-78.3.09 2.1.27 4.18.27 6.3 0 74.99-61.01 136-136 136v-16c66.17 0 120-53.83 120-120 0-3.4-.16-6.76-.43-10.09l-.56-4.59C350.67 354.28 299.51 309 239 309c-55.2 0-103.04 37.45-116.33 91.07l-1.82 7.34-7.43-1.4c-3.56-.67-7.07-1.01-10.42-1.01-19.88 0-38.46 10.74-48.47 28.04l-2.31 3.99-5.53-.04C7.3 437-25 469.3-25 509s32.3 72 72 72h312c44.11 0 80-35.89 80-80zM188.19 302.9C171.57 281.54 146.4 269 119 269c-48.52 0-88 39.48-88 88 0 20.25 6.85 39.5 19.42 55.08C63.9 397.62 82.88 389 103 389c1.98 0 4.01.09 6.06.27 12.19-40.09 41.76-71.32 79.13-86.37z"/><path d="M226.48 238.21l11.31 11.32-28.28 28.28-11.32-11.31zm-44.98-11.18l-9.19 22.17-14.78-6.12 9.19-22.18zM111 197h16v40h-16zm-54.495 30.012l14.78-6.12 9.18 22.169-14.78 6.12zM.178 249.483l11.312-11.312 28.288 28.288-11.312 11.312zM11.23 303.72L5.11 318.5l-22.18-9.18 6.13-14.78zm-6.18 91.77l6.13 14.78-22.18 9.19-6.12-14.78zM-41 349h40v16h-40z"/></svg>