<svg xmlns="http://www.w3.org/2000/svg" viewBox="-49 141 512 512"><path d="M207 253c79.4 0 144 64.6 144 144s-64.6 144-144 144S63 476.4 63 397s64.6-144 144-144z" fill="#fdc300"/><path d="M383 389h72v16h-72zm26.63 83.28l-6.12 14.78-36.96-15.3 6.12-14.79zm-6.16-165.31l6.12 14.78-36.95 15.31-6.12-14.79zm-77.674-40.079l50.91-50.91 11.31 11.31-50.91 50.91zm-.046 260.249l11.311-11.319 50.931 50.888-11.31 11.32zM207 237c88.22 0 160 71.78 160 160s-71.78 160-160 160S47 485.22 47 397s71.78-160 160-160zm144 160c0-79.4-64.6-144-144-144S63 317.6 63 397s64.6 144 144 144 144-64.6 144-144zm-69.23 159.5l15.31 36.95-14.79 6.13-15.3-36.96zm15.28-356.02l-15.31 36.95-14.79-6.12 15.32-36.95zM199 573h16v72h-16zm0-424h16v72h-16zm-82.046 51.505l14.78-6.122 15.31 36.961-14.78 6.122zm-.054 393.03l15.31-36.949 14.782 6.126-15.31 36.948zM25.97 227.313l11.312-11.322 50.934 50.89-11.313 11.322zm.001 339.375L76.903 515.8l11.31 11.32-50.931 50.888zM41.36 457l6.13 14.79-36.96 15.3-6.12-14.78zm6.08-134.76l-6.12 14.78-36.96-15.3 6.12-14.79zM-41 389h72v16h-72z"/></svg>