<svg xmlns="http://www.w3.org/2000/svg" viewBox="-49 141 512 512"><path d="M383.318 275.725a2.169 2.169 0 0 1 2.698-2.221C423.194 282.959 454 328.251 454 367.588 454 414.131 416.408 452 370.207 452H43.414C1.831 452-32 417.919-32 376.029s33.831-75.971 75.089-75.981l4.535.033a2.159 2.159 0 0 0 1.886-1.08l1.801-3.121c10.474-18.254 29.925-29.586 50.758-29.586 3.509 0 7.185.359 10.914 1.066l5.761 1.095a2.16 2.16 0 0 0 2.501-1.606l1.417-5.757C136.592 204.526 186.7 165 244.517 165c63.369 0 116.965 47.777 124.653 111.128l.587 4.801c.283 3.535.45 7.08.45 10.689 0 69.457-55.799 126.029-124.613 126.613a2.153 2.153 0 0 0-1.715.869l-.282.382c-1.073 1.453.008 3.505 1.813 3.45 76.513-2.356 128.257-65.293 128.257-142.932 0-1.273 9.721-3.026 9.651-4.275z" fill="#22bbef"/><path d="M372.968 270.096C361.968 205.184 305.464 157 239 157c-60.16 0-112.6 39.232-129.944 96.272A67.728 67.728 0 0 0 103 253c-24.032 0-46.56 12.184-59.856 32.08C-3.6 287.112-41 325.768-41 373c0 48.52 39.48 88 88 88v-16c-39.704 0-72-32.304-72-72s32.296-72 71.688-72.008l5.536.04 2.304-3.992C64.536 279.744 83.12 269 103 269c3.352 0 6.856.336 10.424 1.008l7.424 1.4 1.824-7.336C135.96 210.448 183.8 173 239 173c60.512 0 111.672 45.28 119.008 105.32l.56 4.592c.272 3.328.432 6.688.432 10.088 0 66.168-53.832 120-120 120v16c74.992 0 136-61.008 136-136 0-2.12-.176-4.2-.272-6.296C411.432 294.088 439 326.768 439 365c0 44.112-35.888 80-80 80v16c52.936 0 96-43.064 96-96 0-47.576-35.536-88.072-82.032-94.904z"/><path d="M55.854 489.411l15.998-31.997 14.31 7.155-15.998 31.998zm-24.042 48.027l15.998-31.997 14.31 7.155-15.998 31.997zM7.85 585.407l15.998-31.997 14.31 7.155-15.998 31.998zm-24.044 48.003l15.999-31.998 14.31 7.156-15.998 31.997zm128.011-143.995l15.998-31.997 14.31 7.155-15.998 31.997zm-24.003 48.001l15.999-31.997 14.31 7.155-15.999 31.997zm-24.003 47.986l15.999-31.997 14.31 7.155-15.998 31.998zM39.81 633.413l15.998-31.997 14.31 7.155-15.999 31.997zM263.813 489.43l15.999-31.998 14.31 7.156-15.999 31.997zm-24.003 47.978l15.999-31.997 14.31 7.155-15.999 31.997zm-23.994 48.05l15.999-31.997 14.31 7.155-15.999 31.998zm-24.011 47.962l15.999-31.997 14.31 7.155-15.998 31.997zm128.027-143.987l15.998-31.997 14.31 7.155-15.998 31.997zm-24.043 47.994l15.998-31.997 14.31 7.155-15.998 31.997zm-23.963 48.026l15.999-31.998 14.31 7.156-15.998 31.997zm-24.043 47.97l15.999-31.997 14.31 7.155-15.998 31.997zM157.136 541l40.72-67.88-13.712-8.24-55.28 92.12h47.568l-48.184 75.704 13.504 8.592L205.568 541z"/></svg>