<svg xmlns="http://www.w3.org/2000/svg" viewBox="-49 141 512 512"><path d="M374.73 278.7c36.7 7.39 64.27 40.07 64.27 78.3 0 44.11-35.89 80-80 80H47c-39.7 0-72-32.3-72-72s32.3-72 71.69-72.01l5.53.04 2.32-3.99C64.54 271.74 83.11 261 103 261c3.35 0 6.86.34 10.42 1.01l7.42 1.4 1.82-7.34C135.96 202.46 183.8 165 239 165c60.5 0 111.67 45.28 119.01 105.32l.56 4.55c.27 3.35.43 6.71.43 10.13 0 66.17-53.83 120-120 120v16c74.99 0 136-61.01 136-136 0-2.13-.18-4.2-.27-6.3z" fill="#22bbef"/><path d="M415 565c22.06 0 40 17.94 40 40s-17.94 40-40 40-40-17.94-40-40v-8h16v8c0 13.23 10.77 24 24 24s24-10.77 24-24-10.77-24-24-24H47v-16h368zm-42.02-302.9C419.46 268.93 455 309.43 455 357c0 52.94-43.06 96-96 96H47c-48.52 0-88-39.48-88-88 0-47.23 37.4-85.89 84.14-87.91 14.4-21.55 39.18-34.16 65.91-31.82C126.4 188.23 178.84 149 239 149c66.46 0 122.97 48.18 133.98 113.1zM439 357c0-38.23-27.57-70.91-64.27-78.3.09 2.1.27 4.17.27 6.3 0 74.99-61.01 136-136 136v-16c66.17 0 120-53.83 120-120 0-3.42-.16-6.78-.43-10.13l-.56-4.55C350.67 210.28 299.5 165 239 165c-55.2 0-103.04 37.46-116.34 91.07l-1.82 7.34-7.42-1.4c-3.56-.67-7.07-1.01-10.42-1.01-19.89 0-38.46 10.74-48.46 28.04l-2.32 3.99-5.53-.04C7.3 293-25 325.3-25 365s32.3 72 72 72h312c44.11 0 80-35.89 80-80zm-88 112c22.06 0 40 17.94 40 40s-17.94 40-40 40H-17v-16h368c13.23 0 24-10.77 24-24s-10.77-24-24-24-24 10.77-24 24v8h-16v-8c0-22.06 17.94-40 40-40z"/><path d="M343 597h16v16h-16zm-32 0h16v16h-16zm-32 0h16v16h-16zm0-96h16v16h-16zm-32 0h16v16h-16zm-32 0h16v16h-16z"/></svg>