<?xml version="1.0" encoding="iso-8859-1"?>
<!-- Generator: Adobe Illustrator 21.1.0, SVG Export Plug-In . SVG Version: 6.00 Build 0)  -->
<svg version="1.1" id="Layer_1" xmlns="http://www.w3.org/2000/svg" xmlns:xlink="http://www.w3.org/1999/xlink" x="0px" y="0px"
	 viewBox="-49 141 512 512" style="enable-background:new -49 141 512 512;" xml:space="preserve">
<path style="fill:#0BBBEF;" d="M375.73,373.7c36.7,7.39,64.27,40.07,64.27,78.3c0,44.11-35.89,80-80,80H48c-39.7,0-72-32.3-72-72
	s32.3-72,71.69-72.01l5.53,0.04l2.31-3.99C65.54,366.74,84.12,356,104,356c3.35,0,6.86,0.34,10.42,1.01l7.43,1.4l1.82-7.34
	C136.96,297.45,184.8,260,240,260c60.51,0,111.67,45.28,119.01,105.32l0.56,4.59c0.27,3.33,0.43,6.69,0.43,10.09
	c0,66.17-53.83,120-120,120v16c74.99,0,136-61.01,136-136C376,377.88,375.82,375.8,375.73,373.7z"/>
<g>
	<g id="XMLID_1_">
		<g>
			<path style="fill:#FDC300;" d="M119,221c27.4,0,52.57,12.54,69.19,33.9c-37.37,15.05-66.94,46.28-79.13,86.37
				c-2.05-0.18-4.08-0.27-6.06-0.27c-20.12,0-39.1,8.62-52.58,23.08C37.85,348.5,31,329.25,31,309C31,260.48,70.48,221,119,221z"/>
			<path d="M372.97,358.1C419.46,364.93,455,405.42,455,453c0,52.94-43.06,96-96,96v-16c44.11,0,80-35.89,80-80
				c0-38.23-27.57-70.91-64.27-78.3c0.09,2.1,0.27,4.18,0.27,6.3c0,74.99-61.01,136-136,136v-16c66.17,0,120-53.83,120-120
				c0-3.4-0.16-6.76-0.43-10.09l-0.56-4.59C350.67,306.28,299.51,261,239,261c-55.2,0-103.04,37.45-116.33,91.07l-1.82,7.34
				l-7.43-1.4c-3.56-0.67-7.07-1.01-10.42-1.01c-19.88,0-38.46,10.74-48.47,28.04l-2.31,3.99l-5.53-0.04C7.3,389-25,421.3-25,461
				s32.3,72,72,72v16c-48.52,0-88-39.48-88-88c0-45.33,34.48-82.66,78.58-87.4C22.97,355.26,15,332.72,15,309
				c0-57.34,46.66-104,104-104c34.27,0,65.5,16.66,85.01,44.62c11.21-2.98,22.93-4.62,34.99-4.62
				C305.46,245,361.97,293.18,372.97,358.1z M188.19,254.9C171.57,233.54,146.4,221,119,221c-48.52,0-88,39.48-88,88
				c0,20.25,6.85,39.5,19.42,55.08C63.9,349.62,82.88,341,103,341c1.98,0,4.01,0.09,6.06,0.27
				C121.25,301.18,150.82,269.95,188.19,254.9z"/>
			<rect x="311" y="613" width="16" height="32"/>
			<rect x="311" y="565" width="16" height="32"/>
			<rect x="311" y="517" width="16" height="32"/>
			<rect x="263" y="589" width="16" height="32"/>
			<rect x="263" y="541" width="16" height="32"/>
			
				<rect x="197.994" y="202.046" transform="matrix(0.7071 -0.7071 0.7071 0.7071 -84.6757 215.6647)" width="39.997" height="15.998"/>
			<rect x="215" y="613" width="16" height="32"/>
			<rect x="215" y="565" width="16" height="32"/>
			<rect x="215" y="517" width="16" height="32"/>
			<rect x="167" y="589" width="16" height="32"/>
			<rect x="167" y="541" width="16" height="32"/>
			
				<rect x="157.515" y="179.057" transform="matrix(0.3829 -0.9238 0.9238 0.3829 -68.1944 272.0206)" width="23.999" height="15.997"/>
			<rect x="119" y="613" width="16" height="32"/>
			<rect x="119" y="565" width="16" height="32"/>
			<rect x="119" y="517" width="16" height="32"/>
			<rect x="111" y="149" width="16" height="40"/>
			<rect x="71" y="589" width="16" height="32"/>
			<rect x="71" y="541" width="16" height="32"/>
			
				<rect x="60.487" y="175.045" transform="matrix(0.9238 -0.3829 0.3829 0.9238 -66.4048 40.4818)" width="15.997" height="23.999"/>
			
				<rect x="12.011" y="189.995" transform="matrix(0.7068 -0.7074 0.7074 0.7068 -142.6892 75.7279)" width="15.998" height="40.005"/>
			<polygon points="11.24,255.69 5.11,270.47 -17.06,261.29 -10.94,246.51 			"/>
			
				<rect x="-14.975" y="351.507" transform="matrix(0.9239 -0.3826 0.3826 0.9239 -137.7631 26.211)" width="23.999" height="15.997"/>
			<rect x="-41" y="301" width="40" height="16"/>
		</g>
	</g>
</g>
</svg>
