<?xml version="1.0" encoding="iso-8859-1"?>
<!-- Generator: Adobe Illustrator 21.1.0, SVG Export Plug-In . SVG Version: 6.00 Build 0)  -->
<svg version="1.1" id="Layer_1" xmlns="http://www.w3.org/2000/svg" xmlns:xlink="http://www.w3.org/1999/xlink" x="0px" y="0px"
	 viewBox="-49 141 512 512" style="enable-background:new -49 141 512 512;" xml:space="preserve">
<path style="fill:#0BBBEF;" d="M374.73,333.7c36.7,7.39,64.27,40.07,64.27,78.3c0,44.11-35.89,80-80,80H47c-39.7,0-72-32.3-72-72
	s32.3-72,71.69-72.01l5.53,0.04l2.31-3.99C64.54,326.74,83.12,316,103,316c3.35,0,6.86,0.34,10.42,1.01l7.43,1.4l1.82-7.34
	C135.96,257.45,183.8,220,239,220c60.51,0,111.67,45.28,119.01,105.32l0.56,4.59c0.27,3.33,0.43,6.69,0.43,10.09
	c0,66.17-53.83,120-120,120v16c74.99,0,136-61.01,136-136C375,337.88,374.82,335.8,374.73,333.7z"/>
<g>
	<g id="XMLID_1_">
		<g>
			<path style="fill:#0BBBEF;" d="M159,173c25.88,0,49.58,12.42,64.49,32.98c-53.49,6.1-98.6,43.23-114.44,95.29
				c-26.72-2.33-51.51,10.27-65.91,31.82c-17.27,0.74-33.24,6.52-46.56,15.85C-16.81,340.1-25,325.24-25,309
				c0-26.14,20.5-47.19,46.65-47.92l4.47-0.13l2.23-3.87C35.5,244.7,48.78,237,63,237c3.02,0,6.03,0.37,9.22,1.12l7.56,1.78l2-7.51
				C91.1,197.42,122.85,173,159,173z"/>
			<path d="M372.98,318.1C419.46,324.93,455,365.43,455,413c0,52.94-43.06,96-96,96v-16c44.11,0,80-35.89,80-80
				c0-38.23-27.57-70.91-64.27-78.3c0.09,2.1,0.27,4.17,0.27,6.3c0,74.99-61.01,136-136,136v-16c66.17,0,120-53.83,120-120
				c0-3.42-0.16-6.78-0.43-10.13l-0.56-4.55C350.67,266.28,299.5,221,239,221c-55.2,0-103.04,37.46-116.34,91.07l-1.82,7.34
				l-7.42-1.4c-3.56-0.67-7.07-1.01-10.42-1.01c-19.89,0-38.46,10.74-48.46,28.04l-2.32,3.99l-5.53-0.04C7.3,349-25,381.3-25,421
				s32.3,72,72,72v16c-48.52,0-88-39.48-88-88c0-23.86,9.57-45.52,25.04-61.38C-31.58,347.62-41,329.1-41,309
				c0-33.41,25.08-60.58,57.85-63.66c11.41-16.59,30.89-26.17,51.62-24.06C81.82,183.1,118.06,157,159,157
				c34.53,0,65.89,18.34,83.03,48.14C307.16,206.58,362.14,254.18,372.98,318.1z M223.49,205.98C208.58,185.42,184.88,173,159,173
				c-36.15,0-67.9,24.42-77.22,59.39l-2,7.51l-7.56-1.78c-3.19-0.75-6.2-1.12-9.22-1.12c-14.22,0-27.5,7.7-34.65,20.08l-2.23,3.87
				l-4.47,0.13C-4.5,261.81-25,282.86-25,309c0,16.24,8.19,31.1,21.58,39.94c13.32-9.33,29.29-15.11,46.56-15.85
				c14.4-21.55,39.19-34.15,65.91-31.82C124.89,249.21,170,212.08,223.49,205.98z"/>
			<polygon points="334.14,504.55 318.14,536.54 303.83,529.39 319.83,497.39 			"/>
			<polygon points="310.14,552.58 294.14,584.58 279.83,577.42 295.83,545.43 			"/>
			
				<rect x="253.096" y="604.989" transform="matrix(0.4472 -0.8944 0.8944 0.4472 -398.4781 581.2289)" width="35.777" height="16.001"/>
			
				<rect x="245.096" y="509.007" transform="matrix(0.4472 -0.8944 0.8944 0.4472 -317.0488 521.0143)" width="35.777" height="15.997"/>
			
				<rect x="221.096" y="557.027" transform="matrix(0.4472 -0.8944 0.8944 0.4472 -373.2661 526.0928)" width="35.777" height="15.997"/>
			<polygon points="230.14,600.58 214.14,632.57 199.83,625.42 215.83,593.42 			"/>
			
				<rect x="189.096" y="509.007" transform="matrix(0.4472 -0.8944 0.8944 0.4472 -348.0048 470.9264)" width="35.777" height="15.997"/>
			<polygon points="198.14,552.61 182.14,584.61 167.83,577.45 183.83,545.46 			"/>
			<polygon points="174.13,600.58 158.13,632.58 143.82,625.42 159.82,593.43 			"/>
			<polygon points="166.13,504.57 150.13,536.56 135.82,529.41 151.82,497.41 			"/>
			
				<rect x="109.126" y="556.999" transform="matrix(0.4472 -0.8944 0.8944 0.4472 -435.1392 425.93)" width="35.777" height="16.001"/>
			
				<rect x="85.086" y="604.997" transform="matrix(0.4472 -0.8944 0.8944 0.4472 -491.3562 430.959)" width="35.777" height="15.997"/>
			
				<rect x="77.086" y="508.997" transform="matrix(0.4472 -0.8944 0.8944 0.4472 -409.9135 370.736)" width="35.777" height="15.997"/>
			<polygon points="86.16,552.58 70.17,584.57 55.85,577.42 71.85,545.42 			"/>
			
				<rect x="29.076" y="605.017" transform="matrix(0.4472 -0.8944 0.8944 0.4472 -522.3357 380.8731)" width="35.777" height="15.997"/>
		</g>
	</g>
</g>
</svg>
