<?xml version="1.0" encoding="iso-8859-1"?>
<!-- Generator: Adobe Illustrator 21.1.0, SVG Export Plug-In . SVG Version: 6.00 Build 0)  -->
<svg version="1.1" id="Layer_1" xmlns="http://www.w3.org/2000/svg" xmlns:xlink="http://www.w3.org/1999/xlink" x="0px" y="0px"
	 viewBox="-49 141 512 512" style="enable-background:new -49 141 512 512;" xml:space="preserve">
<g>
	<g id="XMLID_1_">
		<g>
			<path style="fill:#22BBEF;" d="M159,173c25.88,0,49.58,12.42,64.5,32.98c-53.5,6.1-98.61,43.23-114.44,95.29
				c-2.05-0.18-4.08-0.27-6.06-0.27c-24.03,0-46.56,12.18-59.86,32.08c-17.27,0.75-33.24,6.53-46.55,15.86
				C-16.8,340.1-25,325.24-25,309c0-26.14,20.5-47.19,46.65-47.93l4.47-0.13l2.23-3.87c8.65-14.98,25.73-23.25,43.87-18.96
				l7.56,1.79l2-7.51C91.1,197.42,122.85,173,159,173z"/>
			<path style="fill:#22BBEF;" d="M374.73,334.7c36.7,7.39,64.27,40.07,64.27,78.3c0,44.11-35.89,80-80,80H47c-39.7,0-72-32.3-72-72
				s32.3-72,71.69-72.01l5.53,0.04l2.31-3.99C64.54,327.74,83.12,317,103,317c3.35,0,6.86,0.34,10.42,1.01l7.43,1.4l1.82-7.34
				C135.96,258.45,183.8,221,239,221c60.51,0,111.67,45.28,119.01,105.32l0.56,4.59c0.27,3.33,0.43,6.69,0.43,10.09
				c0,66.17-53.83,120-120,120v16c74.99,0,136-61.01,136-136C375,338.88,374.82,336.8,374.73,334.7z"/>
			<path d="M372.97,318.1C419.46,324.93,455,365.42,455,413c0,52.94-43.06,96-96,96H47c-48.52,0-88-39.48-88-88
				c0-23.86,9.57-45.52,25.05-61.38C-31.57,347.62-41,329.11-41,309c0-33.4,25.08-60.58,57.86-63.66
				c11.41-16.59,30.92-26.22,51.62-24.05C81.83,183.1,118.06,157,159,157c34.54,0,65.88,18.34,83.02,48.14
				C307.15,206.58,362.14,254.18,372.97,318.1z M439,413c0-38.23-27.57-70.91-64.27-78.3c0.09,2.1,0.27,4.18,0.27,6.3
				c0,74.99-61.01,136-136,136v-16c66.17,0,120-53.83,120-120c0-3.4-0.16-6.76-0.43-10.09l-0.56-4.59
				C350.67,266.28,299.51,221,239,221c-55.2,0-103.04,37.45-116.33,91.07l-1.82,7.34l-7.43-1.4c-3.56-0.67-7.07-1.01-10.42-1.01
				c-19.88,0-38.46,10.74-48.47,28.04l-2.31,3.99l-5.53-0.04C7.3,349-25,381.3-25,421s32.3,72,72,72h312
				C403.11,493,439,457.11,439,413z M223.5,205.98C208.58,185.42,184.88,173,159,173c-36.15,0-67.9,24.42-77.22,59.39l-2,7.51
				l-7.56-1.79c-18.14-4.29-35.22,3.98-43.87,18.96l-2.23,3.87l-4.47,0.13C-4.5,261.81-25,282.86-25,309
				c0,16.24,8.2,31.1,21.59,39.94c13.31-9.33,29.28-15.11,46.55-15.86C56.44,313.18,78.97,301,103,301c1.98,0,4.01,0.09,6.06,0.27
				C124.89,249.21,170,212.08,223.5,205.98z"/>
			<polygon points="331.42,549.84 338.58,564.16 320.89,573 338.58,581.84 331.42,596.16 311,585.94 311,605 295,605 295,585.94 
				274.58,596.16 267.42,581.84 285.11,573 267.42,564.16 274.58,549.84 295,560.06 295,541 311,541 311,560.06 			"/>
			<polygon points="235.42,581.84 242.58,596.16 224.89,605 242.58,613.84 235.42,628.16 215,617.94 215,637 199,637 199,617.94 
				178.58,628.16 171.42,613.84 189.11,605 171.42,596.16 178.58,581.84 199,592.06 199,573 215,573 215,592.06 			"/>
			<polygon points="139.42,549.84 146.58,564.16 128.89,573 146.58,581.84 139.42,596.16 119,585.94 119,605 103,605 103,585.94 
				82.58,596.16 75.42,581.84 93.11,573 75.42,564.16 82.58,549.84 103,560.06 103,541 119,541 119,560.06 			"/>
		</g>
	</g>
</g>
</svg>
