<?xml version="1.0" encoding="iso-8859-1"?>
<!-- Generator: Adobe Illustrator 21.1.0, SVG Export Plug-In . SVG Version: 6.00 Build 0)  -->
<svg version="1.1" id="Layer_1" xmlns="http://www.w3.org/2000/svg" xmlns:xlink="http://www.w3.org/1999/xlink" x="0px" y="0px"
	 viewBox="-49 141 512 512" style="enable-background:new -49 141 512 512;" xml:space="preserve">
<g>
	<g id="XMLID_1_">
		<g>
			<path style="fill:#FDC300;" d="M119,269c27.4,0,52.57,12.54,69.19,33.9c-37.37,15.05-66.94,46.28-79.13,86.37
				c-2.05-0.18-4.08-0.27-6.06-0.27c-20.12,0-39.1,8.62-52.58,23.08C37.85,396.5,31,377.25,31,357C31,308.48,70.48,269,119,269z"/>
			<path style="fill:#0BBBEF;" d="M374.73,422.7c36.7,7.39,64.27,40.07,64.27,78.3c0,44.11-35.89,80-80,80H47c-39.7,0-72-32.3-72-72
				s32.3-72,71.69-72.01l5.53,0.04l2.31-3.99C64.54,415.74,83.12,405,103,405c3.35,0,6.86,0.34,10.42,1.01l7.43,1.4l1.82-7.34
				C135.96,346.45,183.8,309,239,309c60.51,0,111.67,45.28,119.01,105.32l0.56,4.59c0.27,3.33,0.43,6.69,0.43,10.09
				c0,66.17-53.83,120-120,120v16c74.99,0,136-61.01,136-136C375,426.88,374.82,424.8,374.73,422.7z"/>
			<path d="M372.97,406.1C419.46,412.93,455,453.42,455,501c0,52.94-43.06,96-96,96H47c-48.52,0-88-39.48-88-88
				c0-45.33,34.48-82.66,78.58-87.4C22.97,403.26,15,380.72,15,357c0-57.34,46.66-104,104-104c34.27,0,65.5,16.66,85.01,44.62
				c11.21-2.98,22.93-4.62,34.99-4.62C305.46,293,361.97,341.18,372.97,406.1z M439,501c0-38.23-27.57-70.91-64.27-78.3
				c0.09,2.1,0.27,4.18,0.27,6.3c0,74.99-61.01,136-136,136v-16c66.17,0,120-53.83,120-120c0-3.4-0.16-6.76-0.43-10.09l-0.56-4.59
				C350.67,354.28,299.51,309,239,309c-55.2,0-103.04,37.45-116.33,91.07l-1.82,7.34l-7.43-1.4c-3.56-0.67-7.07-1.01-10.42-1.01
				c-19.88,0-38.46,10.74-48.47,28.04l-2.31,3.99l-5.53-0.04C7.3,437-25,469.3-25,509s32.3,72,72,72h312
				C403.11,581,439,545.11,439,501z M188.19,302.9C171.57,281.54,146.4,269,119,269c-48.52,0-88,39.48-88,88
				c0,20.25,6.85,39.5,19.42,55.08C63.9,397.62,82.88,389,103,389c1.98,0,4.01,0.09,6.06,0.27
				C121.25,349.18,150.82,317.95,188.19,302.9z"/>
			<polygon points="226.48,238.21 237.79,249.53 209.51,277.81 198.19,266.5 			"/>
			<polygon points="181.5,227.03 172.31,249.2 157.53,243.08 166.72,220.9 			"/>
			<rect x="111" y="197" width="16" height="40"/>
			
				<rect x="60.482" y="223.047" transform="matrix(0.9239 -0.3826 0.3826 0.9239 -84.7122 44.0795)" width="15.997" height="23.995"/>
			
				<rect x="11.981" y="237.97" transform="matrix(0.7071 -0.7071 0.7071 0.7071 -176.5621 89.6864)" width="15.998" height="40.005"/>
			<polygon points="11.23,303.72 5.11,318.5 -17.07,309.32 -10.94,294.54 			"/>
			<polygon points="5.05,395.49 11.18,410.27 -11,419.46 -17.12,404.68 			"/>
			<rect x="-41" y="349" width="40" height="16"/>
		</g>
	</g>
</g>
</svg>
