<?xml version="1.0" encoding="iso-8859-1"?>
<!-- Generator: Adobe Illustrator 21.1.0, SVG Export Plug-In . SVG Version: 6.00 Build 0)  -->
<svg version="1.1" id="Layer_1" xmlns="http://www.w3.org/2000/svg" xmlns:xlink="http://www.w3.org/1999/xlink" x="0px" y="0px"
	 viewBox="-49 141 512 512" style="enable-background:new -49 141 512 512;" xml:space="preserve">
<g>
	<g id="XMLID_1_">
		<g>
			<path style="fill:#FDC300;" d="M207,253c79.4,0,144,64.6,144,144s-64.6,144-144,144S63,476.4,63,397S127.6,253,207,253z"/>
			<rect x="383" y="389" width="72" height="16"/>
			<polygon points="409.63,472.28 403.51,487.06 366.55,471.76 372.67,456.97 			"/>
			<polygon points="403.47,306.97 409.59,321.75 372.64,337.06 366.52,322.27 			"/>
			
				<rect x="320.911" y="239.093" transform="matrix(0.7071 -0.7071 0.7071 0.7071 -70.1825 324.7445)" width="71.998" height="15.995"/>
			
				<rect x="348.879" y="510.916" transform="matrix(0.7068 -0.7074 0.7074 0.7068 -282.2589 412.8224)" width="16.002" height="71.998"/>
			<path d="M207,237c88.22,0,160,71.78,160,160s-71.78,160-160,160S47,485.22,47,397S118.78,237,207,237z M351,397
				c0-79.4-64.6-144-144-144S63,317.6,63,397s64.6,144,144,144S351,476.4,351,397z"/>
			<polygon points="281.77,556.5 297.08,593.45 282.29,599.58 266.99,562.62 			"/>
			<polygon points="297.05,200.48 281.74,237.43 266.95,231.31 282.27,194.36 			"/>
			<rect x="199" y="573" width="16" height="72"/>
			<rect x="199" y="149" width="16" height="72"/>
			
				<rect x="123.997" y="195.917" transform="matrix(0.9239 -0.3827 0.3827 0.9239 -72.5838 66.9514)" width="15.997" height="40.005"/>
			
				<rect x="111.967" y="570.11" transform="matrix(0.3828 -0.9238 0.9238 0.3828 -452.6288 478.7317)" width="39.996" height="16.001"/>
			
				<rect x="49.095" y="211.094" transform="matrix(0.7068 -0.7074 0.7074 0.7068 -158.0584 112.8415)" width="16.005" height="72.001"/>
			
				<rect x="21.091" y="538.914" transform="matrix(0.7074 -0.7068 0.7068 0.7074 -369.8529 200.3677)" width="71.998" height="16.002"/>
			<polygon points="41.36,457 47.49,471.79 10.53,487.09 4.41,472.31 			"/>
			<polygon points="47.44,322.24 41.32,337.02 4.36,321.72 10.48,306.93 			"/>
			<rect x="-41" y="389" width="72" height="16"/>
		</g>
	</g>
</g>
</svg>
