<?xml version="1.0" encoding="iso-8859-1"?>
<!-- Generator: Adobe Illustrator 21.1.0, SVG Export Plug-In . SVG Version: 6.00 Build 0)  -->
<svg version="1.1" id="Layer_1" xmlns="http://www.w3.org/2000/svg" xmlns:xlink="http://www.w3.org/1999/xlink" x="0px" y="0px"
	 viewBox="-49 141 512 512" style="enable-background:new -49 141 512 512;" xml:space="preserve">
<path style="fill:#22BBEF;" d="M383.318,275.725c-0.081-1.46,1.28-2.581,2.698-2.221C423.194,282.959,454,328.251,454,367.588
	C454,414.131,416.408,452,370.207,452H43.414C1.831,452-32,417.919-32,376.029s33.831-75.971,75.089-75.981l4.535,0.033
	c0.777,0.006,1.498-0.407,1.886-1.08l1.801-3.121c10.474-18.254,29.925-29.586,50.758-29.586c3.509,0,7.185,0.359,10.914,1.066
	l5.761,1.095c1.128,0.214,2.226-0.491,2.501-1.606l1.417-5.757C136.592,204.526,186.7,165,244.517,165
	c63.369,0,116.965,47.777,124.653,111.128l0.587,4.801c0.283,3.535,0.45,7.08,0.45,10.689c0,69.457-55.799,126.029-124.613,126.613
	c-0.677,0.006-1.313,0.325-1.715,0.869l-0.282,0.382c-1.073,1.453,0.008,3.505,1.813,3.45
	c76.513-2.356,128.257-65.293,128.257-142.932C373.667,278.727,383.388,276.974,383.318,275.725z"/>
<g>
	<path d="M372.968,270.096C361.968,205.184,305.464,157,239,157c-60.16,0-112.6,39.232-129.944,96.272
		C107.008,253.088,104.984,253,103,253c-24.032,0-46.56,12.184-59.856,32.08C-3.6,287.112-41,325.768-41,373c0,48.52,39.48,88,88,88
		v-16c-39.704,0-72-32.304-72-72s32.296-72,71.688-72.008l5.536,0.04l2.304-3.992C64.536,279.744,83.12,269,103,269
		c3.352,0,6.856,0.336,10.424,1.008l7.424,1.4l1.824-7.336C135.96,210.448,183.8,173,239,173c60.512,0,111.672,45.28,119.008,105.32
		l0.56,4.592C358.84,286.24,359,289.6,359,293c0,66.168-53.832,120-120,120v16c74.992,0,136-61.008,136-136
		c0-2.12-0.176-4.2-0.272-6.296C411.432,294.088,439,326.768,439,365c0,44.112-35.888,80-80,80v16c52.936,0,96-43.064,96-96
		C455,317.424,419.464,276.928,372.968,270.096z"/>
	<rect x="53.135" y="468.995" transform="matrix(0.4472 -0.8944 0.8944 0.4472 -387.3773 327.2008)" width="35.775" height="16"/>
	<rect x="29.093" y="517.023" transform="matrix(0.4472 -0.8944 0.8944 0.4472 -443.624 332.2462)" width="35.775" height="16"/>
	<rect x="5.132" y="564.994" transform="matrix(0.4472 -0.8944 0.8944 0.4472 -499.7764 337.3321)" width="35.775" height="16"/>
	<rect x="-18.91" y="612.997" transform="matrix(0.4472 -0.8944 0.8944 0.4472 -556.0016 342.3641)" width="35.775" height="16"/>
	<rect x="109.098" y="468.997" transform="matrix(0.4472 -0.8944 0.8944 0.4472 -356.443 377.2567)" width="35.775" height="16"/>
	<rect x="85.097" y="517" transform="matrix(0.4472 -0.8944 0.8944 0.4472 -412.6461 382.3246)" width="35.775" height="16"/>
	<rect x="61.095" y="564.987" transform="matrix(0.4472 -0.8944 0.8944 0.4472 -468.8349 387.3835)" width="35.775" height="16"/>
	<rect x="37.093" y="612.999" transform="matrix(0.4472 -0.8944 0.8944 0.4472 -525.0452 392.4558)" width="35.775" height="16"/>
	<rect x="261.097" y="469.008" transform="matrix(0.4472 -0.8944 0.8944 0.4472 -272.4304 513.2144)" width="35.775" height="16"/>
	<rect x="237.095" y="516.987" transform="matrix(0.4472 -0.8944 0.8944 0.4472 -328.612 518.269)" width="35.775" height="16"/>
	<rect x="213.101" y="565.039" transform="matrix(0.4472 -0.8944 0.8944 0.4472 -384.8537 523.3705)" width="35.775" height="16"/>
	<rect x="189.092" y="613.002" transform="matrix(0.4472 -0.8944 0.8944 0.4472 -441.0255 528.4091)" width="35.775" height="16"/>
	<rect x="317.116" y="469.01" transform="matrix(0.4472 -0.8944 0.8944 0.4472 -241.4651 563.3204)" width="35.775" height="16"/>
	<rect x="293.074" y="517.005" transform="matrix(0.4472 -0.8944 0.8944 0.4472 -297.6832 568.348)" width="35.775" height="16"/>
	<rect x="269.113" y="565.032" transform="matrix(0.4472 -0.8944 0.8944 0.4472 -353.8857 573.4649)" width="35.775" height="16"/>
	<rect x="245.071" y="613.003" transform="matrix(0.4472 -0.8944 0.8944 0.4472 -410.0823 578.4793)" width="35.775" height="16"/>
	<polygon points="157.136,541 197.856,473.12 184.144,464.88 128.864,557 176.432,557 128.248,632.704 141.752,641.296 205.568,541 
			"/>
</g>
</svg>
