<?xml version="1.0" encoding="iso-8859-1"?>
<!-- Generator: Adobe Illustrator 21.1.0, SVG Export Plug-In . SVG Version: 6.00 Build 0)  -->
<svg version="1.1" id="Layer_1" xmlns="http://www.w3.org/2000/svg" xmlns:xlink="http://www.w3.org/1999/xlink" x="0px" y="0px"
	 viewBox="-49 141 512 512" style="enable-background:new -49 141 512 512;" xml:space="preserve">
<g>
	<g id="XMLID_1_">
		<g>
			<path style="fill:#22BBEF;" d="M374.73,278.7c36.7,7.39,64.27,40.07,64.27,78.3c0,44.11-35.89,80-80,80H47c-39.7,0-72-32.3-72-72
				s32.3-72,71.69-72.01l5.53,0.04l2.32-3.99C64.54,271.74,83.11,261,103,261c3.35,0,6.86,0.34,10.42,1.01l7.42,1.4l1.82-7.34
				C135.96,202.46,183.8,165,239,165c60.5,0,111.67,45.28,119.01,105.32l0.56,4.55c0.27,3.35,0.43,6.71,0.43,10.13
				c0,66.17-53.83,120-120,120v16c74.99,0,136-61.01,136-136C375,282.87,374.82,280.8,374.73,278.7z"/>
			<path d="M415,565c22.06,0,40,17.94,40,40s-17.94,40-40,40s-40-17.94-40-40v-8h16v8c0,13.23,10.77,24,24,24s24-10.77,24-24
				s-10.77-24-24-24H47v-16H415z"/>
			<path d="M372.98,262.1C419.46,268.93,455,309.43,455,357c0,52.94-43.06,96-96,96H47c-48.52,0-88-39.48-88-88
				c0-47.23,37.4-85.89,84.14-87.91c14.4-21.55,39.18-34.16,65.91-31.82C126.4,188.23,178.84,149,239,149
				C305.46,149,361.97,197.18,372.98,262.1z M439,357c0-38.23-27.57-70.91-64.27-78.3c0.09,2.1,0.27,4.17,0.27,6.3
				c0,74.99-61.01,136-136,136v-16c66.17,0,120-53.83,120-120c0-3.42-0.16-6.78-0.43-10.13l-0.56-4.55
				C350.67,210.28,299.5,165,239,165c-55.2,0-103.04,37.46-116.34,91.07l-1.82,7.34l-7.42-1.4c-3.56-0.67-7.07-1.01-10.42-1.01
				c-19.89,0-38.46,10.74-48.46,28.04l-2.32,3.99l-5.53-0.04C7.3,293-25,325.3-25,365s32.3,72,72,72h312
				C403.11,437,439,401.11,439,357z"/>
			<path d="M351,469c22.06,0,40,17.94,40,40s-17.94,40-40,40H-17v-16h368c13.23,0,24-10.77,24-24c0-13.23-10.77-24-24-24
				s-24,10.77-24,24v8h-16v-8C311,486.94,328.94,469,351,469z"/>
			<rect x="343" y="597" width="16" height="16"/>
			<rect x="311" y="597" width="16" height="16"/>
			<rect x="279" y="597" width="16" height="16"/>
			<rect x="279" y="501" width="16" height="16"/>
			<rect x="247" y="501" width="16" height="16"/>
			<rect x="215" y="501" width="16" height="16"/>
		</g>
	</g>
</g>
</svg>
