<svg width="23" height="23" viewBox="0 0 23 23" xmlns="http://www.w3.org/2000/svg" xmlns:xlink="http://www.w3.org/1999/xlink"><title>obelisco</title><defs><path id="a" d="M0 0h23v23H0z"/></defs><g fill="none" fill-rule="evenodd"><mask id="b" fill="#fff"><use xlink:href="#a"/></mask><path d="M22.233 20.7h-.495a.27.27 0 0 1-.192-.08 1.034 1.034 0 0 0-.734-.304H20.7v-.766h.496a.27.27 0 0 1 .191.08c.195.194.459.304.734.303h.112v.767zm-10.35 1.533V2.683h.823l1.448 19.55h-2.27zm-1.589-19.55h.823v19.55h-.767v-.766h-.766v.766h-.738l1.448-19.55zm1.59-1.374l.607.607h-.608V1.31zm-.767.607h-.608l.608-.607v.607zM.767 19.55h.495a.27.27 0 0 1 .192.08c.194.194.458.304.734.303H2.3v.767h-.496a.272.272 0 0 1-.191-.08 1.033 1.033 0 0 0-.734-.304H.767v-.766zm3.833 0h.496a.27.27 0 0 1 .191.08c.194.194.459.304.734.303h.112v.767h-.495a.27.27 0 0 1-.192-.08 1.034 1.034 0 0 0-.734-.304H4.6v-.766zm12.267 0h.495a.27.27 0 0 1 .192.08c.194.194.458.304.734.303h.112v.767h-.496a.27.27 0 0 1-.191-.08 1.034 1.034 0 0 0-.734-.304h-.112v-.766zm5.75-.383h-.496a.272.272 0 0 1-.192-.08 1.03 1.03 0 0 0-.733-.304h-1.263v3.45h-3.066v-1.15h.112a.27.27 0 0 1 .192.08c.194.195.458.304.733.304h.88a.383.383 0 0 0 .383-.384V19.55a.383.383 0 0 0-.384-.383h-.495a.271.271 0 0 1-.192-.08 1.031 1.031 0 0 0-.734-.304H16.1v3.45h-1.177L13.417 1.888a.385.385 0 0 0-.111-.242L11.772.112a.383.383 0 0 0-.542 0L9.697 1.646a.384.384 0 0 0-.111.242L8.078 22.233H4.6v-1.15h.112c.072 0 .141.029.192.08.194.195.458.304.734.304h.879a.383.383 0 0 0 .383-.384V19.55a.383.383 0 0 0-.383-.383H6.02a.27.27 0 0 1-.192-.08 1.034 1.034 0 0 0-.733-.304H3.833v3.45H.767v-1.15h.112c.072 0 .14.029.192.08.194.195.458.304.733.304h.88a.383.383 0 0 0 .383-.384V19.55a.383.383 0 0 0-.384-.383h-.495a.27.27 0 0 1-.192-.08 1.033 1.033 0 0 0-.734-.304H0V23h23v-.767h-2.3v-1.15h.112a.27.27 0 0 1 .192.08c.194.195.458.304.734.304h.879a.383.383 0 0 0 .383-.384V19.55a.383.383 0 0 0-.383-.383z" fill="#FEFEFE" mask="url(#b)"/></g></svg>