<svg xmlns="http://www.w3.org/2000/svg" xmlns:xlink="http://www.w3.org/1999/xlink" width="51" height="51" viewBox="0 0 51 51"><defs><path id="a" d="M0 51h51V0H0z"/></defs><g fill="none" fill-rule="evenodd"><path fill="#000" d="M25.5 49.3c-13.144 0-23.8-10.656-23.8-23.8S12.356 1.7 25.5 1.7s23.8 10.656 23.8 23.8c-.015 13.138-10.662 23.785-23.8 23.8m0-49.3C11.417 0 0 11.417 0 25.5S11.417 51 25.5 51 51 39.583 51 25.5C50.984 11.423 39.577.016 25.5 0"/><mask id="b" fill="#fff"><use xlink:href="#a"/></mask><path fill="#000" d="M24 8h1V4h-1zM7 15.856L7.896 14 11 16.144 10.104 18zm0 20.287L10.104 34 11 35.857 7.896 38zM24 47h1v-4h-1zm16-11.144L40.896 34 44 36.144 43.104 38zm0-19.713L43.104 14 44 15.857 40.896 18zM4 25h4v-1H4zm10 18.104L16.143 40l1.857.896L15.857 44zm20-2.208L35.857 40 38 43.104 36.143 44zM43 25h4v-1h-4zm-9-14.896L36.143 7 38 7.896 35.857 11zM14 7.896L15.856 7 18 10.104 16.144 11zm11.532 19.418c-.957 0-1.733-.754-1.733-1.684 0-.93.776-1.684 1.733-1.684.957 0 1.733.754 1.733 1.684 0 .93-.776 1.684-1.733 1.684m.867-4.932v-8.54a.855.855 0 0 0-.867-.842.855.855 0 0 0-.867.842v8.54c-1.212.308-2.16 1.228-2.476 2.406h-5.322a.855.855 0 0 0-.867.842c0 .465.388.842.867.842h5.322c.474 1.799 2.359 2.883 4.21 2.422 1.85-.46 2.966-2.292 2.492-4.09-.314-1.19-1.269-2.118-2.492-2.422" mask="url(#b)"/></g></svg>