<svg xmlns="http://www.w3.org/2000/svg" xmlns:xlink="http://www.w3.org/1999/xlink" width="52" height="52" viewBox="0 0 52 52"><defs><path id="a" d="M0 0h52v52H0z"/></defs><g fill="none" fill-rule="evenodd"><mask id="b" fill="#fff"><use xlink:href="#a"/></mask><path fill="#000" d="M52 26c0 14.359-11.641 26-26 26C11.64 52 0 40.359 0 26 0 11.64 11.64 0 26 0c14.359 0 26 11.64 26 26" mask="url(#b)"/><path fill="#FFF" d="M17.232 33.202a.906.906 0 1 1 0 1.813.906.906 0 0 1 0-1.813m0 2.9a1.995 1.995 0 0 0 1.993-1.994 1.995 1.995 0 0 0-1.993-1.993 1.995 1.995 0 0 0-1.993 1.993c0 1.1.894 1.993 1.993 1.993m19.136-1.087a.906.906 0 1 1 0-1.812.906.906 0 0 1 0 1.813m0-2.9a1.995 1.995 0 0 0-1.993 1.993c0 1.1.894 1.994 1.993 1.994 1.1 0 1.994-.894 1.994-1.993a1.995 1.995 0 0 0-1.994-1.994m-3.769 2.32H21.002a.544.544 0 1 0 0 1.087h11.597a.544.544 0 1 0 0-1.087M16.326 17.002c0-.02.017-.036.036-.036h20.876c.02 0 .036.016.036.036V29.76c0 .02-.016.036-.036.036h-9.894V18.742a.544.544 0 1 0-1.088 0v11.053h-9.894a.036.036 0 0 1-.036-.036V17.002zm1.16-1.739a.616.616 0 1 1 1.233 0 .616.616 0 0 1-1.233 0zm5.798.58v-1.16c0-.02.017-.036.037-.036h6.958c.02 0 .036.016.036.036v1.16c0 .02-.016.035-.036.035h-6.958a.037.037 0 0 1-.037-.036zm11.598-.58a.616.616 0 1 1 1.233 0 .616.616 0 0 1-1.233 0zm-18.52 15.62h20.876c.619 0 1.123-.504 1.123-1.124V17.002c0-.619-.504-1.124-1.123-1.124h-.152a1.705 1.705 0 0 0-1.588-2.319 1.705 1.705 0 0 0-1.588 2.32h-2.509l.002-.037v-1.159c0-.62-.504-1.124-1.124-1.124h-6.958c-.62 0-1.124.504-1.124 1.124v1.16l.002.035h-2.51a1.705 1.705 0 0 0-1.587-2.319 1.705 1.705 0 0 0-1.588 2.32h-.152c-.619 0-1.123.504-1.123 1.123V29.76c0 .62.504 1.124 1.123 1.124z"/><path fill="#FFF" d="M41.913 22.801c0 .02-.017.036-.037.036h-1.159a.036.036 0 0 1-.036-.036v-3.479c0-.02.016-.037.036-.037h1.159c.02 0 .037.017.037.037v3.48zm-2.899 19.715c0 .02-.017.036-.037.036h-2.319a.037.037 0 0 1-.037-.036V40.74h2.393v1.776zm-22.036 0c0 .02-.016.036-.036.036h-2.319a.036.036 0 0 1-.036-.036V40.74l.036.001h2.355v1.776zm-4.095-19.679h-1.159a.037.037 0 0 1-.037-.036v-3.479c0-.02.017-.037.037-.037h1.159c.02 0 .036.017.036.037v3.48c0 .02-.016.035-.036.035zm1.124-9.894c0-.339.276-.616.616-.616h24.354c.34 0 .616.277.616.616v23.811h-3.515a.544.544 0 1 0 0 1.087h3.515v1.196c0 .34-.276.617-.616.617H14.623a.617.617 0 0 1-.616-.617v-1.196h19.751a.543.543 0 1 0 0-1.087H14.007v-23.81zm27.869 5.255h-1.159l-.036.002v-5.257c0-.939-.765-1.703-1.704-1.703H14.623c-.939 0-1.704.764-1.704 1.703V18.2l-.036-.002h-1.159c-.62 0-1.124.504-1.124 1.124v3.48c0 .62.504 1.123 1.124 1.123h1.159l.036-.002v15.114c0 .51.225.967.58 1.28v2.2c0 .62.504 1.123 1.124 1.123h2.319c.62 0 1.124-.504 1.124-1.124V40.74h17.468v1.776c0 .62.504 1.124 1.124 1.124h2.319c.62 0 1.124-.504 1.124-1.124v-2.2a1.7 1.7 0 0 0 .58-1.279V23.923l.036.002h1.159c.62 0 1.124-.504 1.124-1.124v-3.479c0-.62-.504-1.124-1.124-1.124z"/></g></svg>