<svg xmlns="http://www.w3.org/2000/svg" width="45" height="45" viewBox="0 0 45 45"><g fill-rule="evenodd"><path d="M22.5 42.188c-10.873 0-19.688-8.815-19.688-19.688S11.627 2.812 22.5 2.812 42.188 11.627 42.188 22.5 33.373 42.188 22.5 42.188M22.5 0C10.074 0 0 10.074 0 22.5S10.074 45 22.5 45 45 34.926 45 22.5 34.926 0 22.5 0"/><path d="M19.2 18.714h5.6c.773 0 1.4.64 1.4 1.429H29c0-2.367-1.88-4.286-4.2-4.286h-1.4V13h-2.8v2.857h-1.4c-2.32 0-4.2 1.919-4.2 4.286 0 2.367 1.88 4.286 4.2 4.286h5.6c.773 0 1.4.64 1.4 1.428 0 .79-.627 1.429-1.4 1.429h-5.6c-.773 0-1.4-.64-1.4-1.429H15c0 2.367 1.88 4.286 4.2 4.286h1.4V33h2.8v-2.857h1.4c2.32 0 4.2-1.919 4.2-4.286 0-2.367-1.88-4.286-4.2-4.286h-5.6c-.773 0-1.4-.64-1.4-1.428 0-.79.627-1.429 1.4-1.429"/></g></svg>