<svg xmlns="http://www.w3.org/2000/svg" width="14" height="14" viewBox="0 0 14 14"><path fill="#FFF" fill-rule="evenodd" d="M12.923 0H1.077C.483 0 0 .483 0 1.077v11.846C0 13.517.483 14 1.077 14H6.73a.27.27 0 0 0 .27-.27V9.963a.27.27 0 0 0-.27-.27H5.655a.27.27 0 0 1-.27-.269V7.27a.27.27 0 0 1 .27-.269H6.73A.27.27 0 0 0 7 6.73V5.655a2.965 2.965 0 0 1 2.962-2.962h1.615c.149 0 .27.12.27.27v2.153a.27.27 0 0 1-.27.27H10.5a.809.809 0 0 0-.808.807v.539c0 .148.12.269.27.269h1.615a.27.27 0 0 1 .267.303l-.27 2.153a.27.27 0 0 1-.266.236H9.962a.27.27 0 0 0-.27.27v3.769c0 .148.12.269.27.269h2.961c.594 0 1.077-.483 1.077-1.077V1.077C14 .483 13.517 0 12.923 0"/></svg>