<svg xmlns="http://www.w3.org/2000/svg" width="17" height="14" viewBox="0 0 17 14"><path fill-rule="evenodd" d="M16.928 1.7a.279.279 0 0 0-.339-.066c-.133.069-.428.166-.75.25.327-.386.6-.854.709-1.267a.297.297 0 0 0-.109-.314.276.276 0 0 0-.324-.003c-.218.153-1.243.601-1.879.731C13.446.32 12.664 0 11.716 0 11.012 0 10.36.199 9.6.645c-1.354.794-1.56 2.542-1.443 3.567-3.744-.321-5.842-2.469-6.584-3.4a.277.277 0 0 0-.46.034 3.534 3.534 0 0 0-.395 2.713c.149.59.426 1.107.74 1.512a4.1 4.1 0 0 1-.642-.434.277.277 0 0 0-.3-.034.293.293 0 0 0-.16.263c0 1.697 1.112 2.856 2.07 3.428a5.61 5.61 0 0 1-.633-.161.278.278 0 0 0-.296.088.298.298 0 0 0-.043.314c.587 1.303 1.774 2.262 3.087 2.55-1.134.73-2.744 1.094-4.227.92a.288.288 0 0 0-.302.203.295.295 0 0 0 .135.344C1.874 13.526 3.668 14 5.63 14h.012c2.765-.002 5.337-1.22 7.244-3.425 1.728-2 2.628-4.535 2.429-6.818.467-.34 1.194-.997 1.64-1.704a.298.298 0 0 0-.027-.353"/></svg>