<svg width="22" height="22" viewBox="0 0 22 22" xmlns="http://www.w3.org/2000/svg" xmlns:xlink="http://www.w3.org/1999/xlink"><title>hotel</title><defs><path id="a" d="M0 0h22v22H0z"/></defs><g fill="none" fill-rule="evenodd"><mask id="b" fill="#fff"><use xlink:href="#a"/></mask><path d="M4.05 13.584h1.84V10.67H4.05v2.915zM6.258 9.94H3.682a.366.366 0 0 0-.369.364v3.645c0 .2.165.364.369.364h2.576a.367.367 0 0 0 .369-.364v-3.645a.366.366 0 0 0-.369-.364zm4.021 3.644h1.84V10.67h-1.84v2.915zm2.208-3.644H9.91a.366.366 0 0 0-.368.364v3.645c0 .2.165.364.368.364h2.577a.366.366 0 0 0 .368-.364v-3.645a.366.366 0 0 0-.368-.364zm-2.208 9.476h1.84V16.5h-1.84v2.916zm2.208-3.645H9.91a.366.366 0 0 0-.368.364v3.645c0 .201.165.365.368.365h2.577a.366.366 0 0 0 .368-.365v-3.645a.366.366 0 0 0-.368-.364zm3.623-2.187h1.84V10.67h-1.84v2.915zm2.209-3.644h-2.577a.366.366 0 0 0-.369.364v3.645c0 .2.165.364.369.364h2.577a.366.366 0 0 0 .368-.364v-3.645a.366.366 0 0 0-.368-.364zM4.05 19.416h1.84V16.5H4.05v2.916zm2.208-3.645H3.682a.366.366 0 0 0-.369.364v3.645c0 .201.165.365.369.365h2.576a.366.366 0 0 0 .369-.365v-3.645a.366.366 0 0 0-.369-.364zm9.852 3.645h1.84V16.5h-1.84v2.916zm2.209-3.645h-2.577a.366.366 0 0 0-.369.364v3.645c0 .201.165.365.369.365h2.577a.366.366 0 0 0 .368-.365v-3.645a.366.366 0 0 0-.368-.364z" fill="#FEFEFE" mask="url(#b)"/><path d="M1.833 8.067h-.366v-1.1H20.53v1.1H1.833zm.367 13.2h17.597V8.8H2.2v12.467zm0-15.034h17.597v-1.1H2.2v1.1zM3.3 4.4h15.397V.733H3.3V4.4zm17.23 16.867V8.8h.367a.367.367 0 0 0 .367-.367V6.6a.367.367 0 0 0-.367-.367h-.367V4.767a.367.367 0 0 0-.366-.367h-.734V.367A.367.367 0 0 0 19.064 0H2.933a.367.367 0 0 0-.367.367V4.4h-.733a.367.367 0 0 0-.366.367v1.466H1.1a.367.367 0 0 0-.367.367v1.833c0 .203.164.367.367.367h.367v12.467H0V22h22v-.733h-1.47z" fill="#FEFEFE" mask="url(#b)"/><path d="M9.97 2.73a.718.718 0 0 1-.148.258.64.64 0 0 1-.233.163.81.81 0 0 1-.31.056.818.818 0 0 1-.311-.056.648.648 0 0 1-.235-.163.724.724 0 0 1-.15-.258 1.066 1.066 0 0 1-.051-.344c0-.129.017-.243.052-.345a.732.732 0 0 1 .149-.26.64.64 0 0 1 .235-.162.814.814 0 0 1 .31-.057c.116 0 .219.02.31.057.092.037.17.092.234.163a.727.727 0 0 1 .147.259c.035.102.052.216.052.345 0 .128-.017.242-.052.344m.415-.82a1.117 1.117 0 0 0-.243-.378 1.12 1.12 0 0 0-.376-.249 1.27 1.27 0 0 0-.486-.09c-.178 0-.34.03-.488.09a1.107 1.107 0 0 0-.62.627 1.287 1.287 0 0 0-.087.476c0 .17.03.329.086.475a1.107 1.107 0 0 0 .62.628c.148.06.31.09.489.09.178 0 .34-.03.486-.09a1.097 1.097 0 0 0 .619-.628c.057-.146.086-.304.086-.475 0-.172-.029-.33-.086-.476m-3.139-.585v1.026H6.14V1.325H5.7v2.386h.441V2.668h1.105v1.043h.442V1.325zm7.795 2.019V1.325h-.462v2.386h1.458v-.367zm-4.57-2.019v.365h.71v2.02h.438V1.69h.707v-.365zm3.71.353v-.353h-1.457v2.386h1.458v-.355h-1.025v-.675h.807V2.34h-.807v-.662z" fill="#FEFEFE" mask="url(#b)"/></g></svg>