<svg xmlns="http://www.w3.org/2000/svg" width="17" height="17" viewBox="0 0 17 17"><g fill-rule="evenodd"><path d="M4.62 1.545A3.078 3.078 0 0 0 1.544 4.62v7.762a3.078 3.078 0 0 0 3.074 3.074h7.762a3.078 3.078 0 0 0 3.074-3.074V4.619a3.078 3.078 0 0 0-3.074-3.074H4.619zM12.38 17H4.62A4.625 4.625 0 0 1 0 12.38V4.62A4.625 4.625 0 0 1 4.62 0h7.76A4.625 4.625 0 0 1 17 4.62v7.76A4.625 4.625 0 0 1 12.38 17z"/><path d="M8.5 5.5c-1.654 0-3 1.346-3 3 0 1.655 1.346 3 3 3 1.655 0 3-1.345 3-3 0-1.654-1.345-3-3-3m0 7.5A4.505 4.505 0 0 1 4 8.5C4 6.018 6.018 4 8.5 4S13 6.018 13 8.5 10.982 13 8.5 13M13 4c-.551 0-1-.449-1-1 0-.551.449-1 1-1 .551 0 1 .449 1 1 0 .551-.449 1-1 1"/></g></svg>