<svg xmlns="http://www.w3.org/2000/svg" width="16" height="16" viewBox="0 0 16 16"><g fill="#FFF" fill-rule="evenodd"><path d="M4.348 1.455a2.897 2.897 0 0 0-2.893 2.893v7.304a2.897 2.897 0 0 0 2.893 2.893h7.304a2.897 2.897 0 0 0 2.893-2.893V4.348a2.897 2.897 0 0 0-2.893-2.893H4.348zM11.652 16H4.348A4.353 4.353 0 0 1 0 11.652V4.348A4.353 4.353 0 0 1 4.348 0h7.304A4.353 4.353 0 0 1 16 4.348v7.304A4.353 4.353 0 0 1 11.652 16z"/><path d="M8 5.333A2.67 2.67 0 0 0 5.333 8 2.67 2.67 0 0 0 8 10.667 2.67 2.67 0 0 0 10.667 8 2.67 2.67 0 0 0 8 5.333M8 12c-2.206 0-4-1.794-4-4s1.794-4 4-4 4 1.794 4 4-1.794 4-4 4m4-8c-.551 0-1-.449-1-1 0-.551.449-1 1-1 .551 0 1 .449 1 1 0 .551-.449 1-1 1"/></g></svg>