<svg xmlns="http://www.w3.org/2000/svg" xmlns:xlink="http://www.w3.org/1999/xlink" width="121" height="39" viewBox="0 0 121 39"><defs><path id="a" d="M0 .046h62.914V39H0z"/><path id="c" d="M.042.03h3.945v4.955H.042z"/></defs><g fill="none" fill-rule="evenodd"><mask id="b" fill="#fff"><use xlink:href="#a"/></mask><path fill="#000" d="M14.883 25.727c0 .128-.03.256-.054.453h-3.2c-.143-.626-.178-12.724-.04-13.738 1.055-.102 2.12-.011 3.1-.049.105.086.129.1.144.12.016.02.03.046.03.069.009 4.382.016 8.764.02 13.145m25.32.478c.917-2.44 1.97-4.69 2.91-6.986.932-2.281 1.934-4.535 2.917-6.827 1.011-.104 1.998-.015 3.048-.022l5.868 13.816h-3.574l-1.223-2.953h-5.253L43.648 26.2c-1.09.02-2.205.012-3.445.005m-3.466-4.403c-.294-.408-.73-.53-1.154-.658-.896-.27-1.802-.51-2.694-.792-.884-.28-1.682-.705-2.302-1.437-.446-.525-.67-1.143-.74-1.788-.284-2.618 1.43-4.315 3.508-4.746 2.2-.456 4.822.165 6.563 1.713-.49.881-1.133 1.668-1.684 2.508-.288.022-.459-.154-.648-.277-.706-.46-1.45-.823-2.287-.981-.393-.075-.778-.102-1.164 0-.595.158-.628.195-.936.887l.154.485c.588.565 1.358.691 2.08.896.829.236 1.663.45 2.448.81 1.148.528 2.005 1.302 2.297 2.613.376 1.69-.217 3.455-1.703 4.408-1.356.87-2.845 1.085-4.437.831a10.265 10.265 0 0 1-2.404-.668 6.768 6.768 0 0 1-2.387-1.662l1.991-2.345c.23.157.469.301.686.474.912.721 1.958 1.143 3.1 1.209.6.034 1.277.016 1.715-.583.118-.302.119-.61-.002-.897m-9.674 1.051c.354.553.72 1.1 1.087 1.644.35.519.706 1.032 1.1 1.606-.697.183-1.344.087-1.981.104-.63.017-1.26.003-1.932.003l-3.072-4.564c-.568-.102-1.107-.085-1.709-.029v4.44c-.606.183-2.141.22-3.248.097-.019-.018-.041-.034-.057-.054-.015-.02-.033-.045-.033-.068-.012-4.327-.021-8.655-.03-12.982 0-.181.018-.362.028-.57.338-.125.602-.08.86-.08 1.788-.005 3.576.004 5.363-.006a6.829 6.829 0 0 1 2.445.447c1.655.616 2.683 2.013 2.722 3.772.014.625.053 1.25-.138 1.876-.357 1.171-1.017 2.058-2.123 2.595-.092.045-.173.114-.294.196.213.615.679 1.053 1.012 1.573m34.583-10.157a19.013 19.013 0 0 0-4.852-7.107C53.507 2.395 49.107.35 44.254.12a.216.216 0 0 1-.042-.075H18.79a.306.306 0 0 1-.058.065C8.92.434.893 8.178.071 17.9a.318.318 0 0 1-.07.06v1.492L0 19.55l.001.097v1.326a.37.37 0 0 1 .053.03C.802 31.03 9.204 39 19.372 39H43.34c6.845 0 12.89-3.613 16.338-9.034a17.612 17.612 0 0 0 2.587-5.68c.244-.966.481-1.936.551-2.931.08-1.126.15-2.245.04-3.387-.174-1.82-.548-3.58-1.211-5.272" mask="url(#b)"/><g transform="translate(117 20)"><mask id="d" fill="#fff"><use xlink:href="#c"/></mask><path fill="#000" d="M3.847 2.984c-.405-.52-.981-.743-1.62-.873-.417-.085-.871-.12-1.126-.533-.116-.362.041-.609.391-.802h.993c.25.136.513.28.76.417.326 0 .31-.406.602-.415V.631C3.52.45 3.211.22 2.837.136 1.676-.125.335.014.188 1.442l.187.611c.288.362.638.528 1.039.656.27.086.549.092.814.18.394.132.767.275.863.735-.06.227-.219.379-.394.511l-.576.133c-.649-.047-1.18-.31-1.626-.684-.268.126-.335.337-.452.525.534.617 1.262.8 1.93.876.822-.02 1.414-.296 1.875-.824.18-.331.193-.785 0-1.177" mask="url(#d)"/></g><path fill="#000" d="M85.216 20.051l-1.732 2.42-1.724-2.452h-.681c-.127 1.146-.093 4.424.05 4.976.196-.03.409.072.65-.12v-1.008c0-.38-.01-.76.004-1.14.012-.333-.058-.676.07-1.057.67.625.936 1.468 1.65 2.018.65-.582.98-1.354 1.662-2.068v3.32c.324.073.575.087.835-.001v-4.864a1.256 1.256 0 0 0-.784-.024m6.627 2.304c-.028-.486-.048-.98.011-1.469.929-.282 1.545-.168 2.137.421v.538c-.293.551-.728.747-2.148.51m2.947-.75c-.037-.992-.592-1.435-1.35-1.537-.784-.105-1.585-.075-2.37-.001-.118 1.476-.08 4.38.063 4.92.224-.021.466.092.726-.146v-1.617c.357-.055.655-.067.96.001.527.516.827 1.225 1.353 1.762.256-.01.526.07.828-.074l-1.236-1.788c.856-.733.856-.733 1.026-1.52M115.944 18c.046-.287.12-.534-.053-.768-.977-.072-1.942.06-2.882-.075-.119-.716-.119-.716.048-1.302h2.56c.022-.156.043-.254.046-.353.004-.127.018-.258-.145-.458h-2.552v-1.288c1.019-.086 2.009.036 2.976-.07.03-.262.1-.465-.056-.686h-3.87c-.03 1.687-.01 3.321-.008 5h3.936zm-20.025-.09c.101-.23.13-.46-.045-.693-.979-.106-1.953.056-2.934-.095-.068-.438-.083-.827.019-1.24.882-.055 1.745.067 2.581-.055.154-.242.155-.452.03-.688-.406-.173-.845-.06-1.27-.078-.451-.019-.903-.004-1.379-.004-.034-.428-.07-.82.044-1.28.508 0 .99.007 1.472-.003.481-.01.968.048 1.426-.039.157-.253.162-.46.006-.662-1.28-.125-3.286-.084-3.869.08v4.726c.61.146 3.096.164 3.919.031m-20.163-4.023c.718-.165 1.502-.13 2.019.092.27.352.3.72.022 1.149-.537.253-1.108.29-2.033.138-.127-.615-.128-.738-.008-1.379m-.09 4c.053-.52-.065-1.077.043-1.553.121-.142.22-.138.314-.14.24-.003.48 0 .71 0 .664.512.872 1.31 1.46 1.782.26.008.516.069.807-.063l-1.287-1.842c.225-.167.426-.297.606-.455.495-.434.493-1.024.363-1.597-.122-.535-.54-.863-1.033-.936-.874-.131-1.758-.082-2.649-.02v4.917c.238-.002.443.086.665-.093m5.286-3.169c.403-.856 1.24-1.141 2.362-.792 1.166.88 1.06 1.994.485 2.742-.505.658-1.413.797-2.152.354a1.772 1.772 0 0 1-.695-2.304m4.037.83c0-1.526-.983-2.528-2.472-2.548-1.186-.016-2.511.856-2.516 2.462-.005 1.486 1.027 2.508 2.492 2.537 1.55.031 2.637-1.327 2.496-2.45"/><path fill="#000" d="M107.893 13.93c1.434-.4 2.286-.13 3.044.952.199.96.055 1.778-1.255 2.243a7.25 7.25 0 0 1-1.73.025c-.158-.555-.188-2.367-.06-3.22m1.643 3.974c1.293-.223 2.13-.796 2.393-1.87.328-1.34-.48-2.568-2.006-2.911-.933-.21-1.933-.1-2.922-.039V18c.927-.034 1.725.044 2.535-.096m-12.637-4.036c.77-.155 1.545-.17 2.306.14 1.234.948.98 1.676.635 2.344-.34.66-1.578 1.118-2.941.753v-3.237zm1.687 4.034c1.594-.273 2.374-1.084 2.414-2.507.027-.929-.737-2.007-1.906-2.261-1.015-.22-2.04-.093-3.093-.13v4.99c.927-.007 1.75.052 2.585-.092zm-21.088 6.394c-1.252-.343-1.893-1.075-1.709-2.02.177-.91.683-1.545 1.7-1.535.9.01 1.572.59 1.73 1.521.153.912-.51 1.696-1.721 2.034M77.463 20c-1.433-.013-2.602 1.323-2.45 2.498-.09 1.488 1.094 2.497 2.446 2.502 1.372.005 2.55-.909 2.541-2.592-.007-1.462-1.147-2.395-2.537-2.408m36.445 4.254c-.043-.487-.059-.887.023-1.37h2.663c.08-.284.103-.479-.035-.703-.861-.104-1.76.063-2.69-.108.05-.453-.09-.877.13-1.343h2.902c.121-.252.104-.446.022-.726-.694 0-1.347-.005-2 .002-.643.007-1.29-.031-1.923.027V25h3.933c.07-.259.126-.474-.05-.695-.99-.053-1.99.047-2.975-.051m-26.003-.02c.014-.49-.05-.906.047-1.344.92-.097 1.812.04 2.677-.084.052-.242.088-.437-.05-.66l-2.642-.05c-.035-.503-.103-.919.055-1.358h2.91c.087-.259.167-.484-.034-.738l-3.494.001c-.107 0-.214.015-.317.022-.094.793-.064 4.52.037 4.926 1.575.09 3.747.056 3.876-.068.027-.19.078-.386-.08-.647h-2.985zm15.562-9.961c.418.534.587 1.119.853 1.732-.541-.023-1.02.047-1.537-.074.094-.619.421-1.096.684-1.658m1.178 2.454l.595 1.256c.154 0 .274-.006.394.002.123.008.246.034.366-.136-.688-1.614-1.44-3.232-2.17-4.806-.286-.043-.48-.089-.682.051-.353.792-.718 1.601-1.073 2.414-.35.8-.778 1.57-1.075 2.471.314 0 .55.089.815-.098l.553-1.168c.8-.019 1.554-.038 2.277.014m.127 6.296c.065-.716.463-1.218.72-1.867.367.604.588 1.172.777 1.799-.492.151-.964.067-1.497.068zm.39-3.023L103 24.952c.31.058.549.072.79-.005.237-.355.28-.813.603-1.155.738-.02 1.492-.065 2.263.03l.574 1.175c.256-.032.498.054.77-.065-.667-1.677-1.416-3.307-2.155-4.932h-.683zm-34.215-6.182c.576-.074 1.1-.04 1.6-.028.302.133.477.35.62.578-.02.621-.02.621-.568 1.08-.538.051-1.08.31-1.65-.054-.055-.494-.045-1.011-.002-1.576m-.037 4.022v-1.465c.658-.061 1.216-.017 1.757-.165.657-.18 1.189-.492 1.291-1.177.11-.727.053-1.426-.783-1.802-.118-.053-.228-.124-.327-.178a23.814 23.814 0 0 0-2.764-.023c-.13.958-.102 4.332.033 4.895.251.102.5.123.793-.085m47.627-.596c-.811.15-1.421-.22-1.992-.643-.244.164-.435.319-.545.597.935.682 1.914 1.034 3.077.633.583-.202.907-.653.922-1.237.016-.577-.258-.984-.828-1.21-.19-.075-.4-.11-.599-.168-.3-.085-.595-.18-.896-.26-.456-.121-.653-.382-.535-.871.273-.215.572-.296.894-.373.243.067.502.118.74.211.236.092.452.226.675.34.192-.169.352-.326.357-.583-.225-.33-.608-.423-.983-.533-1.38-.404-2.245.023-2.615 1.294.166.834.38.992 1.367 1.327.245.084.514.103.763.178.322.097.663.183.817.512-.065.48-.065.48-.619.786m-31.672-1.76c-.12-.522-.07-1.041-.04-1.554.75-.23 1.467-.194 2.068.097.297.357.255.74.095 1.166-.642.393-1.34.502-2.123.291M90 14.56c-.022-.769-.522-1.386-1.32-1.485-.862-.106-1.737-.088-2.594-.018-.141 1.18-.097 4.423.06 4.92.205.012.416.083.667-.105v-1.496c.697-.057 1.284.002 1.857-.16.83-.234 1.354-.864 1.33-1.656m7.863 6.317c1.24-.268 1.955.028 2.617.485l.52-.501c-.938-.89-2.428-1.11-3.536-.566-1.22.6-1.73 1.7-1.33 2.935.362 1.117 1.474 1.816 2.737 1.768.835-.032 2.052-.596 2.125-.994-.112-.19-.252-.363-.53-.415l-.857.533c-1.7.263-2.316-.118-2.765-1.687.189-.733.473-1.404 1.019-1.558"/><path fill="#000" d="M73.025 20.765c.575.009.92.405 1.41.606l.565-.46c-1.23-1.183-2.941-1.196-4.239-.143-.972.79-1.077 2.657.06 3.586 1.195.976 3.29.826 4.144-.312-.188-.127-.28-.35-.56-.428-.476.317-.96.652-1.387.654-1.52-.079-2.041-.796-2.151-1.866.106-.43.225-.885.614-1.23.428-.38.97-.415 1.544-.407M110 24.209c-.209-.271-.138-.531-.14-.78-.007-1.063-.005-2.127-.013-3.19 0-.067-.054-.133-.08-.191a1.395 1.395 0 0 0-.767.012V25h1.958l1.987-.007c.057-.28.102-.474-.035-.69-.968-.119-1.966.054-2.91-.094m-8.912-4.163c-.144 1.034-.102 4.378.059 4.925.268.03.536.057.853-.03v-4.89c-.342-.065-.63-.07-.912-.005m-10.096-7.015c-.413-.02-.714-.094-.992.096v4.77c.301.143.596.12 1 .035-.003-1.621.006-3.249-.008-4.9M24.488 16.02c-1.145-.038-2.293-.01-3.488-.01v2.984c1.02 0 1.974.02 2.925-.01.355-.012.708-.107 1.059-.208a1.406 1.406 0 0 0 .996-1.584c-.114-.635-.718-1.148-1.492-1.173M49 19.851c-.396-.936-.894-1.838-1.48-2.851L46 19.907c1.121.143 2.377.119 3-.056"/></g></svg>