<svg width="40" height="50" viewBox="0 0 40 50" xmlns="http://www.w3.org/2000/svg" xmlns:xlink="http://www.w3.org/1999/xlink"><title>Group 2</title><defs><filter x="-13%" y="-1.6%" width="125.9%" height="104.6%" filterUnits="objectBoundingBox" id="a"><feOffset dy="2" in="SourceAlpha" result="shadowOffsetOuter1"/><feGaussianBlur stdDeviation="2" in="shadowOffsetOuter1" result="shadowBlurOuter1"/><feColorMatrix values="0 0 0 0 0 0 0 0 0 0 0 0 0 0 0 0 0 0 0.5 0" in="shadowBlurOuter1" result="shadowMatrixOuter1"/><feMerge><feMergeNode in="shadowMatrixOuter1"/><feMergeNode in="SourceGraphic"/></feMerge></filter><path id="b" d="M0 0h32.122v32.127H0z"/></defs><g filter="url(#a)" transform="translate(-7 -193)" fill="none" fill-rule="evenodd" opacity=".9"><text font-family="Roboto-Bold, Roboto" font-size="12" font-weight="bold" letter-spacing=".038" fill="#FFF" transform="translate(10 193)"><tspan x="9" y="11">T</tspan></text><g transform="rotate(90 -81 124)"><mask id="c" fill="#fff"><use xlink:href="#b"/></mask><path d="M6.31 21.673a.315.315 0 0 0 .024-.07.831.831 0 0 0 .032-.132.8.8 0 0 0 .02-.167.81.81 0 0 0-.017-.13.823.823 0 0 0-.026-.12.327.327 0 0 0-.032-.094L1.739 10.802l3.849-9.136h23.926L25.8 10.488a.313.313 0 0 0-.02.068.829.829 0 0 0-.026.14.833.833 0 0 0-.015.092.309.309 0 0 0 .001.065.83.83 0 0 0 .018.1.804.804 0 0 0 .028.13.306.306 0 0 0 .022.07l4.57 10.154-4.337 9.154H2.15l4.16-8.788zm25.796-.495a.824.824 0 0 0-.028-.13.321.321 0 0 0-.03-.086l-4.572-10.16 4.06-9.644A.83.83 0 0 0 30.77 0H5.035a.83.83 0 0 0-.768.51L.065 10.488a.306.306 0 0 0-.02.068.83.83 0 0 0-.026.134.814.814 0 0 0-.016.089.304.304 0 0 0-.001.074c.004.033.01.067.018.1a.805.805 0 0 0 .028.13.307.307 0 0 0 .022.07l4.573 10.154-4.56 9.63a.829.829 0 0 0 .047.801.83.83 0 0 0 .703.389h25.736a.837.837 0 0 0 .75-.476l4.725-9.977a.315.315 0 0 0 .024-.07.822.822 0 0 0 .033-.133.8.8 0 0 0 .02-.16.807.807 0 0 0-.015-.133z" fill="#FFF" mask="url(#c)"/></g><path d="M36.366 218.228a.83.83 0 0 0 .83-.83v-4.28l2.003.949v10.398l-2.13-1.008a.83.83 0 0 0-.712 1.5l2.842 1.345v2.681l-5.665-2.685v-14.919l2.002.95v5.069c0 .458.373.83.83.83zm-5.448-.901v-5.543l.956-.43v5.52l-.956.453zm-7.848-2.01l.956-.43v5.459l-.956.454v-5.483zm-1.66 5.482l-5.665-2.686v-5.493l5.665 2.685v5.494zm-3.535 5.726a.82.82 0 0 0 .634.031.825.825 0 0 0 .47-.426.826.826 0 0 0 .032-.635.825.825 0 0 0-.426-.472l-2.84-1.343v-3.729l5.665 2.685v7.588l-5.665-2.687v-2.02l2.13 1.008zm3.535 7.63a.831.831 0 0 0 1.66 0v-2.081l8.804-3.966v1.334a.831.831 0 0 0 1.66 0v-1.306l6.14 2.91a.825.825 0 0 0 .798-.049.826.826 0 0 0 .386-.702v-16.757a.835.835 0 0 0-.474-.748l-3.669-1.742-3.181-1.507v-1.569a.831.831 0 0 0-.83-.83.831.831 0 0 0-.83.83v1.558l-3.7 1.666a.834.834 0 0 0-.407 1.094.833.833 0 0 0 1.091.42l.4-.18v6.115c.001.101.02.2.058.294.007.03.02.06.037.087.014.023.03.046.048.068a.633.633 0 0 0 .248.24.781.781 0 0 0 .153.082c.05.016.101.028.153.034a.828.828 0 0 0 .133.02h.01c.01 0 .02 0 .03-.002a.834.834 0 0 0 .144-.027.856.856 0 0 0 .09-.021.304.304 0 0 0 .083-.026l1.43-.682v7.574l-6.19 2.786v-4.343a.831.831 0 0 0-.829-.83.831.831 0 0 0-.83.83v5.09l-.956.431v-7.614l2.142-1.016a.835.835 0 0 0 .232-.169.306.306 0 0 0 .043-.05c.044-.063.085-.13.121-.197a.309.309 0 0 0 .025-.057.859.859 0 0 0 .029-.132.808.808 0 0 0 .024-.145v-6.73l.56-.252a.834.834 0 0 0 .407-1.094.833.833 0 0 0-1.09-.42l-2.493 1.121v-.81a.831.831 0 0 0-.83-.83.831.831 0 0 0-.83.83v.783l-6.14-2.91a.825.825 0 0 0-.798.048.826.826 0 0 0-.386.702v16.758a.835.835 0 0 0 .474.747l6.85 3.25v2.092z" fill="#FFF"/></g></svg>