<svg xmlns="http://www.w3.org/2000/svg" xmlns:xlink="http://www.w3.org/1999/xlink" width="45" height="55" viewBox="0 0 45 55"><defs><path id="a" d="M0 .034h44.863v54.18H0z"/></defs><g fill="none" fill-rule="evenodd"><mask id="b" fill="#fff"><use xlink:href="#a"/></mask><path fill="#231F20" d="M42.627 46.206l-11.973 4.723V17.893l11.973-4.723v33.036zM2.237 17.893l11.972-4.723v33.036L2.236 50.929V17.893zM22.708 2.27c3.646 0 6.612 3 6.612 6.69 0 2.86-4.153 10.579-6.612 14.795-2.459-4.215-6.611-11.934-6.611-14.795 0-3.69 2.966-6.69 6.61-6.69zm-6.264 14.513c2.113 4.455 4.827 8.95 5.31 9.74l.954 1.564.954-1.564c.44-.722 2.748-4.541 4.755-8.595v33l-11.973-4.722V16.783zm13.091-.852l-.14-.056c1.228-2.696 2.161-5.283 2.161-6.915 0-4.922-3.97-8.926-8.848-8.926-4.879 0-8.847 4.004-8.847 8.926 0 .523.097 1.146.268 1.838L0 16.372v37.842l15.327-6.046 14.21 5.605 15.327-6.046V9.885L29.536 15.93z" mask="url(#b)"/><path fill="#231F20" d="M20.264 9A2.738 2.738 0 0 1 23 6.264 2.739 2.739 0 0 1 25.736 9 2.739 2.739 0 0 1 23 11.736 2.738 2.738 0 0 1 20.264 9M28 9c0-2.757-2.243-5-5-5s-5 2.243-5 5 2.243 5 5 5 5-2.243 5-5"/></g></svg>