<svg xmlns="http://www.w3.org/2000/svg" xmlns:xlink="http://www.w3.org/1999/xlink" width="45" height="45" viewBox="0 0 45 45"><defs><path id="a" d="M0 0h24v31H0z"/></defs><g fill="none" fill-rule="evenodd"><path fill="#0BBBEF" d="M0 0h45v45H0z"/><path fill="#FFF" d="M23.923 18.941h-1.846v-1.823h1.846c.51 0 .923.409.923.911a.919.919 0 0 1-.923.912m0-3.647h-2.77a.917.917 0 0 0-.922.912V23.5c0 .504.413.912.923.912s.923-.408.923-.912v-2.735h1.846c1.527 0 2.77-1.227 2.77-2.736 0-1.508-1.243-2.735-2.77-2.735"/><path fill="#FFF" d="M23 26.235c-3.563 0-6.462-2.863-6.462-6.382 0-3.52 2.9-6.382 6.462-6.382 3.563 0 6.462 2.863 6.462 6.382 0 3.52-2.9 6.382-6.462 6.382m0-14.588c-4.58 0-8.308 3.681-8.308 8.206 0 4.525 3.727 8.206 8.308 8.206 4.58 0 8.308-3.681 8.308-8.206 0-4.525-3.727-8.206-8.308-8.206"/><g transform="translate(11 8)"><mask id="b" fill="#fff"><use xlink:href="#a"/></mask><path fill="#FFF" d="M20.127 17.79L12 28.566l-8.13-10.78a9.791 9.791 0 0 1-2.024-5.98c0-5.508 4.555-9.99 10.154-9.99s10.154 4.482 10.154 9.99c0 2.174-.7 4.241-2.027 5.983M12 0C5.383 0 0 5.296 0 11.807c0 2.569.828 5.013 2.39 7.065l8.869 11.76a.928.928 0 0 0 1.483 0l8.865-11.757A11.575 11.575 0 0 0 24 11.807C24 5.297 18.617 0 12 0" mask="url(#b)"/></g></g></svg>