<svg xmlns="http://www.w3.org/2000/svg" width="52" height="52" viewBox="0 0 52 52"><g fill="none" fill-rule="evenodd"><path fill="#000" d="M52 26c0 14.359-11.641 26-26 26S0 40.359 0 26 11.641 0 26 0s26 11.641 26 26"/><path fill="#FFF" d="M26.927 21.584h-1.854V19.73h1.854a.928.928 0 0 1 0 1.854m0-3.707h-2.781a.928.928 0 0 0-.927.927v7.415a.928.928 0 0 0 1.854 0v-2.781h1.854a2.784 2.784 0 0 0 2.78-2.781 2.783 2.783 0 0 0-2.78-2.78"/><path fill="#FFF" d="M26 29a6.496 6.496 0 0 1-6.489-6.488A6.497 6.497 0 0 1 26 16.022a6.497 6.497 0 0 1 6.489 6.49A6.496 6.496 0 0 1 26 29m0-14.831c-4.6 0-8.343 3.742-8.343 8.343 0 4.599 3.743 8.342 8.343 8.342s8.343-3.743 8.343-8.342c0-4.601-3.743-8.343-8.343-8.343"/><path fill="#FFF" d="M34.161 28.617l-8.16 11.001-8.165-11.004a10.098 10.098 0 0 1-2.032-6.102c0-5.624 4.573-10.198 10.196-10.198 5.622 0 10.196 4.574 10.196 10.198 0 2.217-.702 4.328-2.035 6.105m-8.16-18.156c-6.646 0-12.05 5.406-12.05 12.051 0 2.622.83 5.116 2.4 7.21l8.904 12.004a.926.926 0 0 0 1.49 0l8.902-12a11.936 11.936 0 0 0 2.403-7.214c0-6.645-5.406-12.05-12.05-12.05"/></g></svg>