<svg width="16" height="20" viewBox="0 0 16 20" xmlns="http://www.w3.org/2000/svg" xmlns:xlink="http://www.w3.org/1999/xlink"><title>parking</title><defs><path id="a" d="M0 0h16v20H0z"/></defs><g fill="none" fill-rule="evenodd"><path d="M8.615 7.059h-1.23V5.882h1.23c.34 0 .616.264.616.589a.603.603 0 0 1-.616.588m0-2.353H6.77a.602.602 0 0 0-.615.588V10c0 .325.275.588.615.588.34 0 .616-.263.616-.588V8.235h1.23c1.018 0 1.847-.791 1.847-1.764s-.829-1.765-1.847-1.765" fill="#FFF"/><path d="M8 11.765c-2.375 0-4.308-1.847-4.308-4.118C3.692 5.377 5.625 3.53 8 3.53s4.308 1.848 4.308 4.118c0 2.27-1.933 4.118-4.308 4.118m0-9.412c-3.054 0-5.538 2.375-5.538 5.294 0 2.92 2.484 5.294 5.538 5.294 3.054 0 5.538-2.375 5.538-5.294 0-2.92-2.484-5.294-5.538-5.294" fill="#FFF"/><mask id="b" fill="#fff"><use xlink:href="#a"/></mask><path d="M13.418 11.477L8 18.431l-5.42-6.956a6.186 6.186 0 0 1-1.35-3.858c0-3.554 3.037-6.445 6.77-6.445 3.733 0 6.77 2.891 6.77 6.445a6.188 6.188 0 0 1-1.352 3.86M8 0C3.589 0 0 3.417 0 7.617a7.31 7.31 0 0 0 1.594 4.558l5.912 7.588c.116.15.3.237.494.237a.626.626 0 0 0 .494-.237l5.91-7.585A7.313 7.313 0 0 0 16 7.618C16 3.417 12.411 0 8 0" fill="#FFF" mask="url(#b)"/></g></svg>