<svg width="22" height="22" viewBox="0 0 22 22" xmlns="http://www.w3.org/2000/svg" xmlns:xlink="http://www.w3.org/1999/xlink"><title>resto</title><defs><path id="a" d="M0 .037h4.389v6.967H0z"/><path id="c" d="M0 .023h22v2.933H0z"/><path id="e" d="M0 22h22V0H0z"/></defs><g fill="none" fill-rule="evenodd"><path d="M4.4 19.8h8.73c.425 0 .84-.15 1.167-.422l4.467-3.689a.712.712 0 0 0 .185-.99.694.694 0 0 0-.973-.163l-4.196 2.996a.371.371 0 0 1-.213.068h-4.4c-.607 0-1.1-.494-1.1-1.1 0-.606.493-1.1 1.1-1.1h2.383a.55.55 0 0 0 .55-.55.56.56 0 0 0-.568-.55H6.754c-.25.002-.498.093-.693.256L4.4 15.939V19.8zm8.73.733H4.034a.366.366 0 0 1-.366-.366v-4.4c0-.11.048-.212.132-.282l1.793-1.493a1.84 1.84 0 0 1 1.159-.425h4.77a1.288 1.288 0 0 1 1.312 1.283c0 .708-.575 1.283-1.283 1.283H9.167a.367.367 0 0 0 0 .734h4.282l4.1-2.927c.31-.223.69-.311 1.064-.249a1.419 1.419 0 0 1 .996.678 1.44 1.44 0 0 1-.4 1.901l-4.444 3.673c-.459.38-1.039.59-1.634.59z" fill="#FFF"/><g transform="translate(0 14.996)"><mask id="b" fill="#fff"><use xlink:href="#a"/></mask><path d="M4.022 7.004H0V6.27h3.656V.77H0V.037h4.022c.203 0 .367.164.367.367v6.233a.367.367 0 0 1-.367.367" fill="#FFF" mask="url(#b)"/></g><path d="M1.833 19.067a.367.367 0 1 0 .001.734.367.367 0 0 0 0-.734m0 1.466a1.1 1.1 0 1 1 .001-2.201 1.1 1.1 0 0 1-.001 2.201" fill="#FFF"/><g transform="translate(0 11.344)"><mask id="d" fill="#fff"><use xlink:href="#c"/></mask><path d="M.77.756c.17.836.911 1.467 1.797 1.467h16.866c.886 0 1.627-.631 1.797-1.467H.77zm18.663 2.2H2.567A2.57 2.57 0 0 1 0 .39C0 .187.164.023.367.023h21.266c.203 0 .367.164.367.367a2.57 2.57 0 0 1-2.567 2.566z" fill="#FFF" mask="url(#d)"/></g><path d="M2.2 11.367h17.6c0-4.852-3.948-8.8-8.8-8.8s-8.8 3.948-8.8 8.8m17.967.733H1.833a.367.367 0 0 1-.366-.367v-.366c0-5.257 4.276-9.534 9.533-9.534s9.533 4.277 9.533 9.534v.366a.366.366 0 0 1-.366.367" fill="#FFF"/><path d="M4.874 7.338l-.611-.405c.212-.32.45-.629.706-.917l.548.487c-.233.262-.45.543-.643.835m1.108-1.314L5.48 5.49A8.038 8.038 0 0 1 11 3.3v.733a7.306 7.306 0 0 0-5.018 1.991" fill="#FFF"/><mask id="f" fill="#fff"><use xlink:href="#e"/></mask><path fill="#FFF" mask="url(#f)" d="M9.9.733h2.2V0H9.9z"/><path fill="#FFF" mask="url(#f)" d="M10.633 2.2h.734V.367h-.734z"/></g></svg>