<svg xmlns="http://www.w3.org/2000/svg" width="35" height="35" viewBox="0 0 35 35"><g fill="#FFF" fill-rule="evenodd"><path d="M0 2h2V0H0zm5 0h2V0H5zm6 0h2V0h-2zm5 0h2V0h-2zm6 0h2V0h-2zm5 0h2V0h-2zm6 0h2V0h-2zm-6 33h2v-2h-2zM0 7h2V5H0zm33 22h2v-2h-2zm0-5h2v-2h-2zm0-6h2v-2h-2zm0-5h2v-2h-2zm0-6h2V5h-2zm0 28h2v-2h-2zM23.003 6.285H27.1l-5.1 5.1L23.615 13l5.1-5.1v4.096H31V4h-7.997zM19 14.5l1.5-1.5 1.5 1.5-1.5 1.5z"/><path d="M0 10v25h25V16.522h-2.174v7.158l-5.502-5.502-4.483 5.3-4.199-4.199-6.468 7.394v-14.5h16.304V10H0zm17.459 11.387l5.367 5.367v6.072H7.778l9.68-11.439zM2.174 29.973l6.575-7.513 2.683 2.683-6.5 7.683H2.174v-2.853z"/><path d="M5 16h2v-2H5z"/></g></svg>