<svg xmlns="http://www.w3.org/2000/svg" xmlns:xlink="http://www.w3.org/1999/xlink" width="52" height="52" viewBox="0 0 52 52"><defs><path id="a" d="M0 0h52v52H0z"/></defs><g fill="none" fill-rule="evenodd"><mask id="b" fill="#fff"><use xlink:href="#a"/></mask><path fill="#000" d="M52 26c0 14.36-11.64 26-26 26S0 40.36 0 26C0 11.641 11.64 0 26 0s26 11.641 26 26" mask="url(#b)"/><path fill="#FFF" d="M14.588 35.59a3.751 3.751 0 0 1-1.028-2.82l.307-5.187h23.74l.305 5.188a3.787 3.787 0 0 1-3.781 4.01H17.343a3.749 3.749 0 0 1-2.755-1.19zm7.95-25.319h6.399a8.12 8.12 0 0 1 8.035 7.033h-22.47a8.12 8.12 0 0 1 8.036-7.033zm-8.13 8.115h22.658l.477 8.115H13.93l.477-8.115zm19.668 19.476h.054a4.87 4.87 0 0 0 4.862-5.155l-.875-14.862a9.205 9.205 0 0 0-9.18-8.656h-6.4a9.206 9.206 0 0 0-9.18 8.656l-.874 14.862a4.869 4.869 0 0 0 4.86 5.155h.054l-3.945 3.946a.54.54 0 1 0 .752.778l.013-.014 4.71-4.71h13.619l4.71 4.71a.542.542 0 0 0 .766-.764l-3.946-3.946z"/><path fill="#FFF" d="M33.311 29.747a1.623 1.623 0 1 1 0 3.247 1.623 1.623 0 0 1 0-3.247m0 4.328a2.705 2.705 0 1 0 0-5.41 2.705 2.705 0 0 0 0 5.41M19.786 15.14h11.902a.54.54 0 1 0 0-1.082H19.786a.54.54 0 1 0 0 1.082m2.704 17.313h6.493a.54.54 0 1 0 0-1.083H22.49a.541.541 0 0 0 0 1.082m4.87 1.083h-3.246a.54.54 0 1 0 0 1.082h3.246a.54.54 0 1 0 0-1.082m-9.197-.542a1.623 1.623 0 1 1 .001-3.246 1.623 1.623 0 0 1 0 3.246m2.704-1.623a2.705 2.705 0 1 0-5.41 0 2.705 2.705 0 0 0 5.41 0"/></g></svg>