<svg xmlns="http://www.w3.org/2000/svg" xmlns:xlink="http://www.w3.org/1999/xlink" width="52" height="52" viewBox="0 0 52 52"><defs><path id="a" d="M0 0h52v52H0z"/></defs><g fill="none" fill-rule="evenodd"><mask id="b" fill="#fff"><use xlink:href="#a"/></mask><path fill="#000" d="M52 26c0 14.36-11.641 26-26 26C11.64 52 0 40.36 0 26 0 11.641 11.64 0 26 0c14.359 0 26 11.641 26 26" mask="url(#b)"/><path fill="#FFF" d="M33.307 21.552h-1.215a.57.57 0 0 0 0 1.14h1.215a.57.57 0 0 0 0-1.14m-.742 5.444l-.304 1.216a.038.038 0 0 1-.037.03H19.795a.039.039 0 0 1-.037-.029l-.304-1.217c0-.005-.004-.018.007-.032.011-.015.025-.015.03-.015H32.53c.005 0 .018 0 .03.015a.032.032 0 0 1 .006.032m-.036-1.187H19.491c-.365 0-.703.165-.929.453a1.167 1.167 0 0 0-.214 1.01l.304 1.217c.132.526.601.893 1.143.893h12.43c.541 0 1.011-.367 1.143-.893l.303-1.217a1.173 1.173 0 0 0-1.142-1.463"/><path fill="#FFF" d="M39.959 20.905c0-.356.29-.646.646-.646h.609a.646.646 0 0 1 0 1.292h-.61a.647.647 0 0 1-.645-.646zm.685 5.11v6.445c0 .691-.563 1.255-1.254 1.255h-5.512V32.46c0-.65-.528-1.178-1.178-1.178H19.32c-.65 0-1.177.528-1.177 1.178v1.255H12.63a1.256 1.256 0 0 1-1.254-1.255v-6.445c0-.42.145-.834.408-1.163l1.729-2.16h16.145a.571.571 0 0 0 0-1.14H14.054l1.718-4.724a1.255 1.255 0 0 1 1.178-.826h18.12c.527 0 1 .332 1.179.826l1.718 4.723H35.74a.57.57 0 0 0 0 1.141h2.767l1.728 2.16c.264.33.409.742.409 1.163zm-.04 11.348h-1.823a.038.038 0 0 1-.038-.038v-2.47h.647c.459 0 .888-.13 1.254-.356v2.826a.038.038 0 0 1-.04.038zm-7.867-3.648H19.282V32.46a.04.04 0 0 1 .038-.038H32.7c.02 0 .037.017.037.038v1.255zm-19.46 3.61a.037.037 0 0 1-.038.038h-1.824a.038.038 0 0 1-.038-.038V34.5c.365.225.795.355 1.254.355h.646v2.471zm-1.862-15.774h-.608a.647.647 0 0 1 0-1.292h.608a.647.647 0 0 1 0 1.292zm11.31-8.07a.646.646 0 0 1 .633-.519h5.304c.307 0 .573.217.634.52l.275 1.38h-7.123l.277-1.38zm18.489 9.211c.985 0 1.786-.802 1.786-1.787 0-.984-.801-1.786-1.786-1.786h-.61a1.79 1.79 0 0 0-1.762 1.502l-1.521-4.183a2.4 2.4 0 0 0-2.251-1.576h-4.336l-.32-1.604a1.793 1.793 0 0 0-1.752-1.437h-5.304c-.848 0-1.585.605-1.752 1.437l-.32 1.604H16.95a2.402 2.402 0 0 0-2.251 1.576l-1.52 4.183a1.79 1.79 0 0 0-1.764-1.502h-.608c-.986 0-1.786.802-1.786 1.786 0 .985.8 1.787 1.786 1.787h.608c.28 0 .547-.065.783-.182l-1.303 1.63a3.02 3.02 0 0 0-.66 1.875v11.31c0 .65.53 1.18 1.18 1.18h1.824c.65 0 1.179-.53 1.179-1.18v-2.47h23.185v2.47a1.18 1.18 0 0 0 1.178 1.18h1.824c.65 0 1.179-.53 1.179-1.18v-11.31a3.02 3.02 0 0 0-.658-1.876l-1.304-1.629c.237.117.503.182.783.182h.609z"/><path fill="#FFF" d="M15.063 30.066a1.18 1.18 0 1 0 1.179 1.179 1.18 1.18 0 0 0-1.179-1.18m21.894.001a1.18 1.18 0 0 0-1.18 1.179 1.18 1.18 0 0 0 2.358 0 1.18 1.18 0 0 0-1.178-1.18M14.76 28.241a.95.95 0 1 1 0-1.9.95.95 0 0 1 0 1.9m0-3.04a2.094 2.094 0 0 0-2.091 2.09c0 1.152.939 2.091 2.09 2.091a2.095 2.095 0 0 0 2.092-2.09A2.094 2.094 0 0 0 14.76 25.2m22.5 3.041a.95.95 0 1 1 .95-.95.95.95 0 0 1-.95.95m0-3.04a2.094 2.094 0 0 0-2.09 2.09c0 1.152.939 2.091 2.09 2.091a2.095 2.095 0 0 0 2.092-2.09A2.094 2.094 0 0 0 37.26 25.2"/></g></svg>