<svg width="45" height="47" viewBox="0 0 45 47" xmlns="http://www.w3.org/2000/svg" xmlns:xlink="http://www.w3.org/1999/xlink"><title>Group</title><defs><filter x="-13%" y="-1.6%" width="125.9%" height="104.6%" filterUnits="objectBoundingBox" id="a"><feOffset dy="2" in="SourceAlpha" result="shadowOffsetOuter1"/><feGaussianBlur stdDeviation="2" in="shadowOffsetOuter1" result="shadowBlurOuter1"/><feColorMatrix values="0 0 0 0 0 0 0 0 0 0 0 0 0 0 0 0 0 0 0.5 0" in="shadowBlurOuter1" result="shadowMatrixOuter1"/><feMerge><feMergeNode in="shadowMatrixOuter1"/><feMergeNode in="SourceGraphic"/></feMerge></filter><path id="b" d="M0 .013h34V29H0z"/><path id="d" d="M.028.011h6.96v6.96H.028z"/></defs><g filter="url(#a)" transform="translate(-6 -253)" fill="none" fill-rule="evenodd" opacity=".9"><g transform="translate(10 265)"><mask id="c" fill="#fff"><use xlink:href="#b"/></mask><path d="M32.407 27.398H1.593V1.615h30.814v25.783zm0-27.385H1.593A1.6 1.6 0 0 0 0 1.615v25.783A1.6 1.6 0 0 0 1.593 29h30.814A1.6 1.6 0 0 0 34 27.398V1.615A1.6 1.6 0 0 0 32.407.013z" fill="#FFF" mask="url(#c)"/></g><path d="M38.775 270.256v13.571l-4.606-4.745a.775.775 0 0 0-1.119 0l-2.823 2.91-6.518-6.716a.775.775 0 0 0-1.119 0l-7.365 7.588v-12.608h23.55zm0 16.072h-4.34l-3.09-3.184 2.265-2.333 5.008 5.16c.048.05.1.09.157.125v.232zm-23.55-1.158l7.925-8.165 9.047 9.323H15.225v-1.158zm-.791 2.788h25.132c.02 0 .038 0 .054-.002a.805.805 0 0 0 .737-.813V269.44c0-.015 0-.03-.002-.043a.801.801 0 0 0-.79-.772h-25.13a.803.803 0 0 0-.791.815v17.703c0 .45.354.815.791.815z" fill="#FFF"/><path d="M30.036 272.714c.747 0 1.355.605 1.355 1.348 0 .744-.608 1.35-1.355 1.35a1.354 1.354 0 0 1-1.356-1.35c0-.743.608-1.348 1.356-1.348m0 4.37a3.032 3.032 0 0 0 3.035-3.022 3.032 3.032 0 0 0-3.035-3.02 3.032 3.032 0 0 0-3.036 3.02 3.032 3.032 0 0 0 3.036 3.021m-15.558 13.292h6.83c.46 0 .835-.27.835-.604 0-.334-.374-.604-.835-.604h-6.83c-.461 0-.835.27-.835.604 0 .334.374.604.835.604m11.643-1.208h-1.885c-.485 0-.879.27-.879.604 0 .334.394.604.88.604h1.884c.485 0 .879-.27.879-.604 0-.334-.394-.604-.879-.604M36 265a.539.539 0 0 1-.527-.428 5.23 5.23 0 0 0-4.045-4.045.539.539 0 0 1 0-1.054 5.23 5.23 0 0 0 4.045-4.045.539.539 0 0 1 1.054 0 5.23 5.23 0 0 0 4.045 4.045.539.539 0 0 1 0 1.054 5.23 5.23 0 0 0-4.045 4.045A.539.539 0 0 1 36 265m1 7a.565.565 0 0 1-.553-.449 2.584 2.584 0 0 0-1.998-1.998.565.565 0 0 1 0-1.106 2.584 2.584 0 0 0 1.998-1.998.565.565 0 0 1 1.106 0 2.584 2.584 0 0 0 1.998 1.998.565.565 0 0 1 0 1.106 2.584 2.584 0 0 0-1.998 1.998A.565.565 0 0 1 37 272" fill="#FFF"/><g transform="translate(40 261)"><mask id="e" fill="#fff"><use xlink:href="#d"/></mask><path d="M3.508 6.972a.53.53 0 0 1-.52-.422A3.282 3.282 0 0 0 .45 4.01a.53.53 0 0 1 0-1.039A3.282 3.282 0 0 0 2.989.433a.53.53 0 0 1 1.039 0 3.283 3.283 0 0 0 2.539 2.54.53.53 0 0 1 0 1.038 3.283 3.283 0 0 0-2.54 2.539.53.53 0 0 1-.519.422" fill="#FFF" mask="url(#e)"/></g></g></svg>