<svg width="40" height="40" viewBox="0 0 40 40" xmlns="http://www.w3.org/2000/svg" xmlns:xlink="http://www.w3.org/1999/xlink"><title>Page 1</title><defs><filter x="-13%" y="-1.6%" width="125.9%" height="104.6%" filterUnits="objectBoundingBox" id="a"><feOffset dy="2" in="SourceAlpha" result="shadowOffsetOuter1"/><feGaussianBlur stdDeviation="2" in="shadowOffsetOuter1" result="shadowBlurOuter1"/><feColorMatrix values="0 0 0 0 0 0 0 0 0 0 0 0 0 0 0 0 0 0 0.5 0" in="shadowBlurOuter1" result="shadowMatrixOuter1"/><feMerge><feMergeNode in="shadowMatrixOuter1"/><feMergeNode in="SourceGraphic"/></feMerge></filter><path id="b" d="M0 0h32v32H0z"/></defs><g filter="url(#a)" transform="translate(-7 -12)" fill="none" fill-rule="evenodd" opacity=".9"><g transform="translate(11 14)"><mask id="c" fill="#fff"><use xlink:href="#b"/></mask><path d="M18.879 23.743c-5.857 0-10.622-4.765-10.622-10.622S13.022 2.5 18.879 2.5 29.5 7.264 29.5 13.121s-4.765 10.622-10.622 10.622m0-23.743C11.644 0 5.757 5.886 5.757 13.121c0 3.169 1.13 6.079 3.006 8.349L0 30.233 1.767 32l8.763-8.763a13.061 13.061 0 0 0 8.349 3.006C26.114 26.243 32 20.357 32 13.12 32 5.886 26.114 0 18.879 0" fill="#FFF" mask="url(#c)"/></g><path fill="#FFF" d="M31.217 20h-2.434v5.783H23v2.434h5.783V34h2.434v-5.783H37v-2.434h-5.783z"/></g></svg>